%TF.GenerationSoftware,KiCad,Pcbnew,9.0.0*%
%TF.CreationDate,2025-05-09T22:52:22+03:00*%
%TF.ProjectId,QMX+ Battery + Audio Board,514d582b-2042-4617-9474-657279202b20,rev?*%
%TF.SameCoordinates,Original*%
%TF.FileFunction,Copper,L2,Bot*%
%TF.FilePolarity,Positive*%
%FSLAX46Y46*%
G04 Gerber Fmt 4.6, Leading zero omitted, Abs format (unit mm)*
G04 Created by KiCad (PCBNEW 9.0.0) date 2025-05-09 22:52:22*
%MOMM*%
%LPD*%
G01*
G04 APERTURE LIST*
G04 Aperture macros list*
%AMOutline5P*
0 Free polygon, 5 corners , with rotation*
0 The origin of the aperture is its center*
0 number of corners: always 5*
0 $1 to $10 corner X, Y*
0 $11 Rotation angle, in degrees counterclockwise*
0 create outline with 5 corners*
4,1,5,$1,$2,$3,$4,$5,$6,$7,$8,$9,$10,$1,$2,$11*%
%AMOutline6P*
0 Free polygon, 6 corners , with rotation*
0 The origin of the aperture is its center*
0 number of corners: always 6*
0 $1 to $12 corner X, Y*
0 $13 Rotation angle, in degrees counterclockwise*
0 create outline with 6 corners*
4,1,6,$1,$2,$3,$4,$5,$6,$7,$8,$9,$10,$11,$12,$1,$2,$13*%
%AMOutline7P*
0 Free polygon, 7 corners , with rotation*
0 The origin of the aperture is its center*
0 number of corners: always 7*
0 $1 to $14 corner X, Y*
0 $15 Rotation angle, in degrees counterclockwise*
0 create outline with 7 corners*
4,1,7,$1,$2,$3,$4,$5,$6,$7,$8,$9,$10,$11,$12,$13,$14,$1,$2,$15*%
%AMOutline8P*
0 Free polygon, 8 corners , with rotation*
0 The origin of the aperture is its center*
0 number of corners: always 8*
0 $1 to $16 corner X, Y*
0 $17 Rotation angle, in degrees counterclockwise*
0 create outline with 8 corners*
4,1,8,$1,$2,$3,$4,$5,$6,$7,$8,$9,$10,$11,$12,$13,$14,$15,$16,$1,$2,$17*%
G04 Aperture macros list end*
%TA.AperFunction,ComponentPad*%
%ADD10C,2.000000*%
%TD*%
%TA.AperFunction,ComponentPad*%
%ADD11R,2.000000X3.000000*%
%TD*%
%TA.AperFunction,ComponentPad*%
%ADD12R,3.000000X4.000000*%
%TD*%
%TA.AperFunction,ComponentPad*%
%ADD13R,3.500000X3.500000*%
%TD*%
%TA.AperFunction,ComponentPad*%
%ADD14C,3.500000*%
%TD*%
%TA.AperFunction,ComponentPad*%
%ADD15O,2.000000X2.000000*%
%TD*%
%TA.AperFunction,ComponentPad*%
%ADD16O,2.540000X2.000000*%
%TD*%
%TA.AperFunction,ComponentPad*%
%ADD17C,1.600000*%
%TD*%
%TA.AperFunction,ComponentPad*%
%ADD18O,1.600000X1.600000*%
%TD*%
%TA.AperFunction,ComponentPad*%
%ADD19R,2.520000X1.551400*%
%TD*%
%TA.AperFunction,ComponentPad*%
%ADD20R,2.500000X3.000000*%
%TD*%
%TA.AperFunction,ComponentPad*%
%ADD21C,3.810000*%
%TD*%
%TA.AperFunction,ComponentPad*%
%ADD22Outline8P,-0.889000X0.368236X-0.368236X0.889000X0.368236X0.889000X0.889000X0.368236X0.889000X-0.368236X0.368236X-0.889000X-0.368236X-0.889000X-0.889000X-0.368236X0.000000*%
%TD*%
%TA.AperFunction,ComponentPad*%
%ADD23Outline8P,-0.889000X0.368236X-0.368236X0.889000X0.368236X0.889000X0.889000X0.368236X0.889000X-0.368236X0.368236X-0.889000X-0.368236X-0.889000X-0.889000X-0.368236X270.000000*%
%TD*%
%TA.AperFunction,Conductor*%
%ADD24C,1.500000*%
%TD*%
G04 APERTURE END LIST*
D10*
%TO.P,F1,2*%
%TO.N,Net-(BMS1-+)*%
X210000000Y-101600000D03*
%TO.P,F1,1*%
%TO.N,Net-(J3-Pin_1)*%
X210000000Y-86360000D03*
%TO.P,F1,2*%
%TO.N,Net-(BMS1-+)*%
X210000000Y-109220000D03*
%TD*%
D11*
%TO.P,U1,1,VIN*%
%TO.N,unconnected-(U1-VIN-Pad1)*%
X212668500Y-77317500D03*
%TO.P,U1,2,GND*%
%TO.N,unconnected-(U1-GND-Pad2)*%
X212668500Y-62839500D03*
D12*
%TO.P,U1,3,BAT*%
%TO.N,Net-(J3-Pin_1)*%
X178938500Y-67665500D03*
%TO.P,U1,4,GND*%
%TO.N,Net-(BMS1--)*%
X178938500Y-72491500D03*
%TD*%
D13*
%TO.P,BT3,1,+*%
%TO.N,Net-(BMS1-12.6V)*%
X116840000Y-66000000D03*
D14*
%TO.P,BT3,2,-*%
%TO.N,Net-(BMS1-8.4V)*%
X116840000Y-138000000D03*
%TD*%
D15*
%TO.P,U2,1,VDD*%
%TO.N,Net-(J2-Pin_2)*%
X102284000Y-90028200D03*
%TO.P,U2,2,IN*%
%TO.N,Net-(U2-IN)*%
X99744000Y-90006100D03*
%TO.P,U2,3,GND*%
%TO.N,GND*%
X94655000Y-90028200D03*
X97204000Y-90006100D03*
%TD*%
D16*
%TO.P,J1,1,Pin_1*%
%TO.N,unconnected-(J1-Pin_1-Pad1)*%
X96940000Y-68640000D03*
%TO.P,J1,2,Pin_2*%
%TO.N,unconnected-(J1-Pin_2-Pad2)*%
X96940000Y-66100000D03*
%TO.P,J1,3,Pin_3*%
%TO.N,Net-(J1-Pin_3)*%
X96940000Y-63560000D03*
%TO.P,J1,4,Pin_4*%
%TO.N,Net-(J1-Pin_4)*%
X96940000Y-61020000D03*
%TO.P,J1,5,Pin_5*%
%TO.N,unconnected-(J1-Pin_5-Pad5)*%
X96940000Y-58480000D03*
%TD*%
D17*
%TO.P,R2,1*%
%TO.N,Net-(J1-Pin_4)*%
X96520000Y-74236000D03*
D18*
%TO.P,R2,2*%
%TO.N,Net-(U2-IN)*%
X96520000Y-84396000D03*
%TD*%
D17*
%TO.P,R1,1*%
%TO.N,Net-(J1-Pin_3)*%
X100330000Y-74236000D03*
D18*
%TO.P,R1,2*%
%TO.N,Net-(U2-IN)*%
X100330000Y-84396000D03*
%TD*%
D19*
%TO.P,BMS1,1,0V*%
%TO.N,Net-(BMS1-0V)*%
X192010000Y-133750300D03*
D20*
X192000000Y-132240000D03*
%TO.P,BMS1,2,4.2V*%
%TO.N,Net-(BMS1-4.2V)*%
X192000000Y-113190000D03*
%TO.P,BMS1,3,8.4V*%
%TO.N,Net-(BMS1-8.4V)*%
X192000000Y-94140000D03*
%TO.P,BMS1,4,12.6V*%
%TO.N,Net-(BMS1-12.6V)*%
X174220000Y-94140000D03*
%TO.P,BMS1,5,+*%
%TO.N,Net-(BMS1-+)*%
X180570000Y-89060000D03*
%TO.P,BMS1,6,-*%
%TO.N,Net-(BMS1--)*%
X185650000Y-89060000D03*
%TD*%
D21*
%TO.P,H1,B3\u002C3*%
%TO.N,GND*%
X98840000Y-138172500D03*
%TD*%
%TO.P,H2,B3\u002C3*%
%TO.N,GND*%
X201948750Y-99437500D03*
%TD*%
D13*
%TO.P,BT2,1,+*%
%TO.N,Net-(BMS1-8.4V)*%
X138430000Y-138000000D03*
D14*
%TO.P,BT2,2,-*%
%TO.N,Net-(BMS1-4.2V)*%
X138430000Y-66000000D03*
%TD*%
D13*
%TO.P,BT1,1,+*%
%TO.N,Net-(BMS1-4.2V)*%
X160000000Y-66000000D03*
D14*
%TO.P,BT1,2,-*%
%TO.N,Net-(BMS1-0V)*%
X160000000Y-138000000D03*
%TD*%
D22*
%TO.P,J2,1,Pin_1*%
%TO.N,unconnected-(J2-Pin_1-Pad1)*%
X121700000Y-148010000D03*
%TO.P,J2,2,Pin_2*%
%TO.N,Net-(J2-Pin_2)*%
X121700000Y-145470000D03*
%TO.P,J2,3,Pin_3*%
%TO.N,GND*%
X124240000Y-148010000D03*
%TO.P,J2,4,Pin_4*%
%TO.N,unconnected-(J2-Pin_4-Pad4)*%
X124240000Y-145470000D03*
%TO.P,J2,5,Pin_5*%
%TO.N,GND*%
X126780000Y-148010000D03*
%TO.P,J2,6,Pin_6*%
%TO.N,unconnected-(J2-Pin_6-Pad6)*%
X126780000Y-145470000D03*
%TD*%
D23*
%TO.P,J3,1,Pin_1*%
%TO.N,Net-(J3-Pin_1)*%
X196312500Y-55940000D03*
%TO.P,J3,2,Pin_2*%
%TO.N,unconnected-(J3-Pin_2-Pad2)*%
X198852500Y-55940000D03*
%TO.P,J3,3,Pin_3*%
%TO.N,Net-(BMS1--)*%
X196312500Y-58480000D03*
%TO.P,J3,4,Pin_4*%
%TO.N,unconnected-(J3-Pin_4-Pad4)*%
X198852500Y-58480000D03*
%TD*%
D24*
%TO.N,Net-(J3-Pin_1)*%
X199390000Y-86360000D02*
X210000000Y-86360000D01*
X196850000Y-83820000D02*
X199390000Y-86360000D01*
X196850000Y-69850000D02*
X196850000Y-83820000D01*
%TO.N,Net-(BMS1-12.6V)*%
X119540000Y-94140000D02*
X174220000Y-94140000D01*
X116840000Y-66000000D02*
X116840000Y-91440000D01*
X116840000Y-91440000D02*
X119540000Y-94140000D01*
%TO.N,Net-(BMS1-8.4V)*%
X146650000Y-133350000D02*
X181610000Y-133350000D01*
X187800000Y-94140000D02*
X192000000Y-94140000D01*
X181610000Y-133350000D02*
X185420000Y-129540000D01*
X138430000Y-138000000D02*
X142000000Y-138000000D01*
X185420000Y-96520000D02*
X187800000Y-94140000D01*
X185420000Y-129540000D02*
X185420000Y-96520000D01*
X142000000Y-138000000D02*
X146650000Y-133350000D01*
%TO.N,Net-(J2-Pin_2)*%
X106538200Y-90028200D02*
X102284000Y-90028200D01*
X107950000Y-142240000D02*
X107950000Y-91440000D01*
X121700000Y-145470000D02*
X111180000Y-145470000D01*
X111180000Y-145470000D02*
X107950000Y-142240000D01*
X107950000Y-91440000D02*
X106538200Y-90028200D01*
%TO.N,Net-(J3-Pin_1)*%
X194861600Y-67861600D02*
X178938500Y-67861600D01*
X178938500Y-68580000D02*
X178938500Y-67861600D01*
X196850000Y-69850000D02*
X194861600Y-67861600D01*
%TD*%
%TA.AperFunction,Conductor*%
%TO.N,GND*%
G36*
X126306619Y-147813919D02*
G01*
X126272000Y-147943120D01*
X126272000Y-148076880D01*
X126306619Y-148206081D01*
X126337749Y-148260000D01*
X124682251Y-148260000D01*
X124713381Y-148206081D01*
X124748000Y-148076880D01*
X124748000Y-147943120D01*
X124713381Y-147813919D01*
X124682251Y-147760000D01*
X126337749Y-147760000D01*
X126306619Y-147813919D01*
G37*
%TD.AperFunction*%
%TA.AperFunction,Conductor*%
G36*
X96738075Y-89813107D02*
G01*
X96704000Y-89940274D01*
X96704000Y-90071926D01*
X96738075Y-90199093D01*
X96770988Y-90256100D01*
X96273179Y-90256100D01*
X96237896Y-90275366D01*
X96211538Y-90278200D01*
X95088012Y-90278200D01*
X95120925Y-90221193D01*
X95155000Y-90094026D01*
X95155000Y-89962374D01*
X95120925Y-89835207D01*
X95088012Y-89778200D01*
X95585821Y-89778200D01*
X95621104Y-89758934D01*
X95647462Y-89756100D01*
X96770988Y-89756100D01*
X96738075Y-89813107D01*
G37*
%TD.AperFunction*%
%TA.AperFunction,Conductor*%
G36*
X195184627Y-54890185D02*
G01*
X195230382Y-54942989D01*
X195240326Y-55012147D01*
X195211301Y-55075703D01*
X195205269Y-55082181D01*
X195040628Y-55246821D01*
X195040611Y-55246840D01*
X194988636Y-55313745D01*
X194988635Y-55313746D01*
X194933561Y-55446710D01*
X194933559Y-55446717D01*
X194923000Y-55530783D01*
X194922999Y-55530790D01*
X194922999Y-56349210D01*
X194933559Y-56433282D01*
X194933560Y-56433286D01*
X194988636Y-56566251D01*
X195000238Y-56581186D01*
X195040621Y-56633171D01*
X195040625Y-56633175D01*
X195040626Y-56633176D01*
X195529768Y-57122318D01*
X195563253Y-57183641D01*
X195558269Y-57253333D01*
X195529768Y-57297680D01*
X195040628Y-57786821D01*
X195040611Y-57786840D01*
X194988636Y-57853745D01*
X194988635Y-57853746D01*
X194933561Y-57986710D01*
X194933559Y-57986717D01*
X194923000Y-58070783D01*
X194922999Y-58070790D01*
X194922999Y-58889210D01*
X194933559Y-58973282D01*
X194933560Y-58973286D01*
X194988636Y-59106251D01*
X195000238Y-59121186D01*
X195040621Y-59173171D01*
X195040625Y-59173175D01*
X195040626Y-59173176D01*
X195619321Y-59751871D01*
X195619340Y-59751888D01*
X195686245Y-59803863D01*
X195686246Y-59803864D01*
X195758963Y-59833983D01*
X195819214Y-59858940D01*
X195903287Y-59869500D01*
X196721709Y-59869501D01*
X196805785Y-59858940D01*
X196938752Y-59803863D01*
X197005671Y-59751879D01*
X197494818Y-59262729D01*
X197556141Y-59229245D01*
X197625832Y-59234229D01*
X197670180Y-59262730D01*
X198159321Y-59751871D01*
X198159340Y-59751888D01*
X198226245Y-59803863D01*
X198226246Y-59803864D01*
X198298963Y-59833983D01*
X198359214Y-59858940D01*
X198443287Y-59869500D01*
X199261709Y-59869501D01*
X199345785Y-59858940D01*
X199478752Y-59803863D01*
X199545671Y-59751879D01*
X200124382Y-59173167D01*
X200176364Y-59106253D01*
X200231440Y-58973286D01*
X200242000Y-58889213D01*
X200242001Y-58070791D01*
X200231440Y-57986715D01*
X200176363Y-57853748D01*
X200124379Y-57786829D01*
X199840037Y-57502487D01*
X199635230Y-57297680D01*
X199601745Y-57236357D01*
X199606729Y-57166665D01*
X199635228Y-57122320D01*
X200124382Y-56633167D01*
X200176364Y-56566253D01*
X200231440Y-56433286D01*
X200242000Y-56349213D01*
X200242001Y-55530791D01*
X200231440Y-55446715D01*
X200176363Y-55313748D01*
X200124379Y-55246829D01*
X199959731Y-55082181D01*
X199926246Y-55020858D01*
X199931230Y-54951166D01*
X199973102Y-54895233D01*
X200038566Y-54870816D01*
X200047412Y-54870500D01*
X215180500Y-54870500D01*
X215247539Y-54890185D01*
X215293294Y-54942989D01*
X215304500Y-54994500D01*
X215304500Y-115305500D01*
X215284815Y-115372539D01*
X215232011Y-115418294D01*
X215180500Y-115429500D01*
X196223866Y-115429500D01*
X196150175Y-115460024D01*
X196093774Y-115516425D01*
X196063250Y-115590116D01*
X196063250Y-115590118D01*
X196063250Y-135275118D01*
X196063250Y-135354882D01*
X196093774Y-135428574D01*
X196150176Y-135484976D01*
X196223868Y-135515500D01*
X205020500Y-135515500D01*
X205087539Y-135535185D01*
X205133294Y-135587989D01*
X205144500Y-135639500D01*
X205144500Y-149935500D01*
X205124815Y-150002539D01*
X205072011Y-150048294D01*
X205020500Y-150059500D01*
X90274500Y-150059500D01*
X90207461Y-150039815D01*
X90161706Y-149987011D01*
X90150500Y-149935500D01*
X90150500Y-137922500D01*
X96447951Y-137922500D01*
X97209029Y-137922500D01*
X97190000Y-138042642D01*
X97190000Y-138302358D01*
X97209029Y-138422500D01*
X96447951Y-138422500D01*
X96465243Y-138575974D01*
X96465245Y-138575990D01*
X96525352Y-138839337D01*
X96525353Y-138839339D01*
X96614569Y-139094306D01*
X96614571Y-139094310D01*
X96731767Y-139337671D01*
X96875485Y-139566395D01*
X97043904Y-139777587D01*
X97234912Y-139968595D01*
X97446104Y-140137014D01*
X97674828Y-140280732D01*
X97918189Y-140397928D01*
X97918193Y-140397930D01*
X98173160Y-140487146D01*
X98173162Y-140487147D01*
X98436509Y-140547254D01*
X98436525Y-140547256D01*
X98590000Y-140564549D01*
X98590000Y-139803471D01*
X98710142Y-139822500D01*
X98969858Y-139822500D01*
X99090000Y-139803471D01*
X99090000Y-140564548D01*
X99243474Y-140547256D01*
X99243490Y-140547254D01*
X99506837Y-140487147D01*
X99506839Y-140487146D01*
X99761806Y-140397930D01*
X99761810Y-140397928D01*
X100005171Y-140280732D01*
X100233895Y-140137014D01*
X100445087Y-139968595D01*
X100636095Y-139777587D01*
X100804514Y-139566395D01*
X100948232Y-139337671D01*
X101065428Y-139094310D01*
X101065430Y-139094306D01*
X101154646Y-138839339D01*
X101154647Y-138839337D01*
X101214754Y-138575990D01*
X101214756Y-138575974D01*
X101232049Y-138422500D01*
X100470971Y-138422500D01*
X100490000Y-138302358D01*
X100490000Y-138042642D01*
X100470971Y-137922500D01*
X101232049Y-137922500D01*
X101214756Y-137769025D01*
X101214754Y-137769009D01*
X101154647Y-137505662D01*
X101154646Y-137505660D01*
X101065430Y-137250693D01*
X101065428Y-137250689D01*
X100948232Y-137007328D01*
X100804514Y-136778604D01*
X100636095Y-136567412D01*
X100445087Y-136376404D01*
X100233895Y-136207985D01*
X100005171Y-136064267D01*
X99761810Y-135947071D01*
X99761806Y-135947069D01*
X99506839Y-135857853D01*
X99506837Y-135857852D01*
X99243490Y-135797745D01*
X99243474Y-135797743D01*
X99090000Y-135780449D01*
X99090000Y-136541528D01*
X98969858Y-136522500D01*
X98710142Y-136522500D01*
X98590000Y-136541528D01*
X98590000Y-135780449D01*
X98436525Y-135797743D01*
X98436509Y-135797745D01*
X98173162Y-135857852D01*
X98173160Y-135857853D01*
X97918193Y-135947069D01*
X97918189Y-135947071D01*
X97674828Y-136064267D01*
X97446104Y-136207985D01*
X97234912Y-136376404D01*
X97043904Y-136567412D01*
X96875485Y-136778604D01*
X96731767Y-137007328D01*
X96614571Y-137250689D01*
X96614569Y-137250693D01*
X96525353Y-137505660D01*
X96525352Y-137505662D01*
X96465245Y-137769009D01*
X96465243Y-137769025D01*
X96447951Y-137922500D01*
X90150500Y-137922500D01*
X90150500Y-128000000D01*
X92000000Y-128000000D01*
X105000000Y-128000000D01*
X105000000Y-112000000D01*
X92000000Y-112000000D01*
X92000000Y-128000000D01*
X90150500Y-128000000D01*
X90150500Y-89778200D01*
X93175898Y-89778200D01*
X94221988Y-89778200D01*
X94189075Y-89835207D01*
X94155000Y-89962374D01*
X94155000Y-90094026D01*
X94189075Y-90221193D01*
X94221988Y-90278200D01*
X93175898Y-90278200D01*
X93191934Y-90379447D01*
X93264897Y-90604002D01*
X93372085Y-90814371D01*
X93510866Y-91005386D01*
X93677813Y-91172333D01*
X93868828Y-91311114D01*
X94079195Y-91418302D01*
X94303744Y-91491263D01*
X94303750Y-91491265D01*
X94405000Y-91507301D01*
X94405000Y-90461212D01*
X94462007Y-90494125D01*
X94589174Y-90528200D01*
X94720826Y-90528200D01*
X94847993Y-90494125D01*
X94905000Y-90461212D01*
X94905000Y-91507300D01*
X95006249Y-91491265D01*
X95006255Y-91491263D01*
X95230804Y-91418302D01*
X95441171Y-91311114D01*
X95632186Y-91172333D01*
X95799139Y-91005380D01*
X95837209Y-90952980D01*
X95892538Y-90910314D01*
X95962151Y-90904333D01*
X96023947Y-90936938D01*
X96037846Y-90952978D01*
X96059866Y-90983286D01*
X96226813Y-91150233D01*
X96417828Y-91289014D01*
X96628195Y-91396202D01*
X96852744Y-91469163D01*
X96852750Y-91469165D01*
X96954000Y-91485201D01*
X96954000Y-90439112D01*
X97011007Y-90472025D01*
X97138174Y-90506100D01*
X97269826Y-90506100D01*
X97396993Y-90472025D01*
X97454000Y-90439112D01*
X97454000Y-91485200D01*
X97555249Y-91469165D01*
X97555255Y-91469163D01*
X97779804Y-91396202D01*
X97990171Y-91289014D01*
X98181186Y-91150233D01*
X98348137Y-90983282D01*
X98373371Y-90948550D01*
X98428700Y-90905883D01*
X98498314Y-90899902D01*
X98560109Y-90932507D01*
X98574008Y-90948547D01*
X98599483Y-90983610D01*
X98766490Y-91150617D01*
X98957567Y-91289443D01*
X99000099Y-91311114D01*
X99168003Y-91396666D01*
X99168005Y-91396666D01*
X99168008Y-91396668D01*
X99236025Y-91418768D01*
X99392631Y-91469653D01*
X99625903Y-91506600D01*
X99625908Y-91506600D01*
X99862097Y-91506600D01*
X100095368Y-91469653D01*
X100096876Y-91469163D01*
X100319992Y-91396668D01*
X100530433Y-91289443D01*
X100721510Y-91150617D01*
X100888517Y-90983610D01*
X100905651Y-90960026D01*
X100960979Y-90917359D01*
X101030593Y-90911378D01*
X101092389Y-90943982D01*
X101106288Y-90960022D01*
X101139482Y-91005709D01*
X101139483Y-91005710D01*
X101306490Y-91172717D01*
X101497567Y-91311543D01*
X101556512Y-91341577D01*
X101708003Y-91418766D01*
X101708005Y-91418766D01*
X101708008Y-91418768D01*
X101828412Y-91457889D01*
X101932631Y-91491753D01*
X102165903Y-91528700D01*
X102165908Y-91528700D01*
X102402097Y-91528700D01*
X102635368Y-91491753D01*
X102655536Y-91485200D01*
X102859992Y-91418768D01*
X103070433Y-91311543D01*
X103076799Y-91306917D01*
X103083043Y-91302382D01*
X103148849Y-91278902D01*
X103155928Y-91278700D01*
X105968864Y-91278700D01*
X106035903Y-91298385D01*
X106056545Y-91315019D01*
X106663181Y-91921655D01*
X106696666Y-91982978D01*
X106699500Y-92009336D01*
X106699500Y-142338422D01*
X106730290Y-142532826D01*
X106791117Y-142720030D01*
X106880476Y-142895405D01*
X106996172Y-143054646D01*
X110365354Y-146423828D01*
X110524595Y-146539524D01*
X110699974Y-146628884D01*
X110699976Y-146628884D01*
X110699979Y-146628886D01*
X110699977Y-146628886D01*
X110876178Y-146686136D01*
X110876179Y-146686137D01*
X110883145Y-146688400D01*
X110887174Y-146689709D01*
X110984378Y-146705104D01*
X111081578Y-146720500D01*
X111081583Y-146720500D01*
X111081584Y-146720500D01*
X111278417Y-146720500D01*
X120725087Y-146720500D01*
X120792126Y-146740185D01*
X120837881Y-146792989D01*
X120847825Y-146862147D01*
X120818800Y-146925703D01*
X120812768Y-146932181D01*
X120428128Y-147316821D01*
X120428111Y-147316840D01*
X120376136Y-147383745D01*
X120376135Y-147383746D01*
X120321061Y-147516710D01*
X120321059Y-147516717D01*
X120310500Y-147600783D01*
X120310499Y-147600790D01*
X120310499Y-148419210D01*
X120321059Y-148503282D01*
X120321060Y-148503286D01*
X120376136Y-148636251D01*
X120376137Y-148636252D01*
X120428121Y-148703171D01*
X120428125Y-148703175D01*
X120428126Y-148703176D01*
X121006821Y-149281871D01*
X121006840Y-149281888D01*
X121073745Y-149333863D01*
X121073746Y-149333864D01*
X121146463Y-149363983D01*
X121206714Y-149388940D01*
X121290787Y-149399500D01*
X122109209Y-149399501D01*
X122193285Y-149388940D01*
X122326252Y-149333863D01*
X122393171Y-149281879D01*
X122882674Y-148792374D01*
X122943995Y-148758891D01*
X123013686Y-148763875D01*
X123058034Y-148792376D01*
X123547154Y-149281496D01*
X123547167Y-149281507D01*
X123614005Y-149333429D01*
X123746839Y-149388450D01*
X123830825Y-149398999D01*
X123989999Y-149398999D01*
X123990000Y-149398998D01*
X123990000Y-148452251D01*
X124043919Y-148483381D01*
X124173120Y-148518000D01*
X124306880Y-148518000D01*
X124436081Y-148483381D01*
X124490000Y-148452251D01*
X124490000Y-149398999D01*
X124649170Y-149398999D01*
X124733160Y-149388451D01*
X124865993Y-149333429D01*
X124932840Y-149281500D01*
X124932846Y-149281495D01*
X125422319Y-148792023D01*
X125483642Y-148758538D01*
X125553334Y-148763522D01*
X125597681Y-148792023D01*
X126087154Y-149281496D01*
X126087167Y-149281507D01*
X126154005Y-149333429D01*
X126286839Y-149388450D01*
X126370825Y-149398999D01*
X126529999Y-149398999D01*
X126530000Y-149398998D01*
X126530000Y-148452251D01*
X126583919Y-148483381D01*
X126713120Y-148518000D01*
X126846880Y-148518000D01*
X126976081Y-148483381D01*
X127030000Y-148452251D01*
X127030000Y-149398999D01*
X127189170Y-149398999D01*
X127273160Y-149388451D01*
X127405993Y-149333429D01*
X127472840Y-149281500D01*
X127472846Y-149281495D01*
X128051496Y-148702845D01*
X128051507Y-148702832D01*
X128103429Y-148635994D01*
X128103429Y-148635993D01*
X128158450Y-148503160D01*
X128168999Y-148419177D01*
X128169000Y-148419171D01*
X128169000Y-148260000D01*
X127222251Y-148260000D01*
X127253381Y-148206081D01*
X127288000Y-148076880D01*
X127288000Y-147943120D01*
X127253381Y-147813919D01*
X127222251Y-147760000D01*
X128168999Y-147760000D01*
X128168999Y-147600829D01*
X128158451Y-147516839D01*
X128103429Y-147384006D01*
X128051500Y-147317159D01*
X128051495Y-147317153D01*
X127562376Y-146828034D01*
X127528891Y-146766711D01*
X127533875Y-146697019D01*
X127562372Y-146652677D01*
X128051882Y-146163167D01*
X128103864Y-146096253D01*
X128158940Y-145963286D01*
X128169500Y-145879213D01*
X128169501Y-145060791D01*
X128158940Y-144976715D01*
X128103863Y-144843748D01*
X128051879Y-144776829D01*
X127962319Y-144687269D01*
X127473178Y-144198128D01*
X127473159Y-144198111D01*
X127406254Y-144146136D01*
X127406253Y-144146135D01*
X127273289Y-144091061D01*
X127273287Y-144091060D01*
X127273286Y-144091060D01*
X127273285Y-144091059D01*
X127273282Y-144091059D01*
X127189216Y-144080500D01*
X127189209Y-144080499D01*
X126370789Y-144080499D01*
X126286717Y-144091059D01*
X126286713Y-144091060D01*
X126153748Y-144146136D01*
X126086829Y-144198121D01*
X126086823Y-144198126D01*
X125597681Y-144687269D01*
X125536358Y-144720754D01*
X125466666Y-144715770D01*
X125422319Y-144687269D01*
X124933178Y-144198128D01*
X124933159Y-144198111D01*
X124866254Y-144146136D01*
X124866253Y-144146135D01*
X124733289Y-144091061D01*
X124733287Y-144091060D01*
X124733286Y-144091060D01*
X124733285Y-144091059D01*
X124733282Y-144091059D01*
X124649216Y-144080500D01*
X124649209Y-144080499D01*
X123830789Y-144080499D01*
X123746717Y-144091059D01*
X123746713Y-144091060D01*
X123613748Y-144146136D01*
X123546829Y-144198121D01*
X123546823Y-144198126D01*
X123057681Y-144687269D01*
X122996358Y-144720754D01*
X122926666Y-144715770D01*
X122882319Y-144687269D01*
X122393178Y-144198128D01*
X122393159Y-144198111D01*
X122326254Y-144146136D01*
X122326253Y-144146135D01*
X122193289Y-144091061D01*
X122193287Y-144091060D01*
X122193286Y-144091060D01*
X122193285Y-144091059D01*
X122193282Y-144091059D01*
X122109216Y-144080500D01*
X122109209Y-144080499D01*
X121290789Y-144080499D01*
X121206717Y-144091059D01*
X121206713Y-144091060D01*
X121073748Y-144146136D01*
X121036902Y-144174759D01*
X121012873Y-144193425D01*
X120947857Y-144219006D01*
X120936804Y-144219500D01*
X111749336Y-144219500D01*
X111682297Y-144199815D01*
X111661655Y-144183181D01*
X109236819Y-141758345D01*
X109203334Y-141697022D01*
X109200500Y-141670664D01*
X109200500Y-137852486D01*
X114589500Y-137852486D01*
X114589500Y-138147513D01*
X114609887Y-138302358D01*
X114628007Y-138439993D01*
X114664443Y-138575974D01*
X114704361Y-138724951D01*
X114704364Y-138724961D01*
X114817254Y-138997500D01*
X114817258Y-138997510D01*
X114964761Y-139252993D01*
X115144352Y-139487040D01*
X115144358Y-139487047D01*
X115352952Y-139695641D01*
X115352959Y-139695647D01*
X115587006Y-139875238D01*
X115842489Y-140022741D01*
X115842490Y-140022741D01*
X115842493Y-140022743D01*
X116115048Y-140135639D01*
X116400007Y-140211993D01*
X116678415Y-140248646D01*
X116692478Y-140250498D01*
X116692494Y-140250500D01*
X116692501Y-140250500D01*
X116987499Y-140250500D01*
X116987506Y-140250500D01*
X117279993Y-140211993D01*
X117564952Y-140135639D01*
X117837507Y-140022743D01*
X118092994Y-139875238D01*
X118327042Y-139695646D01*
X118535646Y-139487042D01*
X118715238Y-139252994D01*
X118862743Y-138997507D01*
X118975639Y-138724952D01*
X119051993Y-138439993D01*
X119090500Y-138147506D01*
X119090500Y-137852494D01*
X119051993Y-137560007D01*
X118975639Y-137275048D01*
X118862743Y-137002493D01*
X118811623Y-136913951D01*
X118715238Y-136747006D01*
X118535647Y-136512959D01*
X118535641Y-136512952D01*
X118327047Y-136304358D01*
X118327040Y-136304352D01*
X118317696Y-136297182D01*
X118193829Y-136202135D01*
X136179500Y-136202135D01*
X136179500Y-139797870D01*
X136179501Y-139797876D01*
X136185908Y-139857483D01*
X136236202Y-139992328D01*
X136236206Y-139992335D01*
X136322452Y-140107544D01*
X136322455Y-140107547D01*
X136437664Y-140193793D01*
X136437671Y-140193797D01*
X136572517Y-140244091D01*
X136572516Y-140244091D01*
X136579444Y-140244835D01*
X136632127Y-140250500D01*
X140227872Y-140250499D01*
X140287483Y-140244091D01*
X140422331Y-140193796D01*
X140537546Y-140107546D01*
X140623796Y-139992331D01*
X140674091Y-139857483D01*
X140680500Y-139797873D01*
X140680500Y-139374500D01*
X140700185Y-139307461D01*
X140752989Y-139261706D01*
X140804500Y-139250500D01*
X142098422Y-139250500D01*
X142292826Y-139219709D01*
X142480026Y-139158884D01*
X142655405Y-139069524D01*
X142814646Y-138953828D01*
X143915988Y-137852486D01*
X157749500Y-137852486D01*
X157749500Y-138147513D01*
X157769887Y-138302358D01*
X157788007Y-138439993D01*
X157824443Y-138575974D01*
X157864361Y-138724951D01*
X157864364Y-138724961D01*
X157977254Y-138997500D01*
X157977258Y-138997510D01*
X158124761Y-139252993D01*
X158304352Y-139487040D01*
X158304358Y-139487047D01*
X158512952Y-139695641D01*
X158512959Y-139695647D01*
X158747006Y-139875238D01*
X159002489Y-140022741D01*
X159002490Y-140022741D01*
X159002493Y-140022743D01*
X159275048Y-140135639D01*
X159560007Y-140211993D01*
X159838415Y-140248646D01*
X159852478Y-140250498D01*
X159852494Y-140250500D01*
X159852501Y-140250500D01*
X160147499Y-140250500D01*
X160147506Y-140250500D01*
X160439993Y-140211993D01*
X160724952Y-140135639D01*
X160997507Y-140022743D01*
X161252994Y-139875238D01*
X161487042Y-139695646D01*
X161695646Y-139487042D01*
X161875238Y-139252994D01*
X162022743Y-138997507D01*
X162135639Y-138724952D01*
X162211993Y-138439993D01*
X162250500Y-138147506D01*
X162250500Y-137852494D01*
X162211993Y-137560007D01*
X162135639Y-137275048D01*
X162022743Y-137002493D01*
X161971623Y-136913951D01*
X161875238Y-136747006D01*
X161695647Y-136512959D01*
X161695641Y-136512952D01*
X161487047Y-136304358D01*
X161487040Y-136304352D01*
X161252993Y-136124761D01*
X160997510Y-135977258D01*
X160997500Y-135977254D01*
X160724961Y-135864364D01*
X160724954Y-135864362D01*
X160724952Y-135864361D01*
X160439993Y-135788007D01*
X160382585Y-135780449D01*
X160147513Y-135749500D01*
X160147506Y-135749500D01*
X159852494Y-135749500D01*
X159852486Y-135749500D01*
X159574085Y-135786153D01*
X159560007Y-135788007D01*
X159492087Y-135806206D01*
X159275048Y-135864361D01*
X159275038Y-135864364D01*
X159002499Y-135977254D01*
X159002489Y-135977258D01*
X158747006Y-136124761D01*
X158512959Y-136304352D01*
X158512952Y-136304358D01*
X158304358Y-136512952D01*
X158304352Y-136512959D01*
X158124761Y-136747006D01*
X157977258Y-137002489D01*
X157977254Y-137002499D01*
X157864364Y-137275038D01*
X157864361Y-137275048D01*
X157788008Y-137560004D01*
X157788006Y-137560015D01*
X157749500Y-137852486D01*
X143915988Y-137852486D01*
X147131655Y-134636819D01*
X147192978Y-134603334D01*
X147219336Y-134600500D01*
X181708422Y-134600500D01*
X181902826Y-134569709D01*
X182090026Y-134508884D01*
X182265405Y-134419524D01*
X182424646Y-134303828D01*
X186036339Y-130692135D01*
X190249500Y-130692135D01*
X190249500Y-134573870D01*
X190249501Y-134573876D01*
X190255908Y-134633483D01*
X190306202Y-134768328D01*
X190306206Y-134768335D01*
X190392452Y-134883544D01*
X190392455Y-134883547D01*
X190507664Y-134969793D01*
X190507671Y-134969797D01*
X190642517Y-135020091D01*
X190642516Y-135020091D01*
X190649444Y-135020835D01*
X190702127Y-135026500D01*
X193317872Y-135026499D01*
X193377483Y-135020091D01*
X193512331Y-134969796D01*
X193627546Y-134883546D01*
X193713796Y-134768331D01*
X193764091Y-134633483D01*
X193770500Y-134573873D01*
X193770499Y-132926728D01*
X193764091Y-132867117D01*
X193758317Y-132851636D01*
X193750499Y-132808302D01*
X193750499Y-130692129D01*
X193750498Y-130692123D01*
X193750497Y-130692116D01*
X193744091Y-130632517D01*
X193693796Y-130497669D01*
X193693795Y-130497668D01*
X193693793Y-130497664D01*
X193607547Y-130382455D01*
X193607544Y-130382452D01*
X193492335Y-130296206D01*
X193492328Y-130296202D01*
X193357482Y-130245908D01*
X193357483Y-130245908D01*
X193297883Y-130239501D01*
X193297881Y-130239500D01*
X193297873Y-130239500D01*
X193297864Y-130239500D01*
X190702129Y-130239500D01*
X190702123Y-130239501D01*
X190642516Y-130245908D01*
X190507671Y-130296202D01*
X190507664Y-130296206D01*
X190392455Y-130382452D01*
X190392452Y-130382455D01*
X190306206Y-130497664D01*
X190306202Y-130497671D01*
X190255908Y-130632517D01*
X190249501Y-130692116D01*
X190249501Y-130692123D01*
X190249500Y-130692135D01*
X186036339Y-130692135D01*
X186373829Y-130354645D01*
X186489524Y-130195405D01*
X186578884Y-130020026D01*
X186639709Y-129832826D01*
X186670500Y-129638421D01*
X186670500Y-111642135D01*
X190249500Y-111642135D01*
X190249500Y-114737870D01*
X190249501Y-114737876D01*
X190255908Y-114797483D01*
X190306202Y-114932328D01*
X190306206Y-114932335D01*
X190392452Y-115047544D01*
X190392455Y-115047547D01*
X190507664Y-115133793D01*
X190507671Y-115133797D01*
X190642517Y-115184091D01*
X190642516Y-115184091D01*
X190649444Y-115184835D01*
X190702127Y-115190500D01*
X193297872Y-115190499D01*
X193357483Y-115184091D01*
X193492331Y-115133796D01*
X193607546Y-115047546D01*
X193693796Y-114932331D01*
X193744091Y-114797483D01*
X193750500Y-114737873D01*
X193750499Y-111642128D01*
X193744091Y-111582517D01*
X193693796Y-111447669D01*
X193693795Y-111447668D01*
X193693793Y-111447664D01*
X193607547Y-111332455D01*
X193607544Y-111332452D01*
X193492335Y-111246206D01*
X193492328Y-111246202D01*
X193357482Y-111195908D01*
X193357483Y-111195908D01*
X193297883Y-111189501D01*
X193297881Y-111189500D01*
X193297873Y-111189500D01*
X193297864Y-111189500D01*
X190702129Y-111189500D01*
X190702123Y-111189501D01*
X190642516Y-111195908D01*
X190507671Y-111246202D01*
X190507664Y-111246206D01*
X190392455Y-111332452D01*
X190392452Y-111332455D01*
X190306206Y-111447664D01*
X190306202Y-111447671D01*
X190255908Y-111582517D01*
X190249501Y-111642116D01*
X190249501Y-111642123D01*
X190249500Y-111642135D01*
X186670500Y-111642135D01*
X186670500Y-109101902D01*
X208499500Y-109101902D01*
X208499500Y-109338097D01*
X208536446Y-109571368D01*
X208609433Y-109795996D01*
X208716657Y-110006433D01*
X208855483Y-110197510D01*
X209022490Y-110364517D01*
X209213567Y-110503343D01*
X209312991Y-110554002D01*
X209424003Y-110610566D01*
X209424005Y-110610566D01*
X209424008Y-110610568D01*
X209544412Y-110649689D01*
X209648631Y-110683553D01*
X209881903Y-110720500D01*
X209881908Y-110720500D01*
X210118097Y-110720500D01*
X210351368Y-110683553D01*
X210575992Y-110610568D01*
X210786433Y-110503343D01*
X210977510Y-110364517D01*
X211144517Y-110197510D01*
X211283343Y-110006433D01*
X211390568Y-109795992D01*
X211463553Y-109571368D01*
X211500500Y-109338097D01*
X211500500Y-109101902D01*
X211463553Y-108868631D01*
X211390566Y-108644003D01*
X211283342Y-108433566D01*
X211144517Y-108242490D01*
X210977510Y-108075483D01*
X210786433Y-107936657D01*
X210575996Y-107829433D01*
X210351368Y-107756446D01*
X210118097Y-107719500D01*
X210118092Y-107719500D01*
X209881908Y-107719500D01*
X209881903Y-107719500D01*
X209648631Y-107756446D01*
X209424003Y-107829433D01*
X209213566Y-107936657D01*
X209104550Y-108015862D01*
X209022490Y-108075483D01*
X209022488Y-108075485D01*
X209022487Y-108075485D01*
X208855485Y-108242487D01*
X208855485Y-108242488D01*
X208855483Y-108242490D01*
X208795862Y-108324550D01*
X208716657Y-108433566D01*
X208609433Y-108644003D01*
X208536446Y-108868631D01*
X208499500Y-109101902D01*
X186670500Y-109101902D01*
X186670500Y-99187500D01*
X199556701Y-99187500D01*
X200317779Y-99187500D01*
X200298750Y-99307642D01*
X200298750Y-99567358D01*
X200317779Y-99687500D01*
X199556701Y-99687500D01*
X199573993Y-99840974D01*
X199573995Y-99840990D01*
X199634102Y-100104337D01*
X199634103Y-100104339D01*
X199723319Y-100359306D01*
X199723321Y-100359310D01*
X199840517Y-100602671D01*
X199984235Y-100831395D01*
X200152654Y-101042587D01*
X200343662Y-101233595D01*
X200554854Y-101402014D01*
X200783578Y-101545732D01*
X201026939Y-101662928D01*
X201026943Y-101662930D01*
X201281910Y-101752146D01*
X201281912Y-101752147D01*
X201545259Y-101812254D01*
X201545275Y-101812256D01*
X201698750Y-101829549D01*
X201698750Y-101068471D01*
X201818892Y-101087500D01*
X202078608Y-101087500D01*
X202198750Y-101068471D01*
X202198750Y-101829548D01*
X202352224Y-101812256D01*
X202352240Y-101812254D01*
X202615587Y-101752147D01*
X202615589Y-101752146D01*
X202870556Y-101662930D01*
X202870560Y-101662928D01*
X203113921Y-101545732D01*
X203215505Y-101481902D01*
X208499500Y-101481902D01*
X208499500Y-101718097D01*
X208536446Y-101951368D01*
X208609433Y-102175996D01*
X208716657Y-102386433D01*
X208855483Y-102577510D01*
X209022490Y-102744517D01*
X209213567Y-102883343D01*
X209312991Y-102934002D01*
X209424003Y-102990566D01*
X209424005Y-102990566D01*
X209424008Y-102990568D01*
X209544412Y-103029689D01*
X209648631Y-103063553D01*
X209881903Y-103100500D01*
X209881908Y-103100500D01*
X210118097Y-103100500D01*
X210351368Y-103063553D01*
X210575992Y-102990568D01*
X210786433Y-102883343D01*
X210977510Y-102744517D01*
X211144517Y-102577510D01*
X211283343Y-102386433D01*
X211390568Y-102175992D01*
X211463553Y-101951368D01*
X211482847Y-101829549D01*
X211500500Y-101718097D01*
X211500500Y-101481902D01*
X211463553Y-101248631D01*
X211411198Y-101087500D01*
X211390568Y-101024008D01*
X211390566Y-101024005D01*
X211390566Y-101024003D01*
X211301247Y-100848706D01*
X211283343Y-100813567D01*
X211144517Y-100622490D01*
X210977510Y-100455483D01*
X210786433Y-100316657D01*
X210575996Y-100209433D01*
X210351368Y-100136446D01*
X210118097Y-100099500D01*
X210118092Y-100099500D01*
X209881908Y-100099500D01*
X209881903Y-100099500D01*
X209648631Y-100136446D01*
X209424003Y-100209433D01*
X209213566Y-100316657D01*
X209154860Y-100359310D01*
X209022490Y-100455483D01*
X209022488Y-100455485D01*
X209022487Y-100455485D01*
X208855485Y-100622487D01*
X208855485Y-100622488D01*
X208855483Y-100622490D01*
X208802039Y-100696049D01*
X208716657Y-100813566D01*
X208609433Y-101024003D01*
X208536446Y-101248631D01*
X208499500Y-101481902D01*
X203215505Y-101481902D01*
X203342645Y-101402014D01*
X203370140Y-101380089D01*
X203553837Y-101233595D01*
X203744845Y-101042587D01*
X203913264Y-100831395D01*
X204056982Y-100602671D01*
X204174178Y-100359310D01*
X204174180Y-100359306D01*
X204263396Y-100104339D01*
X204263397Y-100104337D01*
X204323504Y-99840990D01*
X204323506Y-99840974D01*
X204340799Y-99687500D01*
X203579721Y-99687500D01*
X203598750Y-99567358D01*
X203598750Y-99307642D01*
X203579721Y-99187500D01*
X204340799Y-99187500D01*
X204323506Y-99034025D01*
X204323504Y-99034009D01*
X204263397Y-98770662D01*
X204263396Y-98770660D01*
X204174180Y-98515693D01*
X204174178Y-98515689D01*
X204056982Y-98272328D01*
X203913264Y-98043604D01*
X203744845Y-97832412D01*
X203553837Y-97641404D01*
X203342645Y-97472985D01*
X203113921Y-97329267D01*
X202870560Y-97212071D01*
X202870556Y-97212069D01*
X202615589Y-97122853D01*
X202615587Y-97122852D01*
X202352240Y-97062745D01*
X202352224Y-97062743D01*
X202198750Y-97045449D01*
X202198750Y-97806528D01*
X202078608Y-97787500D01*
X201818892Y-97787500D01*
X201698750Y-97806528D01*
X201698750Y-97045449D01*
X201545275Y-97062743D01*
X201545259Y-97062745D01*
X201281912Y-97122852D01*
X201281910Y-97122853D01*
X201026943Y-97212069D01*
X201026939Y-97212071D01*
X200783578Y-97329267D01*
X200554854Y-97472985D01*
X200343662Y-97641404D01*
X200152654Y-97832412D01*
X199984235Y-98043604D01*
X199840517Y-98272328D01*
X199723321Y-98515689D01*
X199723319Y-98515693D01*
X199634103Y-98770660D01*
X199634102Y-98770662D01*
X199573995Y-99034009D01*
X199573993Y-99034025D01*
X199556701Y-99187500D01*
X186670500Y-99187500D01*
X186670500Y-97089336D01*
X186690185Y-97022297D01*
X186706819Y-97001655D01*
X188281655Y-95426819D01*
X188342978Y-95393334D01*
X188369336Y-95390500D01*
X190125501Y-95390500D01*
X190192540Y-95410185D01*
X190238295Y-95462989D01*
X190249501Y-95514500D01*
X190249501Y-95687876D01*
X190255908Y-95747483D01*
X190306202Y-95882328D01*
X190306206Y-95882335D01*
X190392452Y-95997544D01*
X190392455Y-95997547D01*
X190507664Y-96083793D01*
X190507671Y-96083797D01*
X190642517Y-96134091D01*
X190642516Y-96134091D01*
X190649444Y-96134835D01*
X190702127Y-96140500D01*
X193297872Y-96140499D01*
X193357483Y-96134091D01*
X193492331Y-96083796D01*
X193607546Y-95997546D01*
X193693796Y-95882331D01*
X193744091Y-95747483D01*
X193750500Y-95687873D01*
X193750499Y-92592128D01*
X193744091Y-92532517D01*
X193693796Y-92397669D01*
X193693795Y-92397668D01*
X193693793Y-92397664D01*
X193607547Y-92282455D01*
X193607544Y-92282452D01*
X193492335Y-92196206D01*
X193492328Y-92196202D01*
X193357482Y-92145908D01*
X193357483Y-92145908D01*
X193297883Y-92139501D01*
X193297881Y-92139500D01*
X193297873Y-92139500D01*
X193297864Y-92139500D01*
X190702129Y-92139500D01*
X190702123Y-92139501D01*
X190642516Y-92145908D01*
X190507671Y-92196202D01*
X190507664Y-92196206D01*
X190392455Y-92282452D01*
X190392452Y-92282455D01*
X190306206Y-92397664D01*
X190306202Y-92397671D01*
X190255908Y-92532517D01*
X190249501Y-92592116D01*
X190249501Y-92592123D01*
X190249500Y-92592135D01*
X190249500Y-92765500D01*
X190229815Y-92832539D01*
X190177011Y-92878294D01*
X190125500Y-92889500D01*
X187701578Y-92889500D01*
X187507172Y-92920291D01*
X187446348Y-92940053D01*
X187446348Y-92940054D01*
X187403103Y-92954105D01*
X187319970Y-92981117D01*
X187144594Y-93070476D01*
X187053741Y-93136485D01*
X186985354Y-93186172D01*
X186985352Y-93186174D01*
X186985351Y-93186174D01*
X184466174Y-95705351D01*
X184466174Y-95705352D01*
X184466172Y-95705354D01*
X184416485Y-95773741D01*
X184350476Y-95864594D01*
X184261117Y-96039969D01*
X184246878Y-96083793D01*
X184228454Y-96140499D01*
X184228453Y-96140501D01*
X184200290Y-96227173D01*
X184169500Y-96421577D01*
X184169500Y-128970664D01*
X184149815Y-129037703D01*
X184133181Y-129058345D01*
X181128345Y-132063181D01*
X181067022Y-132096666D01*
X181040664Y-132099500D01*
X146551578Y-132099500D01*
X146357173Y-132130290D01*
X146169969Y-132191117D01*
X145994594Y-132280476D01*
X145903741Y-132346485D01*
X145835354Y-132396172D01*
X145835352Y-132396174D01*
X145835351Y-132396174D01*
X141518345Y-136713181D01*
X141457022Y-136746666D01*
X141430664Y-136749500D01*
X140804499Y-136749500D01*
X140737460Y-136729815D01*
X140691705Y-136677011D01*
X140680499Y-136625500D01*
X140680499Y-136202129D01*
X140680498Y-136202123D01*
X140680497Y-136202116D01*
X140674091Y-136142517D01*
X140667468Y-136124761D01*
X140623797Y-136007671D01*
X140623793Y-136007664D01*
X140537547Y-135892455D01*
X140537544Y-135892452D01*
X140422335Y-135806206D01*
X140422328Y-135806202D01*
X140287482Y-135755908D01*
X140287483Y-135755908D01*
X140227883Y-135749501D01*
X140227881Y-135749500D01*
X140227873Y-135749500D01*
X140227864Y-135749500D01*
X136632129Y-135749500D01*
X136632123Y-135749501D01*
X136572516Y-135755908D01*
X136437671Y-135806202D01*
X136437664Y-135806206D01*
X136322455Y-135892452D01*
X136322452Y-135892455D01*
X136236206Y-136007664D01*
X136236202Y-136007671D01*
X136185908Y-136142517D01*
X136179501Y-136202116D01*
X136179501Y-136202123D01*
X136179500Y-136202135D01*
X118193829Y-136202135D01*
X118092993Y-136124761D01*
X117837510Y-135977258D01*
X117837500Y-135977254D01*
X117564961Y-135864364D01*
X117564954Y-135864362D01*
X117564952Y-135864361D01*
X117279993Y-135788007D01*
X117222585Y-135780449D01*
X116987513Y-135749500D01*
X116987506Y-135749500D01*
X116692494Y-135749500D01*
X116692486Y-135749500D01*
X116414085Y-135786153D01*
X116400007Y-135788007D01*
X116332087Y-135806206D01*
X116115048Y-135864361D01*
X116115038Y-135864364D01*
X115842499Y-135977254D01*
X115842489Y-135977258D01*
X115587006Y-136124761D01*
X115352959Y-136304352D01*
X115352952Y-136304358D01*
X115144358Y-136512952D01*
X115144352Y-136512959D01*
X114964761Y-136747006D01*
X114817258Y-137002489D01*
X114817254Y-137002499D01*
X114704364Y-137275038D01*
X114704361Y-137275048D01*
X114628008Y-137560004D01*
X114628006Y-137560015D01*
X114589500Y-137852486D01*
X109200500Y-137852486D01*
X109200500Y-91341577D01*
X109169709Y-91147173D01*
X109141547Y-91060501D01*
X109141547Y-91060500D01*
X109108884Y-90959974D01*
X109108882Y-90959971D01*
X109108882Y-90959969D01*
X109038556Y-90821948D01*
X109019524Y-90784595D01*
X108903829Y-90625355D01*
X107352846Y-89074372D01*
X107193605Y-88958676D01*
X107018230Y-88869317D01*
X106831026Y-88808490D01*
X106636622Y-88777700D01*
X106636617Y-88777700D01*
X103155928Y-88777700D01*
X103088889Y-88758015D01*
X103083043Y-88754018D01*
X103070436Y-88744859D01*
X103070435Y-88744858D01*
X103070433Y-88744857D01*
X103004715Y-88711372D01*
X102859996Y-88637633D01*
X102635368Y-88564646D01*
X102402097Y-88527700D01*
X102402092Y-88527700D01*
X102165908Y-88527700D01*
X102165903Y-88527700D01*
X101932631Y-88564646D01*
X101708003Y-88637633D01*
X101497566Y-88744857D01*
X101388550Y-88824062D01*
X101306490Y-88883683D01*
X101306488Y-88883685D01*
X101306487Y-88883685D01*
X101139482Y-89050690D01*
X101122345Y-89074278D01*
X101067014Y-89116943D01*
X100997401Y-89122921D01*
X100935606Y-89090314D01*
X100921711Y-89074278D01*
X100888517Y-89028590D01*
X100721510Y-88861583D01*
X100530433Y-88722757D01*
X100319996Y-88615533D01*
X100095368Y-88542546D01*
X99862097Y-88505600D01*
X99862092Y-88505600D01*
X99625908Y-88505600D01*
X99625903Y-88505600D01*
X99392631Y-88542546D01*
X99168003Y-88615533D01*
X98957566Y-88722757D01*
X98848550Y-88801962D01*
X98766490Y-88861583D01*
X98766488Y-88861585D01*
X98766487Y-88861585D01*
X98599485Y-89028587D01*
X98599478Y-89028596D01*
X98574008Y-89063652D01*
X98518678Y-89106318D01*
X98449064Y-89112296D01*
X98387270Y-89079689D01*
X98373372Y-89063651D01*
X98348135Y-89028915D01*
X98181186Y-88861966D01*
X97990171Y-88723185D01*
X97779802Y-88615997D01*
X97555247Y-88543034D01*
X97454000Y-88526997D01*
X97454000Y-89573088D01*
X97396993Y-89540175D01*
X97269826Y-89506100D01*
X97138174Y-89506100D01*
X97011007Y-89540175D01*
X96954000Y-89573088D01*
X96954000Y-88526997D01*
X96852752Y-88543034D01*
X96628197Y-88615997D01*
X96417828Y-88723185D01*
X96226813Y-88861966D01*
X96059863Y-89028916D01*
X96021788Y-89081322D01*
X95966457Y-89123987D01*
X95896844Y-89129965D01*
X95835049Y-89097358D01*
X95821153Y-89081320D01*
X95799138Y-89051019D01*
X95799133Y-89051013D01*
X95632186Y-88884066D01*
X95441171Y-88745285D01*
X95230802Y-88638097D01*
X95006247Y-88565134D01*
X94905000Y-88549097D01*
X94905000Y-89595188D01*
X94847993Y-89562275D01*
X94720826Y-89528200D01*
X94589174Y-89528200D01*
X94462007Y-89562275D01*
X94405000Y-89595188D01*
X94405000Y-88549097D01*
X94303752Y-88565134D01*
X94079197Y-88638097D01*
X93868828Y-88745285D01*
X93677813Y-88884066D01*
X93510866Y-89051013D01*
X93372085Y-89242028D01*
X93264897Y-89452397D01*
X93191934Y-89676952D01*
X93175898Y-89778200D01*
X90150500Y-89778200D01*
X90150500Y-84293648D01*
X95219500Y-84293648D01*
X95219500Y-84498351D01*
X95251522Y-84700534D01*
X95314781Y-84895223D01*
X95352593Y-84969432D01*
X95407228Y-85076659D01*
X95407715Y-85077613D01*
X95528028Y-85243213D01*
X95672786Y-85387971D01*
X95827749Y-85500556D01*
X95838390Y-85508287D01*
X95954607Y-85567503D01*
X96020776Y-85601218D01*
X96020778Y-85601218D01*
X96020781Y-85601220D01*
X96125137Y-85635127D01*
X96215465Y-85664477D01*
X96316557Y-85680488D01*
X96417648Y-85696500D01*
X96417649Y-85696500D01*
X96622351Y-85696500D01*
X96622352Y-85696500D01*
X96824534Y-85664477D01*
X97019219Y-85601220D01*
X97201610Y-85508287D01*
X97294590Y-85440732D01*
X97367213Y-85387971D01*
X97367215Y-85387968D01*
X97367219Y-85387966D01*
X97511966Y-85243219D01*
X97511968Y-85243215D01*
X97511971Y-85243213D01*
X97564732Y-85170590D01*
X97632287Y-85077610D01*
X97725220Y-84895219D01*
X97788477Y-84700534D01*
X97820500Y-84498352D01*
X97820500Y-84293648D01*
X99029500Y-84293648D01*
X99029500Y-84498351D01*
X99061522Y-84700534D01*
X99124781Y-84895223D01*
X99162593Y-84969432D01*
X99217228Y-85076659D01*
X99217715Y-85077613D01*
X99338028Y-85243213D01*
X99482786Y-85387971D01*
X99637749Y-85500556D01*
X99648390Y-85508287D01*
X99764607Y-85567503D01*
X99830776Y-85601218D01*
X99830778Y-85601218D01*
X99830781Y-85601220D01*
X99935137Y-85635127D01*
X100025465Y-85664477D01*
X100126557Y-85680488D01*
X100227648Y-85696500D01*
X100227649Y-85696500D01*
X100432351Y-85696500D01*
X100432352Y-85696500D01*
X100634534Y-85664477D01*
X100829219Y-85601220D01*
X101011610Y-85508287D01*
X101104590Y-85440732D01*
X101177213Y-85387971D01*
X101177215Y-85387968D01*
X101177219Y-85387966D01*
X101321966Y-85243219D01*
X101321968Y-85243215D01*
X101321971Y-85243213D01*
X101374732Y-85170590D01*
X101442287Y-85077610D01*
X101535220Y-84895219D01*
X101598477Y-84700534D01*
X101630500Y-84498352D01*
X101630500Y-84293648D01*
X101598477Y-84091466D01*
X101535220Y-83896781D01*
X101535218Y-83896778D01*
X101535218Y-83896776D01*
X101501503Y-83830607D01*
X101442287Y-83714390D01*
X101434556Y-83703749D01*
X101321971Y-83548786D01*
X101177213Y-83404028D01*
X101011613Y-83283715D01*
X101011612Y-83283714D01*
X101011610Y-83283713D01*
X100946748Y-83250664D01*
X100829223Y-83190781D01*
X100634534Y-83127522D01*
X100459995Y-83099878D01*
X100432352Y-83095500D01*
X100227648Y-83095500D01*
X100203329Y-83099351D01*
X100025465Y-83127522D01*
X99830776Y-83190781D01*
X99648386Y-83283715D01*
X99482786Y-83404028D01*
X99338028Y-83548786D01*
X99217715Y-83714386D01*
X99124781Y-83896776D01*
X99061522Y-84091465D01*
X99029500Y-84293648D01*
X97820500Y-84293648D01*
X97788477Y-84091466D01*
X97725220Y-83896781D01*
X97725218Y-83896778D01*
X97725218Y-83896776D01*
X97691503Y-83830607D01*
X97632287Y-83714390D01*
X97624556Y-83703749D01*
X97511971Y-83548786D01*
X97367213Y-83404028D01*
X97201613Y-83283715D01*
X97201612Y-83283714D01*
X97201610Y-83283713D01*
X97136748Y-83250664D01*
X97019223Y-83190781D01*
X96824534Y-83127522D01*
X96649995Y-83099878D01*
X96622352Y-83095500D01*
X96417648Y-83095500D01*
X96393329Y-83099351D01*
X96215465Y-83127522D01*
X96020776Y-83190781D01*
X95838386Y-83283715D01*
X95672786Y-83404028D01*
X95528028Y-83548786D01*
X95407715Y-83714386D01*
X95314781Y-83896776D01*
X95251522Y-84091465D01*
X95219500Y-84293648D01*
X90150500Y-84293648D01*
X90150500Y-74133648D01*
X95219500Y-74133648D01*
X95219500Y-74338351D01*
X95251522Y-74540534D01*
X95314781Y-74735223D01*
X95407715Y-74917613D01*
X95528028Y-75083213D01*
X95672786Y-75227971D01*
X95804148Y-75323409D01*
X95838390Y-75348287D01*
X95954607Y-75407503D01*
X96020776Y-75441218D01*
X96020778Y-75441218D01*
X96020781Y-75441220D01*
X96125137Y-75475127D01*
X96215465Y-75504477D01*
X96316557Y-75520488D01*
X96417648Y-75536500D01*
X96417649Y-75536500D01*
X96622351Y-75536500D01*
X96622352Y-75536500D01*
X96824534Y-75504477D01*
X97019219Y-75441220D01*
X97201610Y-75348287D01*
X97294590Y-75280732D01*
X97367213Y-75227971D01*
X97367215Y-75227968D01*
X97367219Y-75227966D01*
X97511966Y-75083219D01*
X97511968Y-75083215D01*
X97511971Y-75083213D01*
X97582896Y-74985591D01*
X97632287Y-74917610D01*
X97725220Y-74735219D01*
X97788477Y-74540534D01*
X97820500Y-74338352D01*
X97820500Y-74133648D01*
X99029500Y-74133648D01*
X99029500Y-74338351D01*
X99061522Y-74540534D01*
X99124781Y-74735223D01*
X99217715Y-74917613D01*
X99338028Y-75083213D01*
X99482786Y-75227971D01*
X99614148Y-75323409D01*
X99648390Y-75348287D01*
X99764607Y-75407503D01*
X99830776Y-75441218D01*
X99830778Y-75441218D01*
X99830781Y-75441220D01*
X99935137Y-75475127D01*
X100025465Y-75504477D01*
X100126557Y-75520488D01*
X100227648Y-75536500D01*
X100227649Y-75536500D01*
X100432351Y-75536500D01*
X100432352Y-75536500D01*
X100634534Y-75504477D01*
X100829219Y-75441220D01*
X101011610Y-75348287D01*
X101104590Y-75280732D01*
X101177213Y-75227971D01*
X101177215Y-75227968D01*
X101177219Y-75227966D01*
X101321966Y-75083219D01*
X101321968Y-75083215D01*
X101321971Y-75083213D01*
X101392896Y-74985591D01*
X101442287Y-74917610D01*
X101535220Y-74735219D01*
X101598477Y-74540534D01*
X101630500Y-74338352D01*
X101630500Y-74133648D01*
X101598477Y-73931466D01*
X101535220Y-73736781D01*
X101535218Y-73736778D01*
X101535218Y-73736776D01*
X101501503Y-73670607D01*
X101442287Y-73554390D01*
X101434556Y-73543749D01*
X101321971Y-73388786D01*
X101177213Y-73244028D01*
X101011613Y-73123715D01*
X101011612Y-73123714D01*
X101011610Y-73123713D01*
X100954653Y-73094691D01*
X100829223Y-73030781D01*
X100634534Y-72967522D01*
X100459995Y-72939878D01*
X100432352Y-72935500D01*
X100227648Y-72935500D01*
X100203329Y-72939351D01*
X100025465Y-72967522D01*
X99830776Y-73030781D01*
X99648386Y-73123715D01*
X99482786Y-73244028D01*
X99338028Y-73388786D01*
X99217715Y-73554386D01*
X99124781Y-73736776D01*
X99061522Y-73931465D01*
X99029500Y-74133648D01*
X97820500Y-74133648D01*
X97788477Y-73931466D01*
X97725220Y-73736781D01*
X97725218Y-73736778D01*
X97725218Y-73736776D01*
X97691503Y-73670607D01*
X97632287Y-73554390D01*
X97624556Y-73543749D01*
X97511971Y-73388786D01*
X97367213Y-73244028D01*
X97201613Y-73123715D01*
X97201612Y-73123714D01*
X97201610Y-73123713D01*
X97144653Y-73094691D01*
X97019223Y-73030781D01*
X96824534Y-72967522D01*
X96649995Y-72939878D01*
X96622352Y-72935500D01*
X96417648Y-72935500D01*
X96393329Y-72939351D01*
X96215465Y-72967522D01*
X96020776Y-73030781D01*
X95838386Y-73123715D01*
X95672786Y-73244028D01*
X95528028Y-73388786D01*
X95407715Y-73554386D01*
X95314781Y-73736776D01*
X95251522Y-73931465D01*
X95219500Y-74133648D01*
X90150500Y-74133648D01*
X90150500Y-58361902D01*
X95169500Y-58361902D01*
X95169500Y-58598097D01*
X95206446Y-58831368D01*
X95279433Y-59055996D01*
X95367709Y-59229245D01*
X95386657Y-59266433D01*
X95525483Y-59457510D01*
X95692490Y-59624517D01*
X95727127Y-59649683D01*
X95769792Y-59705013D01*
X95775771Y-59774626D01*
X95743165Y-59836421D01*
X95727130Y-59850315D01*
X95709365Y-59863222D01*
X95692488Y-59875484D01*
X95525485Y-60042487D01*
X95525485Y-60042488D01*
X95525483Y-60042490D01*
X95465862Y-60124550D01*
X95386657Y-60233566D01*
X95279433Y-60444003D01*
X95206446Y-60668631D01*
X95169500Y-60901902D01*
X95169500Y-61138097D01*
X95206446Y-61371368D01*
X95279433Y-61595996D01*
X95386657Y-61806433D01*
X95525483Y-61997510D01*
X95692490Y-62164517D01*
X95727127Y-62189683D01*
X95769792Y-62245013D01*
X95775771Y-62314626D01*
X95743165Y-62376421D01*
X95727130Y-62390315D01*
X95709365Y-62403222D01*
X95692488Y-62415484D01*
X95525485Y-62582487D01*
X95525485Y-62582488D01*
X95525483Y-62582490D01*
X95465862Y-62664550D01*
X95386657Y-62773566D01*
X95279433Y-62984003D01*
X95206446Y-63208631D01*
X95169500Y-63441902D01*
X95169500Y-63678097D01*
X95206446Y-63911368D01*
X95279433Y-64135996D01*
X95365219Y-64304358D01*
X95386657Y-64346433D01*
X95525483Y-64537510D01*
X95692490Y-64704517D01*
X95727127Y-64729683D01*
X95769792Y-64785013D01*
X95775771Y-64854626D01*
X95743165Y-64916421D01*
X95727130Y-64930315D01*
X95709365Y-64943222D01*
X95692488Y-64955484D01*
X95525485Y-65122487D01*
X95525485Y-65122488D01*
X95525483Y-65122490D01*
X95494598Y-65165000D01*
X95386657Y-65313566D01*
X95279433Y-65524003D01*
X95206446Y-65748631D01*
X95169500Y-65981902D01*
X95169500Y-66218097D01*
X95206446Y-66451368D01*
X95279433Y-66675996D01*
X95386657Y-66886433D01*
X95525483Y-67077510D01*
X95692490Y-67244517D01*
X95727127Y-67269683D01*
X95769792Y-67325013D01*
X95775771Y-67394626D01*
X95743165Y-67456421D01*
X95727130Y-67470315D01*
X95709365Y-67483222D01*
X95692488Y-67495484D01*
X95525485Y-67662487D01*
X95525485Y-67662488D01*
X95525483Y-67662490D01*
X95501394Y-67695646D01*
X95386657Y-67853566D01*
X95279433Y-68064003D01*
X95206446Y-68288631D01*
X95169500Y-68521902D01*
X95169500Y-68758097D01*
X95206446Y-68991368D01*
X95279433Y-69215996D01*
X95357890Y-69369975D01*
X95386657Y-69426433D01*
X95525483Y-69617510D01*
X95692490Y-69784517D01*
X95883567Y-69923343D01*
X95982991Y-69974002D01*
X96094003Y-70030566D01*
X96094005Y-70030566D01*
X96094008Y-70030568D01*
X96214299Y-70069653D01*
X96318631Y-70103553D01*
X96551903Y-70140500D01*
X96551908Y-70140500D01*
X97328097Y-70140500D01*
X97561368Y-70103553D01*
X97785992Y-70030568D01*
X97996433Y-69923343D01*
X98187510Y-69784517D01*
X98354517Y-69617510D01*
X98493343Y-69426433D01*
X98600568Y-69215992D01*
X98673553Y-68991368D01*
X98710500Y-68758097D01*
X98710500Y-68521902D01*
X98673553Y-68288631D01*
X98623841Y-68135635D01*
X98600568Y-68064008D01*
X98600566Y-68064005D01*
X98600566Y-68064003D01*
X98495338Y-67857483D01*
X98493343Y-67853567D01*
X98354517Y-67662490D01*
X98187510Y-67495483D01*
X98152872Y-67470317D01*
X98110207Y-67414989D01*
X98104228Y-67345375D01*
X98136833Y-67283580D01*
X98152873Y-67269682D01*
X98187510Y-67244517D01*
X98354517Y-67077510D01*
X98493343Y-66886433D01*
X98600568Y-66675992D01*
X98673553Y-66451368D01*
X98675356Y-66439984D01*
X98710500Y-66218097D01*
X98710500Y-65981902D01*
X98673553Y-65748631D01*
X98600566Y-65524003D01*
X98493342Y-65313566D01*
X98354517Y-65122490D01*
X98187510Y-64955483D01*
X98152872Y-64930317D01*
X98110207Y-64874989D01*
X98104228Y-64805375D01*
X98136833Y-64743580D01*
X98152873Y-64729682D01*
X98187510Y-64704517D01*
X98354517Y-64537510D01*
X98493343Y-64346433D01*
X98558485Y-64218582D01*
X98566866Y-64202135D01*
X114589500Y-64202135D01*
X114589500Y-67797870D01*
X114589501Y-67797876D01*
X114595908Y-67857483D01*
X114646202Y-67992328D01*
X114646206Y-67992335D01*
X114732452Y-68107544D01*
X114732455Y-68107547D01*
X114847664Y-68193793D01*
X114847671Y-68193797D01*
X114892618Y-68210561D01*
X114982517Y-68244091D01*
X115042127Y-68250500D01*
X115465500Y-68250499D01*
X115532539Y-68270183D01*
X115578294Y-68322987D01*
X115589500Y-68374499D01*
X115589500Y-91538422D01*
X115620290Y-91732826D01*
X115681117Y-91920030D01*
X115770476Y-92095405D01*
X115886172Y-92254646D01*
X118725355Y-95093829D01*
X118884595Y-95209524D01*
X118967454Y-95251742D01*
X119059969Y-95298882D01*
X119059971Y-95298882D01*
X119059974Y-95298884D01*
X119160318Y-95331487D01*
X119247173Y-95359709D01*
X119441578Y-95390500D01*
X119441583Y-95390500D01*
X119441584Y-95390500D01*
X119638417Y-95390500D01*
X172345501Y-95390500D01*
X172412540Y-95410185D01*
X172458295Y-95462989D01*
X172469501Y-95514500D01*
X172469501Y-95687876D01*
X172475908Y-95747483D01*
X172526202Y-95882328D01*
X172526206Y-95882335D01*
X172612452Y-95997544D01*
X172612455Y-95997547D01*
X172727664Y-96083793D01*
X172727671Y-96083797D01*
X172862517Y-96134091D01*
X172862516Y-96134091D01*
X172869444Y-96134835D01*
X172922127Y-96140500D01*
X175517872Y-96140499D01*
X175577483Y-96134091D01*
X175712331Y-96083796D01*
X175827546Y-95997546D01*
X175913796Y-95882331D01*
X175964091Y-95747483D01*
X175970500Y-95687873D01*
X175970499Y-92592128D01*
X175964091Y-92532517D01*
X175913796Y-92397669D01*
X175913795Y-92397668D01*
X175913793Y-92397664D01*
X175827547Y-92282455D01*
X175827544Y-92282452D01*
X175712335Y-92196206D01*
X175712328Y-92196202D01*
X175577482Y-92145908D01*
X175577483Y-92145908D01*
X175517883Y-92139501D01*
X175517881Y-92139500D01*
X175517873Y-92139500D01*
X175517864Y-92139500D01*
X172922129Y-92139500D01*
X172922123Y-92139501D01*
X172862516Y-92145908D01*
X172727671Y-92196202D01*
X172727664Y-92196206D01*
X172612455Y-92282452D01*
X172612452Y-92282455D01*
X172526206Y-92397664D01*
X172526202Y-92397671D01*
X172475908Y-92532517D01*
X172469501Y-92592116D01*
X172469501Y-92592123D01*
X172469500Y-92592135D01*
X172469500Y-92765500D01*
X172449815Y-92832539D01*
X172397011Y-92878294D01*
X172345500Y-92889500D01*
X120109336Y-92889500D01*
X120042297Y-92869815D01*
X120021655Y-92853181D01*
X118126819Y-90958345D01*
X118093334Y-90897022D01*
X118090500Y-90870664D01*
X118090500Y-87512135D01*
X178819500Y-87512135D01*
X178819500Y-90607870D01*
X178819501Y-90607876D01*
X178825908Y-90667483D01*
X178876202Y-90802328D01*
X178876206Y-90802335D01*
X178962452Y-90917544D01*
X178962455Y-90917547D01*
X179077664Y-91003793D01*
X179077671Y-91003797D01*
X179212517Y-91054091D01*
X179212516Y-91054091D01*
X179219444Y-91054835D01*
X179272127Y-91060500D01*
X181867872Y-91060499D01*
X181927483Y-91054091D01*
X182062331Y-91003796D01*
X182177546Y-90917546D01*
X182263796Y-90802331D01*
X182314091Y-90667483D01*
X182320500Y-90607873D01*
X182320499Y-87512135D01*
X183899500Y-87512135D01*
X183899500Y-90607870D01*
X183899501Y-90607876D01*
X183905908Y-90667483D01*
X183956202Y-90802328D01*
X183956206Y-90802335D01*
X184042452Y-90917544D01*
X184042455Y-90917547D01*
X184157664Y-91003793D01*
X184157671Y-91003797D01*
X184292517Y-91054091D01*
X184292516Y-91054091D01*
X184299444Y-91054835D01*
X184352127Y-91060500D01*
X186947872Y-91060499D01*
X187007483Y-91054091D01*
X187142331Y-91003796D01*
X187257546Y-90917546D01*
X187343796Y-90802331D01*
X187394091Y-90667483D01*
X187400500Y-90607873D01*
X187400499Y-87512128D01*
X187394091Y-87452517D01*
X187385515Y-87429524D01*
X187343797Y-87317671D01*
X187343793Y-87317664D01*
X187257547Y-87202455D01*
X187257544Y-87202452D01*
X187142335Y-87116206D01*
X187142328Y-87116202D01*
X187007482Y-87065908D01*
X187007483Y-87065908D01*
X186947883Y-87059501D01*
X186947881Y-87059500D01*
X186947873Y-87059500D01*
X186947864Y-87059500D01*
X184352129Y-87059500D01*
X184352123Y-87059501D01*
X184292516Y-87065908D01*
X184157671Y-87116202D01*
X184157664Y-87116206D01*
X184042455Y-87202452D01*
X184042452Y-87202455D01*
X183956206Y-87317664D01*
X183956202Y-87317671D01*
X183905908Y-87452517D01*
X183900318Y-87504517D01*
X183899501Y-87512123D01*
X183899500Y-87512135D01*
X182320499Y-87512135D01*
X182320499Y-87512128D01*
X182314091Y-87452517D01*
X182305515Y-87429524D01*
X182263797Y-87317671D01*
X182263793Y-87317664D01*
X182177547Y-87202455D01*
X182177544Y-87202452D01*
X182062335Y-87116206D01*
X182062328Y-87116202D01*
X181927482Y-87065908D01*
X181927483Y-87065908D01*
X181867883Y-87059501D01*
X181867881Y-87059500D01*
X181867873Y-87059500D01*
X181867864Y-87059500D01*
X179272129Y-87059500D01*
X179272123Y-87059501D01*
X179212516Y-87065908D01*
X179077671Y-87116202D01*
X179077664Y-87116206D01*
X178962455Y-87202452D01*
X178962452Y-87202455D01*
X178876206Y-87317664D01*
X178876202Y-87317671D01*
X178825908Y-87452517D01*
X178820318Y-87504517D01*
X178819501Y-87512123D01*
X178819500Y-87512135D01*
X118090500Y-87512135D01*
X118090500Y-68374499D01*
X118110185Y-68307460D01*
X118162989Y-68261705D01*
X118214500Y-68250499D01*
X118637871Y-68250499D01*
X118637872Y-68250499D01*
X118697483Y-68244091D01*
X118832331Y-68193796D01*
X118947546Y-68107546D01*
X119033796Y-67992331D01*
X119084091Y-67857483D01*
X119090500Y-67797873D01*
X119090499Y-65852486D01*
X136179500Y-65852486D01*
X136179500Y-66147513D01*
X136211571Y-66391113D01*
X136218007Y-66439993D01*
X136288403Y-66702716D01*
X136294361Y-66724951D01*
X136294364Y-66724961D01*
X136407254Y-66997500D01*
X136407258Y-66997510D01*
X136554761Y-67252993D01*
X136734352Y-67487040D01*
X136734358Y-67487047D01*
X136942952Y-67695641D01*
X136942959Y-67695647D01*
X137177006Y-67875238D01*
X137432489Y-68022741D01*
X137432490Y-68022741D01*
X137432493Y-68022743D01*
X137705048Y-68135639D01*
X137990007Y-68211993D01*
X138268415Y-68248646D01*
X138282478Y-68250498D01*
X138282494Y-68250500D01*
X138282501Y-68250500D01*
X138577499Y-68250500D01*
X138577506Y-68250500D01*
X138869993Y-68211993D01*
X139154952Y-68135639D01*
X139427507Y-68022743D01*
X139682994Y-67875238D01*
X139917042Y-67695646D01*
X140125646Y-67487042D01*
X140305238Y-67252994D01*
X140452743Y-66997507D01*
X140565639Y-66724952D01*
X140641993Y-66439993D01*
X140680500Y-66147506D01*
X140680500Y-65852494D01*
X140641993Y-65560007D01*
X140565639Y-65275048D01*
X140452743Y-65002493D01*
X140425602Y-64955484D01*
X140305238Y-64747006D01*
X140125647Y-64512959D01*
X140125641Y-64512952D01*
X139917047Y-64304358D01*
X139917040Y-64304352D01*
X139907696Y-64297182D01*
X139783829Y-64202135D01*
X157749500Y-64202135D01*
X157749500Y-67797870D01*
X157749501Y-67797876D01*
X157755908Y-67857483D01*
X157806202Y-67992328D01*
X157806206Y-67992335D01*
X157892452Y-68107544D01*
X157892455Y-68107547D01*
X158007664Y-68193793D01*
X158007671Y-68193797D01*
X158142517Y-68244091D01*
X158142516Y-68244091D01*
X158149444Y-68244835D01*
X158202127Y-68250500D01*
X161797872Y-68250499D01*
X161857483Y-68244091D01*
X161992331Y-68193796D01*
X162107546Y-68107546D01*
X162193796Y-67992331D01*
X162244091Y-67857483D01*
X162250500Y-67797873D01*
X162250499Y-65617635D01*
X176938000Y-65617635D01*
X176938000Y-69713370D01*
X176938001Y-69713376D01*
X176944408Y-69772983D01*
X176994702Y-69907828D01*
X176994703Y-69907830D01*
X177066838Y-70004189D01*
X177091255Y-70069653D01*
X177076404Y-70137926D01*
X177066838Y-70152811D01*
X176994703Y-70249169D01*
X176994702Y-70249171D01*
X176944408Y-70384017D01*
X176938001Y-70443616D01*
X176938001Y-70443623D01*
X176938000Y-70443635D01*
X176938000Y-74539370D01*
X176938001Y-74539376D01*
X176944408Y-74598983D01*
X176994702Y-74733828D01*
X176994706Y-74733835D01*
X177080952Y-74849044D01*
X177080955Y-74849047D01*
X177196164Y-74935293D01*
X177196171Y-74935297D01*
X177331017Y-74985591D01*
X177331016Y-74985591D01*
X177337944Y-74986335D01*
X177390627Y-74992000D01*
X180486372Y-74991999D01*
X180545983Y-74985591D01*
X180680831Y-74935296D01*
X180796046Y-74849046D01*
X180882296Y-74733831D01*
X180932591Y-74598983D01*
X180939000Y-74539373D01*
X180938999Y-70443628D01*
X180932591Y-70384017D01*
X180926607Y-70367974D01*
X180882297Y-70249171D01*
X180882295Y-70249168D01*
X180810160Y-70152809D01*
X180785744Y-70087348D01*
X180800595Y-70019075D01*
X180810155Y-70004198D01*
X180882296Y-69907831D01*
X180932591Y-69772983D01*
X180939000Y-69713373D01*
X180939000Y-69236100D01*
X180958685Y-69169061D01*
X181011489Y-69123306D01*
X181063000Y-69112100D01*
X194292264Y-69112100D01*
X194359303Y-69131785D01*
X194379945Y-69148419D01*
X195563181Y-70331655D01*
X195596666Y-70392978D01*
X195599500Y-70419336D01*
X195599500Y-83918422D01*
X195630290Y-84112826D01*
X195691117Y-84300030D01*
X195780476Y-84475405D01*
X195896172Y-84634646D01*
X198436171Y-87174645D01*
X198436172Y-87174646D01*
X198575354Y-87313828D01*
X198734595Y-87429524D01*
X198896729Y-87512135D01*
X198909979Y-87518886D01*
X198994223Y-87546258D01*
X199036346Y-87559944D01*
X199036347Y-87559945D01*
X199036348Y-87559945D01*
X199097173Y-87579709D01*
X199170076Y-87591255D01*
X199291578Y-87610500D01*
X199291583Y-87610500D01*
X199488416Y-87610500D01*
X209128072Y-87610500D01*
X209195111Y-87630185D01*
X209200957Y-87634182D01*
X209212247Y-87642384D01*
X209213567Y-87643343D01*
X209347659Y-87711666D01*
X209424003Y-87750566D01*
X209424005Y-87750566D01*
X209424008Y-87750568D01*
X209544412Y-87789689D01*
X209648631Y-87823553D01*
X209881903Y-87860500D01*
X209881908Y-87860500D01*
X210118097Y-87860500D01*
X210351368Y-87823553D01*
X210575992Y-87750568D01*
X210786433Y-87643343D01*
X210977510Y-87504517D01*
X211144517Y-87337510D01*
X211283343Y-87146433D01*
X211390568Y-86935992D01*
X211463553Y-86711368D01*
X211500500Y-86478097D01*
X211500500Y-86241902D01*
X211463553Y-86008631D01*
X211390566Y-85784003D01*
X211283342Y-85573566D01*
X211144517Y-85382490D01*
X210977510Y-85215483D01*
X210786433Y-85076657D01*
X210779611Y-85073181D01*
X210575996Y-84969433D01*
X210351368Y-84896446D01*
X210118097Y-84859500D01*
X210118092Y-84859500D01*
X209881908Y-84859500D01*
X209881903Y-84859500D01*
X209648631Y-84896446D01*
X209424003Y-84969433D01*
X209213563Y-85076659D01*
X209200957Y-85085818D01*
X209135151Y-85109298D01*
X209128072Y-85109500D01*
X199959336Y-85109500D01*
X199892297Y-85089815D01*
X199871655Y-85073181D01*
X198136819Y-83338345D01*
X198103334Y-83277022D01*
X198100500Y-83250664D01*
X198100500Y-75769635D01*
X211168000Y-75769635D01*
X211168000Y-78865370D01*
X211168001Y-78865376D01*
X211174408Y-78924983D01*
X211224702Y-79059828D01*
X211224706Y-79059835D01*
X211310952Y-79175044D01*
X211310955Y-79175047D01*
X211426164Y-79261293D01*
X211426171Y-79261297D01*
X211561017Y-79311591D01*
X211561016Y-79311591D01*
X211567944Y-79312335D01*
X211620627Y-79318000D01*
X213716372Y-79317999D01*
X213775983Y-79311591D01*
X213910831Y-79261296D01*
X214026046Y-79175046D01*
X214112296Y-79059831D01*
X214162591Y-78924983D01*
X214169000Y-78865373D01*
X214168999Y-75769628D01*
X214162591Y-75710017D01*
X214112296Y-75575169D01*
X214112295Y-75575168D01*
X214112293Y-75575164D01*
X214026047Y-75459955D01*
X214026044Y-75459952D01*
X213910835Y-75373706D01*
X213910828Y-75373702D01*
X213775982Y-75323408D01*
X213775983Y-75323408D01*
X213716383Y-75317001D01*
X213716381Y-75317000D01*
X213716373Y-75317000D01*
X213716364Y-75317000D01*
X211620629Y-75317000D01*
X211620623Y-75317001D01*
X211561016Y-75323408D01*
X211426171Y-75373702D01*
X211426164Y-75373706D01*
X211310955Y-75459952D01*
X211310952Y-75459955D01*
X211224706Y-75575164D01*
X211224702Y-75575171D01*
X211174408Y-75710017D01*
X211168001Y-75769616D01*
X211168001Y-75769623D01*
X211168000Y-75769635D01*
X198100500Y-75769635D01*
X198100500Y-69751578D01*
X198085232Y-69655181D01*
X198085231Y-69655180D01*
X198084336Y-69649524D01*
X198069709Y-69557173D01*
X198027228Y-69426433D01*
X198008884Y-69369975D01*
X197919524Y-69194595D01*
X197803828Y-69035354D01*
X197664646Y-68896172D01*
X195676246Y-66907772D01*
X195517005Y-66792076D01*
X195341630Y-66702717D01*
X195154426Y-66641890D01*
X194960022Y-66611100D01*
X194960017Y-66611100D01*
X181062999Y-66611100D01*
X180995960Y-66591415D01*
X180950205Y-66538611D01*
X180938999Y-66487100D01*
X180938999Y-65617629D01*
X180938998Y-65617623D01*
X180938997Y-65617616D01*
X180932591Y-65558017D01*
X180919906Y-65524008D01*
X180882297Y-65423171D01*
X180882293Y-65423164D01*
X180796047Y-65307955D01*
X180796044Y-65307952D01*
X180680835Y-65221706D01*
X180680828Y-65221702D01*
X180545982Y-65171408D01*
X180545983Y-65171408D01*
X180486383Y-65165001D01*
X180486381Y-65165000D01*
X180486373Y-65165000D01*
X180486364Y-65165000D01*
X177390629Y-65165000D01*
X177390623Y-65165001D01*
X177331016Y-65171408D01*
X177196171Y-65221702D01*
X177196164Y-65221706D01*
X177080955Y-65307952D01*
X177080952Y-65307955D01*
X176994706Y-65423164D01*
X176994702Y-65423171D01*
X176944408Y-65558017D01*
X176938001Y-65617616D01*
X176938001Y-65617623D01*
X176938000Y-65617635D01*
X162250499Y-65617635D01*
X162250499Y-64202128D01*
X162244091Y-64142517D01*
X162244088Y-64142510D01*
X162193797Y-64007671D01*
X162193793Y-64007664D01*
X162107547Y-63892455D01*
X162107544Y-63892452D01*
X161992335Y-63806206D01*
X161992328Y-63806202D01*
X161857482Y-63755908D01*
X161857483Y-63755908D01*
X161797883Y-63749501D01*
X161797881Y-63749500D01*
X161797873Y-63749500D01*
X161797864Y-63749500D01*
X158202129Y-63749500D01*
X158202123Y-63749501D01*
X158142516Y-63755908D01*
X158007671Y-63806202D01*
X158007664Y-63806206D01*
X157892455Y-63892452D01*
X157892452Y-63892455D01*
X157806206Y-64007664D01*
X157806202Y-64007671D01*
X157755908Y-64142517D01*
X157749501Y-64202116D01*
X157749501Y-64202123D01*
X157749500Y-64202135D01*
X139783829Y-64202135D01*
X139682993Y-64124761D01*
X139427510Y-63977258D01*
X139427500Y-63977254D01*
X139154961Y-63864364D01*
X139154954Y-63864362D01*
X139154952Y-63864361D01*
X138869993Y-63788007D01*
X138821113Y-63781571D01*
X138577513Y-63749500D01*
X138577506Y-63749500D01*
X138282494Y-63749500D01*
X138282486Y-63749500D01*
X138004085Y-63786153D01*
X137990007Y-63788007D01*
X137922087Y-63806206D01*
X137705048Y-63864361D01*
X137705038Y-63864364D01*
X137432499Y-63977254D01*
X137432489Y-63977258D01*
X137177006Y-64124761D01*
X136942959Y-64304352D01*
X136942952Y-64304358D01*
X136734358Y-64512952D01*
X136734352Y-64512959D01*
X136554761Y-64747006D01*
X136407258Y-65002489D01*
X136407254Y-65002499D01*
X136294364Y-65275038D01*
X136294361Y-65275048D01*
X136218541Y-65558016D01*
X136218008Y-65560004D01*
X136218006Y-65560015D01*
X136179500Y-65852486D01*
X119090499Y-65852486D01*
X119090499Y-64202128D01*
X119084091Y-64142517D01*
X119084088Y-64142510D01*
X119033797Y-64007671D01*
X119033793Y-64007664D01*
X118947547Y-63892455D01*
X118947544Y-63892452D01*
X118832335Y-63806206D01*
X118832328Y-63806202D01*
X118697482Y-63755908D01*
X118697483Y-63755908D01*
X118637883Y-63749501D01*
X118637881Y-63749500D01*
X118637873Y-63749500D01*
X118637864Y-63749500D01*
X115042129Y-63749500D01*
X115042123Y-63749501D01*
X114982516Y-63755908D01*
X114847671Y-63806202D01*
X114847664Y-63806206D01*
X114732455Y-63892452D01*
X114732452Y-63892455D01*
X114646206Y-64007664D01*
X114646202Y-64007671D01*
X114595908Y-64142517D01*
X114589501Y-64202116D01*
X114589501Y-64202123D01*
X114589500Y-64202135D01*
X98566866Y-64202135D01*
X98597247Y-64142511D01*
X98597247Y-64142510D01*
X98600565Y-64135997D01*
X98600568Y-64135992D01*
X98673553Y-63911368D01*
X98690209Y-63806206D01*
X98710500Y-63678097D01*
X98710500Y-63441902D01*
X98673553Y-63208631D01*
X98600566Y-62984003D01*
X98493342Y-62773566D01*
X98354517Y-62582490D01*
X98187510Y-62415483D01*
X98152872Y-62390317D01*
X98110207Y-62334989D01*
X98104228Y-62265375D01*
X98136833Y-62203580D01*
X98152873Y-62189682D01*
X98187510Y-62164517D01*
X98354517Y-61997510D01*
X98493343Y-61806433D01*
X98600568Y-61595992D01*
X98673553Y-61371368D01*
X98686181Y-61291635D01*
X211168000Y-61291635D01*
X211168000Y-64387370D01*
X211168001Y-64387376D01*
X211174408Y-64446983D01*
X211224702Y-64581828D01*
X211224706Y-64581835D01*
X211310952Y-64697044D01*
X211310955Y-64697047D01*
X211426164Y-64783293D01*
X211426171Y-64783297D01*
X211561017Y-64833591D01*
X211561016Y-64833591D01*
X211567944Y-64834335D01*
X211620627Y-64840000D01*
X213716372Y-64839999D01*
X213775983Y-64833591D01*
X213910831Y-64783296D01*
X214026046Y-64697046D01*
X214112296Y-64581831D01*
X214162591Y-64446983D01*
X214169000Y-64387373D01*
X214168999Y-61291628D01*
X214162591Y-61232017D01*
X214127559Y-61138092D01*
X214112297Y-61097171D01*
X214112293Y-61097164D01*
X214026047Y-60981955D01*
X214026044Y-60981952D01*
X213910835Y-60895706D01*
X213910828Y-60895702D01*
X213775982Y-60845408D01*
X213775983Y-60845408D01*
X213716383Y-60839001D01*
X213716381Y-60839000D01*
X213716373Y-60839000D01*
X213716364Y-60839000D01*
X211620629Y-60839000D01*
X211620623Y-60839001D01*
X211561016Y-60845408D01*
X211426171Y-60895702D01*
X211426164Y-60895706D01*
X211310955Y-60981952D01*
X211310952Y-60981955D01*
X211224706Y-61097164D01*
X211224702Y-61097171D01*
X211174408Y-61232017D01*
X211168001Y-61291616D01*
X211168001Y-61291623D01*
X211168000Y-61291635D01*
X98686181Y-61291635D01*
X98695624Y-61232016D01*
X98710500Y-61138097D01*
X98710500Y-60901902D01*
X98673553Y-60668631D01*
X98600566Y-60444003D01*
X98493342Y-60233566D01*
X98354517Y-60042490D01*
X98187510Y-59875483D01*
X98152872Y-59850317D01*
X98110207Y-59794989D01*
X98104228Y-59725375D01*
X98136833Y-59663580D01*
X98152873Y-59649682D01*
X98187510Y-59624517D01*
X98354517Y-59457510D01*
X98493343Y-59266433D01*
X98600568Y-59055992D01*
X98673553Y-58831368D01*
X98710500Y-58598097D01*
X98710500Y-58361902D01*
X98673553Y-58128631D01*
X98627441Y-57986714D01*
X98600568Y-57904008D01*
X98600566Y-57904005D01*
X98600566Y-57904003D01*
X98539905Y-57784950D01*
X98493343Y-57693567D01*
X98354517Y-57502490D01*
X98187510Y-57335483D01*
X97996433Y-57196657D01*
X97970888Y-57183641D01*
X97785996Y-57089433D01*
X97561368Y-57016446D01*
X97328097Y-56979500D01*
X97328092Y-56979500D01*
X96551908Y-56979500D01*
X96551903Y-56979500D01*
X96318631Y-57016446D01*
X96094003Y-57089433D01*
X95883566Y-57196657D01*
X95805559Y-57253333D01*
X95692490Y-57335483D01*
X95692488Y-57335485D01*
X95692487Y-57335485D01*
X95525485Y-57502487D01*
X95525485Y-57502488D01*
X95525483Y-57502490D01*
X95465862Y-57584550D01*
X95386657Y-57693566D01*
X95279433Y-57904003D01*
X95206446Y-58128631D01*
X95169500Y-58361902D01*
X90150500Y-58361902D01*
X90150500Y-54994500D01*
X90170185Y-54927461D01*
X90222989Y-54881706D01*
X90274500Y-54870500D01*
X195117588Y-54870500D01*
X195184627Y-54890185D01*
G37*
%TD.AperFunction*%
%TD*%
M02*
