M48
; DRILL file {KiCad 9.0.0} date 2025-05-09T22:52:19+0300
; FORMAT={-:-/ absolute / inch / decimal}
; #@! TF.CreationDate,2025-05-09T22:52:19+03:00
; #@! TF.GenerationSoftware,Kicad,Pcbnew,9.0.0
; #@! TF.FileFunction,Plated,1,2,PTH
FMAT,2
INCH
; #@! TA.AperFunction,Plated,PTH,ComponentDrill
T1C0.0315
; #@! TA.AperFunction,Plated,PTH,ComponentDrill
T2C0.0394
; #@! TA.AperFunction,Plated,PTH,ComponentDrill
T3C0.0400
; #@! TA.AperFunction,Plated,PTH,ComponentDrill
T4C0.0402
; #@! TA.AperFunction,Plated,PTH,ComponentDrill
T5C0.0787
; #@! TA.AperFunction,Plated,PTH,ComponentDrill
T6C0.1299
%
G90
G05
T1
X3.8Y-2.9227
X3.8Y-3.3227
X3.95Y-2.9227
X3.95Y-3.3227
T2
X3.7266Y-3.5444
X3.8269Y-3.5435
X3.9269Y-3.5435
X4.0269Y-3.5444
X8.2677Y-3.4
X8.2677Y-4.0
X8.2677Y-4.3
T3
X3.8165Y-2.3024
X3.8165Y-2.4024
X3.8165Y-2.5024
X3.8165Y-2.6024
X3.8165Y-2.7024
X4.7913Y-5.7272
X4.7913Y-5.8272
X4.8913Y-5.7272
X4.8913Y-5.8272
X4.9913Y-5.7272
X4.9913Y-5.8272
X7.7288Y-2.2024
X7.7288Y-2.3024
X7.8288Y-2.2024
X7.8288Y-2.3024
T4
X6.8591Y-3.7063
X7.1091Y-3.5063
X7.3091Y-3.5063
X7.5591Y-3.7063
X7.5591Y-4.4563
X7.5591Y-5.2063
X7.5591Y-5.2563
T5
X4.6Y-2.5984
X4.6Y-5.4331
X5.45Y-2.5984
X5.45Y-5.4331
X6.2992Y-2.5984
X6.2992Y-5.4331
T6
X3.8913Y-5.4399
X7.9507Y-3.9149
T2
G00X7.0448Y-2.663
M15
G01X7.0448Y-2.665
M16
G05
G00X7.0448Y-2.853
M15
G01X7.0448Y-2.855
M16
G05
G00X8.3728Y-2.473
M15
G01X8.3728Y-2.475
M16
G05
G00X8.3728Y-3.043
M15
G01X8.3728Y-3.045
M16
G05
M30
