%TF.GenerationSoftware,KiCad,Pcbnew,9.0.0*%
%TF.CreationDate,2025-04-09T21:16:24+03:00*%
%TF.ProjectId,QMX+ Battery + Audio Board,514d582b-2042-4617-9474-657279202b20,rev?*%
%TF.SameCoordinates,Original*%
%TF.FileFunction,Legend,Top*%
%TF.FilePolarity,Positive*%
%FSLAX46Y46*%
G04 Gerber Fmt 4.6, Leading zero omitted, Abs format (unit mm)*
G04 Created by KiCad (PCBNEW 9.0.0) date 2025-04-09 21:16:24*
%MOMM*%
%LPD*%
G01*
G04 APERTURE LIST*
%ADD10C,0.600000*%
%ADD11C,0.400000*%
%ADD12C,0.300000*%
%ADD13C,0.233680*%
%ADD14C,0.200000*%
%ADD15C,0.152400*%
%ADD16C,0.203000*%
%ADD17C,0.203200*%
%ADD18C,0.150000*%
%ADD19C,0.100000*%
%ADD20C,0.125000*%
%ADD21C,0.120000*%
%ADD22C,0.254000*%
%ADD23C,0.010000*%
G04 APERTURE END LIST*
D10*
X159109021Y-144458800D02*
X161394736Y-144458800D01*
D11*
X104072680Y-59924914D02*
X103882204Y-59829676D01*
X103882204Y-59829676D02*
X103691728Y-59639200D01*
X103691728Y-59639200D02*
X103406014Y-59353485D01*
X103406014Y-59353485D02*
X103215537Y-59258247D01*
X103215537Y-59258247D02*
X103025061Y-59258247D01*
X103120299Y-59734438D02*
X102929823Y-59639200D01*
X102929823Y-59639200D02*
X102739347Y-59448723D01*
X102739347Y-59448723D02*
X102644109Y-59067771D01*
X102644109Y-59067771D02*
X102644109Y-58401104D01*
X102644109Y-58401104D02*
X102739347Y-58020152D01*
X102739347Y-58020152D02*
X102929823Y-57829676D01*
X102929823Y-57829676D02*
X103120299Y-57734438D01*
X103120299Y-57734438D02*
X103501252Y-57734438D01*
X103501252Y-57734438D02*
X103691728Y-57829676D01*
X103691728Y-57829676D02*
X103882204Y-58020152D01*
X103882204Y-58020152D02*
X103977442Y-58401104D01*
X103977442Y-58401104D02*
X103977442Y-59067771D01*
X103977442Y-59067771D02*
X103882204Y-59448723D01*
X103882204Y-59448723D02*
X103691728Y-59639200D01*
X103691728Y-59639200D02*
X103501252Y-59734438D01*
X103501252Y-59734438D02*
X103120299Y-59734438D01*
X104834585Y-59734438D02*
X104834585Y-57734438D01*
X104834585Y-57734438D02*
X105501252Y-59163009D01*
X105501252Y-59163009D02*
X106167918Y-57734438D01*
X106167918Y-57734438D02*
X106167918Y-59734438D01*
X106929823Y-57734438D02*
X108263156Y-59734438D01*
X108263156Y-57734438D02*
X106929823Y-59734438D01*
X109025061Y-58972533D02*
X110548871Y-58972533D01*
X109786966Y-59734438D02*
X109786966Y-58210628D01*
X113691728Y-58686819D02*
X113977442Y-58782057D01*
X113977442Y-58782057D02*
X114072680Y-58877295D01*
X114072680Y-58877295D02*
X114167918Y-59067771D01*
X114167918Y-59067771D02*
X114167918Y-59353485D01*
X114167918Y-59353485D02*
X114072680Y-59543961D01*
X114072680Y-59543961D02*
X113977442Y-59639200D01*
X113977442Y-59639200D02*
X113786966Y-59734438D01*
X113786966Y-59734438D02*
X113025061Y-59734438D01*
X113025061Y-59734438D02*
X113025061Y-57734438D01*
X113025061Y-57734438D02*
X113691728Y-57734438D01*
X113691728Y-57734438D02*
X113882204Y-57829676D01*
X113882204Y-57829676D02*
X113977442Y-57924914D01*
X113977442Y-57924914D02*
X114072680Y-58115390D01*
X114072680Y-58115390D02*
X114072680Y-58305866D01*
X114072680Y-58305866D02*
X113977442Y-58496342D01*
X113977442Y-58496342D02*
X113882204Y-58591580D01*
X113882204Y-58591580D02*
X113691728Y-58686819D01*
X113691728Y-58686819D02*
X113025061Y-58686819D01*
X115882204Y-59734438D02*
X115882204Y-58686819D01*
X115882204Y-58686819D02*
X115786966Y-58496342D01*
X115786966Y-58496342D02*
X115596490Y-58401104D01*
X115596490Y-58401104D02*
X115215537Y-58401104D01*
X115215537Y-58401104D02*
X115025061Y-58496342D01*
X115882204Y-59639200D02*
X115691728Y-59734438D01*
X115691728Y-59734438D02*
X115215537Y-59734438D01*
X115215537Y-59734438D02*
X115025061Y-59639200D01*
X115025061Y-59639200D02*
X114929823Y-59448723D01*
X114929823Y-59448723D02*
X114929823Y-59258247D01*
X114929823Y-59258247D02*
X115025061Y-59067771D01*
X115025061Y-59067771D02*
X115215537Y-58972533D01*
X115215537Y-58972533D02*
X115691728Y-58972533D01*
X115691728Y-58972533D02*
X115882204Y-58877295D01*
X116548871Y-58401104D02*
X117310775Y-58401104D01*
X116834585Y-57734438D02*
X116834585Y-59448723D01*
X116834585Y-59448723D02*
X116929823Y-59639200D01*
X116929823Y-59639200D02*
X117120299Y-59734438D01*
X117120299Y-59734438D02*
X117310775Y-59734438D01*
X117691728Y-58401104D02*
X118453632Y-58401104D01*
X117977442Y-57734438D02*
X117977442Y-59448723D01*
X117977442Y-59448723D02*
X118072680Y-59639200D01*
X118072680Y-59639200D02*
X118263156Y-59734438D01*
X118263156Y-59734438D02*
X118453632Y-59734438D01*
X119882204Y-59639200D02*
X119691728Y-59734438D01*
X119691728Y-59734438D02*
X119310775Y-59734438D01*
X119310775Y-59734438D02*
X119120299Y-59639200D01*
X119120299Y-59639200D02*
X119025061Y-59448723D01*
X119025061Y-59448723D02*
X119025061Y-58686819D01*
X119025061Y-58686819D02*
X119120299Y-58496342D01*
X119120299Y-58496342D02*
X119310775Y-58401104D01*
X119310775Y-58401104D02*
X119691728Y-58401104D01*
X119691728Y-58401104D02*
X119882204Y-58496342D01*
X119882204Y-58496342D02*
X119977442Y-58686819D01*
X119977442Y-58686819D02*
X119977442Y-58877295D01*
X119977442Y-58877295D02*
X119025061Y-59067771D01*
X120834585Y-59734438D02*
X120834585Y-58401104D01*
X120834585Y-58782057D02*
X120929823Y-58591580D01*
X120929823Y-58591580D02*
X121025061Y-58496342D01*
X121025061Y-58496342D02*
X121215537Y-58401104D01*
X121215537Y-58401104D02*
X121406014Y-58401104D01*
X121882204Y-58401104D02*
X122358394Y-59734438D01*
X122834585Y-58401104D02*
X122358394Y-59734438D01*
X122358394Y-59734438D02*
X122167918Y-60210628D01*
X122167918Y-60210628D02*
X122072680Y-60305866D01*
X122072680Y-60305866D02*
X121882204Y-60401104D01*
X125977443Y-59734438D02*
X125977443Y-58686819D01*
X125977443Y-58686819D02*
X125882205Y-58496342D01*
X125882205Y-58496342D02*
X125691729Y-58401104D01*
X125691729Y-58401104D02*
X125310776Y-58401104D01*
X125310776Y-58401104D02*
X125120300Y-58496342D01*
X125977443Y-59639200D02*
X125786967Y-59734438D01*
X125786967Y-59734438D02*
X125310776Y-59734438D01*
X125310776Y-59734438D02*
X125120300Y-59639200D01*
X125120300Y-59639200D02*
X125025062Y-59448723D01*
X125025062Y-59448723D02*
X125025062Y-59258247D01*
X125025062Y-59258247D02*
X125120300Y-59067771D01*
X125120300Y-59067771D02*
X125310776Y-58972533D01*
X125310776Y-58972533D02*
X125786967Y-58972533D01*
X125786967Y-58972533D02*
X125977443Y-58877295D01*
X126929824Y-58401104D02*
X126929824Y-59734438D01*
X126929824Y-58591580D02*
X127025062Y-58496342D01*
X127025062Y-58496342D02*
X127215538Y-58401104D01*
X127215538Y-58401104D02*
X127501253Y-58401104D01*
X127501253Y-58401104D02*
X127691729Y-58496342D01*
X127691729Y-58496342D02*
X127786967Y-58686819D01*
X127786967Y-58686819D02*
X127786967Y-59734438D01*
X129596491Y-59734438D02*
X129596491Y-57734438D01*
X129596491Y-59639200D02*
X129406015Y-59734438D01*
X129406015Y-59734438D02*
X129025062Y-59734438D01*
X129025062Y-59734438D02*
X128834586Y-59639200D01*
X128834586Y-59639200D02*
X128739348Y-59543961D01*
X128739348Y-59543961D02*
X128644110Y-59353485D01*
X128644110Y-59353485D02*
X128644110Y-58782057D01*
X128644110Y-58782057D02*
X128739348Y-58591580D01*
X128739348Y-58591580D02*
X128834586Y-58496342D01*
X128834586Y-58496342D02*
X129025062Y-58401104D01*
X129025062Y-58401104D02*
X129406015Y-58401104D01*
X129406015Y-58401104D02*
X129596491Y-58496342D01*
X131977444Y-59163009D02*
X132929825Y-59163009D01*
X131786968Y-59734438D02*
X132453634Y-57734438D01*
X132453634Y-57734438D02*
X133120301Y-59734438D01*
X134644111Y-58401104D02*
X134644111Y-59734438D01*
X133786968Y-58401104D02*
X133786968Y-59448723D01*
X133786968Y-59448723D02*
X133882206Y-59639200D01*
X133882206Y-59639200D02*
X134072682Y-59734438D01*
X134072682Y-59734438D02*
X134358397Y-59734438D01*
X134358397Y-59734438D02*
X134548873Y-59639200D01*
X134548873Y-59639200D02*
X134644111Y-59543961D01*
X136453635Y-59734438D02*
X136453635Y-57734438D01*
X136453635Y-59639200D02*
X136263159Y-59734438D01*
X136263159Y-59734438D02*
X135882206Y-59734438D01*
X135882206Y-59734438D02*
X135691730Y-59639200D01*
X135691730Y-59639200D02*
X135596492Y-59543961D01*
X135596492Y-59543961D02*
X135501254Y-59353485D01*
X135501254Y-59353485D02*
X135501254Y-58782057D01*
X135501254Y-58782057D02*
X135596492Y-58591580D01*
X135596492Y-58591580D02*
X135691730Y-58496342D01*
X135691730Y-58496342D02*
X135882206Y-58401104D01*
X135882206Y-58401104D02*
X136263159Y-58401104D01*
X136263159Y-58401104D02*
X136453635Y-58496342D01*
X137406016Y-59734438D02*
X137406016Y-58401104D01*
X137406016Y-57734438D02*
X137310778Y-57829676D01*
X137310778Y-57829676D02*
X137406016Y-57924914D01*
X137406016Y-57924914D02*
X137501254Y-57829676D01*
X137501254Y-57829676D02*
X137406016Y-57734438D01*
X137406016Y-57734438D02*
X137406016Y-57924914D01*
X138644111Y-59734438D02*
X138453635Y-59639200D01*
X138453635Y-59639200D02*
X138358397Y-59543961D01*
X138358397Y-59543961D02*
X138263159Y-59353485D01*
X138263159Y-59353485D02*
X138263159Y-58782057D01*
X138263159Y-58782057D02*
X138358397Y-58591580D01*
X138358397Y-58591580D02*
X138453635Y-58496342D01*
X138453635Y-58496342D02*
X138644111Y-58401104D01*
X138644111Y-58401104D02*
X138929826Y-58401104D01*
X138929826Y-58401104D02*
X139120302Y-58496342D01*
X139120302Y-58496342D02*
X139215540Y-58591580D01*
X139215540Y-58591580D02*
X139310778Y-58782057D01*
X139310778Y-58782057D02*
X139310778Y-59353485D01*
X139310778Y-59353485D02*
X139215540Y-59543961D01*
X139215540Y-59543961D02*
X139120302Y-59639200D01*
X139120302Y-59639200D02*
X138929826Y-59734438D01*
X138929826Y-59734438D02*
X138644111Y-59734438D01*
X141596493Y-59639200D02*
X141882207Y-59734438D01*
X141882207Y-59734438D02*
X142358398Y-59734438D01*
X142358398Y-59734438D02*
X142548874Y-59639200D01*
X142548874Y-59639200D02*
X142644112Y-59543961D01*
X142644112Y-59543961D02*
X142739350Y-59353485D01*
X142739350Y-59353485D02*
X142739350Y-59163009D01*
X142739350Y-59163009D02*
X142644112Y-58972533D01*
X142644112Y-58972533D02*
X142548874Y-58877295D01*
X142548874Y-58877295D02*
X142358398Y-58782057D01*
X142358398Y-58782057D02*
X141977445Y-58686819D01*
X141977445Y-58686819D02*
X141786969Y-58591580D01*
X141786969Y-58591580D02*
X141691731Y-58496342D01*
X141691731Y-58496342D02*
X141596493Y-58305866D01*
X141596493Y-58305866D02*
X141596493Y-58115390D01*
X141596493Y-58115390D02*
X141691731Y-57924914D01*
X141691731Y-57924914D02*
X141786969Y-57829676D01*
X141786969Y-57829676D02*
X141977445Y-57734438D01*
X141977445Y-57734438D02*
X142453636Y-57734438D01*
X142453636Y-57734438D02*
X142739350Y-57829676D01*
X143596493Y-59734438D02*
X143596493Y-57734438D01*
X144453636Y-59734438D02*
X144453636Y-58686819D01*
X144453636Y-58686819D02*
X144358398Y-58496342D01*
X144358398Y-58496342D02*
X144167922Y-58401104D01*
X144167922Y-58401104D02*
X143882207Y-58401104D01*
X143882207Y-58401104D02*
X143691731Y-58496342D01*
X143691731Y-58496342D02*
X143596493Y-58591580D01*
X145406017Y-59734438D02*
X145406017Y-58401104D01*
X145406017Y-57734438D02*
X145310779Y-57829676D01*
X145310779Y-57829676D02*
X145406017Y-57924914D01*
X145406017Y-57924914D02*
X145501255Y-57829676D01*
X145501255Y-57829676D02*
X145406017Y-57734438D01*
X145406017Y-57734438D02*
X145406017Y-57924914D01*
X147120303Y-59639200D02*
X146929827Y-59734438D01*
X146929827Y-59734438D02*
X146548874Y-59734438D01*
X146548874Y-59734438D02*
X146358398Y-59639200D01*
X146358398Y-59639200D02*
X146263160Y-59448723D01*
X146263160Y-59448723D02*
X146263160Y-58686819D01*
X146263160Y-58686819D02*
X146358398Y-58496342D01*
X146358398Y-58496342D02*
X146548874Y-58401104D01*
X146548874Y-58401104D02*
X146929827Y-58401104D01*
X146929827Y-58401104D02*
X147120303Y-58496342D01*
X147120303Y-58496342D02*
X147215541Y-58686819D01*
X147215541Y-58686819D02*
X147215541Y-58877295D01*
X147215541Y-58877295D02*
X146263160Y-59067771D01*
X148358398Y-59734438D02*
X148167922Y-59639200D01*
X148167922Y-59639200D02*
X148072684Y-59448723D01*
X148072684Y-59448723D02*
X148072684Y-57734438D01*
X149977446Y-59734438D02*
X149977446Y-57734438D01*
X149977446Y-59639200D02*
X149786970Y-59734438D01*
X149786970Y-59734438D02*
X149406017Y-59734438D01*
X149406017Y-59734438D02*
X149215541Y-59639200D01*
X149215541Y-59639200D02*
X149120303Y-59543961D01*
X149120303Y-59543961D02*
X149025065Y-59353485D01*
X149025065Y-59353485D02*
X149025065Y-58782057D01*
X149025065Y-58782057D02*
X149120303Y-58591580D01*
X149120303Y-58591580D02*
X149215541Y-58496342D01*
X149215541Y-58496342D02*
X149406017Y-58401104D01*
X149406017Y-58401104D02*
X149786970Y-58401104D01*
X149786970Y-58401104D02*
X149977446Y-58496342D01*
X152453637Y-59734438D02*
X152453637Y-57734438D01*
X152453637Y-58496342D02*
X152644113Y-58401104D01*
X152644113Y-58401104D02*
X153025066Y-58401104D01*
X153025066Y-58401104D02*
X153215542Y-58496342D01*
X153215542Y-58496342D02*
X153310780Y-58591580D01*
X153310780Y-58591580D02*
X153406018Y-58782057D01*
X153406018Y-58782057D02*
X153406018Y-59353485D01*
X153406018Y-59353485D02*
X153310780Y-59543961D01*
X153310780Y-59543961D02*
X153215542Y-59639200D01*
X153215542Y-59639200D02*
X153025066Y-59734438D01*
X153025066Y-59734438D02*
X152644113Y-59734438D01*
X152644113Y-59734438D02*
X152453637Y-59639200D01*
X154072685Y-58401104D02*
X154548875Y-59734438D01*
X155025066Y-58401104D02*
X154548875Y-59734438D01*
X154548875Y-59734438D02*
X154358399Y-60210628D01*
X154358399Y-60210628D02*
X154263161Y-60305866D01*
X154263161Y-60305866D02*
X154072685Y-60401104D01*
X157596495Y-59734438D02*
X157406019Y-59639200D01*
X157406019Y-59639200D02*
X157310781Y-59448723D01*
X157310781Y-59448723D02*
X157310781Y-57734438D01*
X159215543Y-59734438D02*
X159215543Y-58686819D01*
X159215543Y-58686819D02*
X159120305Y-58496342D01*
X159120305Y-58496342D02*
X158929829Y-58401104D01*
X158929829Y-58401104D02*
X158548876Y-58401104D01*
X158548876Y-58401104D02*
X158358400Y-58496342D01*
X159215543Y-59639200D02*
X159025067Y-59734438D01*
X159025067Y-59734438D02*
X158548876Y-59734438D01*
X158548876Y-59734438D02*
X158358400Y-59639200D01*
X158358400Y-59639200D02*
X158263162Y-59448723D01*
X158263162Y-59448723D02*
X158263162Y-59258247D01*
X158263162Y-59258247D02*
X158358400Y-59067771D01*
X158358400Y-59067771D02*
X158548876Y-58972533D01*
X158548876Y-58972533D02*
X159025067Y-58972533D01*
X159025067Y-58972533D02*
X159215543Y-58877295D01*
X159977448Y-59734438D02*
X161025067Y-58401104D01*
X159977448Y-58401104D02*
X161025067Y-59734438D01*
X162644115Y-59734438D02*
X162644115Y-57734438D01*
X162644115Y-59639200D02*
X162453639Y-59734438D01*
X162453639Y-59734438D02*
X162072686Y-59734438D01*
X162072686Y-59734438D02*
X161882210Y-59639200D01*
X161882210Y-59639200D02*
X161786972Y-59543961D01*
X161786972Y-59543961D02*
X161691734Y-59353485D01*
X161691734Y-59353485D02*
X161691734Y-58782057D01*
X161691734Y-58782057D02*
X161786972Y-58591580D01*
X161786972Y-58591580D02*
X161882210Y-58496342D01*
X161882210Y-58496342D02*
X162072686Y-58401104D01*
X162072686Y-58401104D02*
X162453639Y-58401104D01*
X162453639Y-58401104D02*
X162644115Y-58496342D01*
X163596496Y-59734438D02*
X163596496Y-58401104D01*
X163596496Y-58782057D02*
X163691734Y-58591580D01*
X163691734Y-58591580D02*
X163786972Y-58496342D01*
X163786972Y-58496342D02*
X163977448Y-58401104D01*
X163977448Y-58401104D02*
X164167925Y-58401104D01*
X165120305Y-59734438D02*
X164929829Y-59639200D01*
X164929829Y-59639200D02*
X164834591Y-59543961D01*
X164834591Y-59543961D02*
X164739353Y-59353485D01*
X164739353Y-59353485D02*
X164739353Y-58782057D01*
X164739353Y-58782057D02*
X164834591Y-58591580D01*
X164834591Y-58591580D02*
X164929829Y-58496342D01*
X164929829Y-58496342D02*
X165120305Y-58401104D01*
X165120305Y-58401104D02*
X165406020Y-58401104D01*
X165406020Y-58401104D02*
X165596496Y-58496342D01*
X165596496Y-58496342D02*
X165691734Y-58591580D01*
X165691734Y-58591580D02*
X165786972Y-58782057D01*
X165786972Y-58782057D02*
X165786972Y-59353485D01*
X165786972Y-59353485D02*
X165691734Y-59543961D01*
X165691734Y-59543961D02*
X165596496Y-59639200D01*
X165596496Y-59639200D02*
X165406020Y-59734438D01*
X165406020Y-59734438D02*
X165120305Y-59734438D01*
X166644115Y-58401104D02*
X166644115Y-59734438D01*
X166644115Y-58591580D02*
X166739353Y-58496342D01*
X166739353Y-58496342D02*
X166929829Y-58401104D01*
X166929829Y-58401104D02*
X167215544Y-58401104D01*
X167215544Y-58401104D02*
X167406020Y-58496342D01*
X167406020Y-58496342D02*
X167501258Y-58686819D01*
X167501258Y-58686819D02*
X167501258Y-59734438D01*
X169310782Y-58401104D02*
X169310782Y-59734438D01*
X168453639Y-58401104D02*
X168453639Y-59448723D01*
X168453639Y-59448723D02*
X168548877Y-59639200D01*
X168548877Y-59639200D02*
X168739353Y-59734438D01*
X168739353Y-59734438D02*
X169025068Y-59734438D01*
X169025068Y-59734438D02*
X169215544Y-59639200D01*
X169215544Y-59639200D02*
X169310782Y-59543961D01*
X170263163Y-59734438D02*
X170263163Y-58401104D01*
X170263163Y-58591580D02*
X170358401Y-58496342D01*
X170358401Y-58496342D02*
X170548877Y-58401104D01*
X170548877Y-58401104D02*
X170834592Y-58401104D01*
X170834592Y-58401104D02*
X171025068Y-58496342D01*
X171025068Y-58496342D02*
X171120306Y-58686819D01*
X171120306Y-58686819D02*
X171120306Y-59734438D01*
X171120306Y-58686819D02*
X171215544Y-58496342D01*
X171215544Y-58496342D02*
X171406020Y-58401104D01*
X171406020Y-58401104D02*
X171691734Y-58401104D01*
X171691734Y-58401104D02*
X171882211Y-58496342D01*
X171882211Y-58496342D02*
X171977449Y-58686819D01*
X171977449Y-58686819D02*
X171977449Y-59734438D01*
D10*
X115609021Y-70958800D02*
X117894736Y-70958800D01*
X116751878Y-72101657D02*
X116751878Y-69815942D01*
D12*
X209300828Y-105588346D02*
X209300828Y-104659774D01*
X209300828Y-104659774D02*
X209872257Y-105159774D01*
X209872257Y-105159774D02*
X209872257Y-104945489D01*
X209872257Y-104945489D02*
X209943685Y-104802632D01*
X209943685Y-104802632D02*
X210015114Y-104731203D01*
X210015114Y-104731203D02*
X210157971Y-104659774D01*
X210157971Y-104659774D02*
X210515114Y-104659774D01*
X210515114Y-104659774D02*
X210657971Y-104731203D01*
X210657971Y-104731203D02*
X210729400Y-104802632D01*
X210729400Y-104802632D02*
X210800828Y-104945489D01*
X210800828Y-104945489D02*
X210800828Y-105374060D01*
X210800828Y-105374060D02*
X210729400Y-105516917D01*
X210729400Y-105516917D02*
X210657971Y-105588346D01*
X210372257Y-104088346D02*
X210372257Y-103374061D01*
X210800828Y-104231203D02*
X209300828Y-103731203D01*
X209300828Y-103731203D02*
X210800828Y-103231203D01*
X210015114Y-101088347D02*
X210015114Y-101588347D01*
X210800828Y-101588347D02*
X209300828Y-101588347D01*
X209300828Y-101588347D02*
X209300828Y-100874061D01*
X209300828Y-100302633D02*
X210515114Y-100302633D01*
X210515114Y-100302633D02*
X210657971Y-100231204D01*
X210657971Y-100231204D02*
X210729400Y-100159776D01*
X210729400Y-100159776D02*
X210800828Y-100016918D01*
X210800828Y-100016918D02*
X210800828Y-99731204D01*
X210800828Y-99731204D02*
X210729400Y-99588347D01*
X210729400Y-99588347D02*
X210657971Y-99516918D01*
X210657971Y-99516918D02*
X210515114Y-99445490D01*
X210515114Y-99445490D02*
X209300828Y-99445490D01*
X210729400Y-98802632D02*
X210800828Y-98588347D01*
X210800828Y-98588347D02*
X210800828Y-98231204D01*
X210800828Y-98231204D02*
X210729400Y-98088347D01*
X210729400Y-98088347D02*
X210657971Y-98016918D01*
X210657971Y-98016918D02*
X210515114Y-97945489D01*
X210515114Y-97945489D02*
X210372257Y-97945489D01*
X210372257Y-97945489D02*
X210229400Y-98016918D01*
X210229400Y-98016918D02*
X210157971Y-98088347D01*
X210157971Y-98088347D02*
X210086542Y-98231204D01*
X210086542Y-98231204D02*
X210015114Y-98516918D01*
X210015114Y-98516918D02*
X209943685Y-98659775D01*
X209943685Y-98659775D02*
X209872257Y-98731204D01*
X209872257Y-98731204D02*
X209729400Y-98802632D01*
X209729400Y-98802632D02*
X209586542Y-98802632D01*
X209586542Y-98802632D02*
X209443685Y-98731204D01*
X209443685Y-98731204D02*
X209372257Y-98659775D01*
X209372257Y-98659775D02*
X209300828Y-98516918D01*
X209300828Y-98516918D02*
X209300828Y-98159775D01*
X209300828Y-98159775D02*
X209372257Y-97945489D01*
X210015114Y-97302633D02*
X210015114Y-96802633D01*
X210800828Y-96588347D02*
X210800828Y-97302633D01*
X210800828Y-97302633D02*
X209300828Y-97302633D01*
X209300828Y-97302633D02*
X209300828Y-96588347D01*
D13*
X93926458Y-62294244D02*
X94761029Y-62294244D01*
X94761029Y-62294244D02*
X94927943Y-62349883D01*
X94927943Y-62349883D02*
X95039220Y-62461159D01*
X95039220Y-62461159D02*
X95094858Y-62628073D01*
X95094858Y-62628073D02*
X95094858Y-62739349D01*
X95094858Y-61737863D02*
X93926458Y-61737863D01*
X93926458Y-61737863D02*
X93926458Y-61292758D01*
X93926458Y-61292758D02*
X93982096Y-61181482D01*
X93982096Y-61181482D02*
X94037734Y-61125844D01*
X94037734Y-61125844D02*
X94149010Y-61070206D01*
X94149010Y-61070206D02*
X94315924Y-61070206D01*
X94315924Y-61070206D02*
X94427200Y-61125844D01*
X94427200Y-61125844D02*
X94482839Y-61181482D01*
X94482839Y-61181482D02*
X94538477Y-61292758D01*
X94538477Y-61292758D02*
X94538477Y-61737863D01*
X93926458Y-60680739D02*
X93926458Y-59957444D01*
X93926458Y-59957444D02*
X94371562Y-60346911D01*
X94371562Y-60346911D02*
X94371562Y-60179996D01*
X94371562Y-60179996D02*
X94427200Y-60068720D01*
X94427200Y-60068720D02*
X94482839Y-60013082D01*
X94482839Y-60013082D02*
X94594115Y-59957444D01*
X94594115Y-59957444D02*
X94872305Y-59957444D01*
X94872305Y-59957444D02*
X94983581Y-60013082D01*
X94983581Y-60013082D02*
X95039220Y-60068720D01*
X95039220Y-60068720D02*
X95094858Y-60179996D01*
X95094858Y-60179996D02*
X95094858Y-60513825D01*
X95094858Y-60513825D02*
X95039220Y-60625101D01*
X95039220Y-60625101D02*
X94983581Y-60680739D01*
X93926458Y-59234149D02*
X93926458Y-59122872D01*
X93926458Y-59122872D02*
X93982096Y-59011596D01*
X93982096Y-59011596D02*
X94037734Y-58955958D01*
X94037734Y-58955958D02*
X94149010Y-58900320D01*
X94149010Y-58900320D02*
X94371562Y-58844682D01*
X94371562Y-58844682D02*
X94649753Y-58844682D01*
X94649753Y-58844682D02*
X94872305Y-58900320D01*
X94872305Y-58900320D02*
X94983581Y-58955958D01*
X94983581Y-58955958D02*
X95039220Y-59011596D01*
X95039220Y-59011596D02*
X95094858Y-59122872D01*
X95094858Y-59122872D02*
X95094858Y-59234149D01*
X95094858Y-59234149D02*
X95039220Y-59345425D01*
X95039220Y-59345425D02*
X94983581Y-59401063D01*
X94983581Y-59401063D02*
X94872305Y-59456701D01*
X94872305Y-59456701D02*
X94649753Y-59512339D01*
X94649753Y-59512339D02*
X94371562Y-59512339D01*
X94371562Y-59512339D02*
X94149010Y-59456701D01*
X94149010Y-59456701D02*
X94037734Y-59401063D01*
X94037734Y-59401063D02*
X93982096Y-59345425D01*
X93982096Y-59345425D02*
X93926458Y-59234149D01*
X95094858Y-57731920D02*
X95094858Y-58399577D01*
X95094858Y-58065749D02*
X93926458Y-58065749D01*
X93926458Y-58065749D02*
X94093372Y-58177025D01*
X94093372Y-58177025D02*
X94204648Y-58288301D01*
X94204648Y-58288301D02*
X94260286Y-58399577D01*
D14*
X94367219Y-79606517D02*
X94367219Y-80177945D01*
X94367219Y-79892231D02*
X93367219Y-79892231D01*
X93367219Y-79892231D02*
X93510076Y-79987469D01*
X93510076Y-79987469D02*
X93605314Y-80082707D01*
X93605314Y-80082707D02*
X93652933Y-80177945D01*
X94367219Y-79177945D02*
X93367219Y-79177945D01*
X93986266Y-79082707D02*
X94367219Y-78796993D01*
X93700552Y-78796993D02*
X94081504Y-79177945D01*
D13*
X115065755Y-147588458D02*
X115065755Y-148423029D01*
X115065755Y-148423029D02*
X115010116Y-148589943D01*
X115010116Y-148589943D02*
X114898840Y-148701220D01*
X114898840Y-148701220D02*
X114731926Y-148756858D01*
X114731926Y-148756858D02*
X114620650Y-148756858D01*
X115622136Y-148756858D02*
X115622136Y-147588458D01*
X115622136Y-147588458D02*
X116067241Y-147588458D01*
X116067241Y-147588458D02*
X116178517Y-147644096D01*
X116178517Y-147644096D02*
X116234155Y-147699734D01*
X116234155Y-147699734D02*
X116289793Y-147811010D01*
X116289793Y-147811010D02*
X116289793Y-147977924D01*
X116289793Y-147977924D02*
X116234155Y-148089200D01*
X116234155Y-148089200D02*
X116178517Y-148144839D01*
X116178517Y-148144839D02*
X116067241Y-148200477D01*
X116067241Y-148200477D02*
X115622136Y-148200477D01*
X117402555Y-148756858D02*
X116734898Y-148756858D01*
X117068726Y-148756858D02*
X117068726Y-147588458D01*
X117068726Y-147588458D02*
X116957450Y-147755372D01*
X116957450Y-147755372D02*
X116846174Y-147866648D01*
X116846174Y-147866648D02*
X116734898Y-147922286D01*
X118125850Y-147588458D02*
X118237127Y-147588458D01*
X118237127Y-147588458D02*
X118348403Y-147644096D01*
X118348403Y-147644096D02*
X118404041Y-147699734D01*
X118404041Y-147699734D02*
X118459679Y-147811010D01*
X118459679Y-147811010D02*
X118515317Y-148033562D01*
X118515317Y-148033562D02*
X118515317Y-148311753D01*
X118515317Y-148311753D02*
X118459679Y-148534305D01*
X118459679Y-148534305D02*
X118404041Y-148645581D01*
X118404041Y-148645581D02*
X118348403Y-148701220D01*
X118348403Y-148701220D02*
X118237127Y-148756858D01*
X118237127Y-148756858D02*
X118125850Y-148756858D01*
X118125850Y-148756858D02*
X118014574Y-148701220D01*
X118014574Y-148701220D02*
X117958936Y-148645581D01*
X117958936Y-148645581D02*
X117903298Y-148534305D01*
X117903298Y-148534305D02*
X117847660Y-148311753D01*
X117847660Y-148311753D02*
X117847660Y-148033562D01*
X117847660Y-148033562D02*
X117903298Y-147811010D01*
X117903298Y-147811010D02*
X117958936Y-147699734D01*
X117958936Y-147699734D02*
X118014574Y-147644096D01*
X118014574Y-147644096D02*
X118125850Y-147588458D01*
X119572441Y-147588458D02*
X119016060Y-147588458D01*
X119016060Y-147588458D02*
X118960422Y-148144839D01*
X118960422Y-148144839D02*
X119016060Y-148089200D01*
X119016060Y-148089200D02*
X119127336Y-148033562D01*
X119127336Y-148033562D02*
X119405527Y-148033562D01*
X119405527Y-148033562D02*
X119516803Y-148089200D01*
X119516803Y-148089200D02*
X119572441Y-148144839D01*
X119572441Y-148144839D02*
X119628079Y-148256115D01*
X119628079Y-148256115D02*
X119628079Y-148534305D01*
X119628079Y-148534305D02*
X119572441Y-148645581D01*
X119572441Y-148645581D02*
X119516803Y-148701220D01*
X119516803Y-148701220D02*
X119405527Y-148756858D01*
X119405527Y-148756858D02*
X119127336Y-148756858D01*
X119127336Y-148756858D02*
X119016060Y-148701220D01*
X119016060Y-148701220D02*
X118960422Y-148645581D01*
D10*
X187823307Y-71315942D02*
X187680450Y-71458800D01*
X187680450Y-71458800D02*
X187251878Y-71601657D01*
X187251878Y-71601657D02*
X186966164Y-71601657D01*
X186966164Y-71601657D02*
X186537593Y-71458800D01*
X186537593Y-71458800D02*
X186251878Y-71173085D01*
X186251878Y-71173085D02*
X186109021Y-70887371D01*
X186109021Y-70887371D02*
X185966164Y-70315942D01*
X185966164Y-70315942D02*
X185966164Y-69887371D01*
X185966164Y-69887371D02*
X186109021Y-69315942D01*
X186109021Y-69315942D02*
X186251878Y-69030228D01*
X186251878Y-69030228D02*
X186537593Y-68744514D01*
X186537593Y-68744514D02*
X186966164Y-68601657D01*
X186966164Y-68601657D02*
X187251878Y-68601657D01*
X187251878Y-68601657D02*
X187680450Y-68744514D01*
X187680450Y-68744514D02*
X187823307Y-68887371D01*
X189109021Y-71601657D02*
X189109021Y-68601657D01*
X189109021Y-70030228D02*
X190823307Y-70030228D01*
X190823307Y-71601657D02*
X190823307Y-68601657D01*
X192109021Y-70744514D02*
X193537593Y-70744514D01*
X191823307Y-71601657D02*
X192823307Y-68601657D01*
X192823307Y-68601657D02*
X193823307Y-71601657D01*
X196537593Y-71601657D02*
X195537593Y-70173085D01*
X194823307Y-71601657D02*
X194823307Y-68601657D01*
X194823307Y-68601657D02*
X195966164Y-68601657D01*
X195966164Y-68601657D02*
X196251879Y-68744514D01*
X196251879Y-68744514D02*
X196394736Y-68887371D01*
X196394736Y-68887371D02*
X196537593Y-69173085D01*
X196537593Y-69173085D02*
X196537593Y-69601657D01*
X196537593Y-69601657D02*
X196394736Y-69887371D01*
X196394736Y-69887371D02*
X196251879Y-70030228D01*
X196251879Y-70030228D02*
X195966164Y-70173085D01*
X195966164Y-70173085D02*
X194823307Y-70173085D01*
X199394736Y-68744514D02*
X199109022Y-68601657D01*
X199109022Y-68601657D02*
X198680450Y-68601657D01*
X198680450Y-68601657D02*
X198251879Y-68744514D01*
X198251879Y-68744514D02*
X197966164Y-69030228D01*
X197966164Y-69030228D02*
X197823307Y-69315942D01*
X197823307Y-69315942D02*
X197680450Y-69887371D01*
X197680450Y-69887371D02*
X197680450Y-70315942D01*
X197680450Y-70315942D02*
X197823307Y-70887371D01*
X197823307Y-70887371D02*
X197966164Y-71173085D01*
X197966164Y-71173085D02*
X198251879Y-71458800D01*
X198251879Y-71458800D02*
X198680450Y-71601657D01*
X198680450Y-71601657D02*
X198966164Y-71601657D01*
X198966164Y-71601657D02*
X199394736Y-71458800D01*
X199394736Y-71458800D02*
X199537593Y-71315942D01*
X199537593Y-71315942D02*
X199537593Y-70315942D01*
X199537593Y-70315942D02*
X198966164Y-70315942D01*
X200823307Y-70030228D02*
X201823307Y-70030228D01*
X202251879Y-71601657D02*
X200823307Y-71601657D01*
X200823307Y-71601657D02*
X200823307Y-68601657D01*
X200823307Y-68601657D02*
X202251879Y-68601657D01*
X205251879Y-71601657D02*
X204251879Y-70173085D01*
X203537593Y-71601657D02*
X203537593Y-68601657D01*
X203537593Y-68601657D02*
X204680450Y-68601657D01*
X204680450Y-68601657D02*
X204966165Y-68744514D01*
X204966165Y-68744514D02*
X205109022Y-68887371D01*
X205109022Y-68887371D02*
X205251879Y-69173085D01*
X205251879Y-69173085D02*
X205251879Y-69601657D01*
X205251879Y-69601657D02*
X205109022Y-69887371D01*
X205109022Y-69887371D02*
X204966165Y-70030228D01*
X204966165Y-70030228D02*
X204680450Y-70173085D01*
X204680450Y-70173085D02*
X203537593Y-70173085D01*
X159109021Y-70958800D02*
X161394736Y-70958800D01*
X160251878Y-72101657D02*
X160251878Y-69815942D01*
D13*
X201969612Y-55623270D02*
X201135041Y-55623270D01*
X201135041Y-55623270D02*
X200968127Y-55567631D01*
X200968127Y-55567631D02*
X200856851Y-55456355D01*
X200856851Y-55456355D02*
X200801212Y-55289441D01*
X200801212Y-55289441D02*
X200801212Y-55178165D01*
X200801212Y-56179651D02*
X201969612Y-56179651D01*
X201969612Y-56179651D02*
X201969612Y-56624756D01*
X201969612Y-56624756D02*
X201913974Y-56736032D01*
X201913974Y-56736032D02*
X201858336Y-56791670D01*
X201858336Y-56791670D02*
X201747060Y-56847308D01*
X201747060Y-56847308D02*
X201580146Y-56847308D01*
X201580146Y-56847308D02*
X201468870Y-56791670D01*
X201468870Y-56791670D02*
X201413231Y-56736032D01*
X201413231Y-56736032D02*
X201357593Y-56624756D01*
X201357593Y-56624756D02*
X201357593Y-56179651D01*
X200801212Y-57960070D02*
X200801212Y-57292413D01*
X200801212Y-57626241D02*
X201969612Y-57626241D01*
X201969612Y-57626241D02*
X201802698Y-57514965D01*
X201802698Y-57514965D02*
X201691422Y-57403689D01*
X201691422Y-57403689D02*
X201635784Y-57292413D01*
X201969612Y-58683365D02*
X201969612Y-58794642D01*
X201969612Y-58794642D02*
X201913974Y-58905918D01*
X201913974Y-58905918D02*
X201858336Y-58961556D01*
X201858336Y-58961556D02*
X201747060Y-59017194D01*
X201747060Y-59017194D02*
X201524508Y-59072832D01*
X201524508Y-59072832D02*
X201246317Y-59072832D01*
X201246317Y-59072832D02*
X201023765Y-59017194D01*
X201023765Y-59017194D02*
X200912489Y-58961556D01*
X200912489Y-58961556D02*
X200856851Y-58905918D01*
X200856851Y-58905918D02*
X200801212Y-58794642D01*
X200801212Y-58794642D02*
X200801212Y-58683365D01*
X200801212Y-58683365D02*
X200856851Y-58572089D01*
X200856851Y-58572089D02*
X200912489Y-58516451D01*
X200912489Y-58516451D02*
X201023765Y-58460813D01*
X201023765Y-58460813D02*
X201246317Y-58405175D01*
X201246317Y-58405175D02*
X201524508Y-58405175D01*
X201524508Y-58405175D02*
X201747060Y-58460813D01*
X201747060Y-58460813D02*
X201858336Y-58516451D01*
X201858336Y-58516451D02*
X201913974Y-58572089D01*
X201913974Y-58572089D02*
X201969612Y-58683365D01*
X200801212Y-60185594D02*
X200801212Y-59517937D01*
X200801212Y-59851765D02*
X201969612Y-59851765D01*
X201969612Y-59851765D02*
X201802698Y-59740489D01*
X201802698Y-59740489D02*
X201691422Y-59629213D01*
X201691422Y-59629213D02*
X201635784Y-59517937D01*
D10*
X137109021Y-144458800D02*
X139394736Y-144458800D01*
X138251878Y-145601657D02*
X138251878Y-143315942D01*
D14*
X103367219Y-79606517D02*
X103367219Y-80177945D01*
X103367219Y-79892231D02*
X102367219Y-79892231D01*
X102367219Y-79892231D02*
X102510076Y-79987469D01*
X102510076Y-79987469D02*
X102605314Y-80082707D01*
X102605314Y-80082707D02*
X102652933Y-80177945D01*
X103367219Y-79177945D02*
X102367219Y-79177945D01*
X102986266Y-79082707D02*
X103367219Y-78796993D01*
X102700552Y-78796993D02*
X103081504Y-79177945D01*
D10*
X116109021Y-144458800D02*
X118394736Y-144458800D01*
D12*
X92911653Y-145385912D02*
X92411653Y-144671626D01*
X92054510Y-145385912D02*
X92054510Y-143885912D01*
X92054510Y-143885912D02*
X92625939Y-143885912D01*
X92625939Y-143885912D02*
X92768796Y-143957341D01*
X92768796Y-143957341D02*
X92840225Y-144028769D01*
X92840225Y-144028769D02*
X92911653Y-144171626D01*
X92911653Y-144171626D02*
X92911653Y-144385912D01*
X92911653Y-144385912D02*
X92840225Y-144528769D01*
X92840225Y-144528769D02*
X92768796Y-144600198D01*
X92768796Y-144600198D02*
X92625939Y-144671626D01*
X92625939Y-144671626D02*
X92054510Y-144671626D01*
X94125939Y-145314484D02*
X93983082Y-145385912D01*
X93983082Y-145385912D02*
X93697368Y-145385912D01*
X93697368Y-145385912D02*
X93554510Y-145314484D01*
X93554510Y-145314484D02*
X93483082Y-145171626D01*
X93483082Y-145171626D02*
X93483082Y-144600198D01*
X93483082Y-144600198D02*
X93554510Y-144457341D01*
X93554510Y-144457341D02*
X93697368Y-144385912D01*
X93697368Y-144385912D02*
X93983082Y-144385912D01*
X93983082Y-144385912D02*
X94125939Y-144457341D01*
X94125939Y-144457341D02*
X94197368Y-144600198D01*
X94197368Y-144600198D02*
X94197368Y-144743055D01*
X94197368Y-144743055D02*
X93483082Y-144885912D01*
X94697367Y-144385912D02*
X95054510Y-145385912D01*
X95054510Y-145385912D02*
X95411653Y-144385912D01*
X95983081Y-145243055D02*
X96054510Y-145314484D01*
X96054510Y-145314484D02*
X95983081Y-145385912D01*
X95983081Y-145385912D02*
X95911653Y-145314484D01*
X95911653Y-145314484D02*
X95983081Y-145243055D01*
X95983081Y-145243055D02*
X95983081Y-145385912D01*
X98625939Y-145385912D02*
X97768796Y-145385912D01*
X98197367Y-145385912D02*
X98197367Y-143885912D01*
X98197367Y-143885912D02*
X98054510Y-144100198D01*
X98054510Y-144100198D02*
X97911653Y-144243055D01*
X97911653Y-144243055D02*
X97768796Y-144314484D01*
X99268795Y-145243055D02*
X99340224Y-145314484D01*
X99340224Y-145314484D02*
X99268795Y-145385912D01*
X99268795Y-145385912D02*
X99197367Y-145314484D01*
X99197367Y-145314484D02*
X99268795Y-145243055D01*
X99268795Y-145243055D02*
X99268795Y-145385912D01*
X100768796Y-145385912D02*
X99911653Y-145385912D01*
X100340224Y-145385912D02*
X100340224Y-143885912D01*
X100340224Y-143885912D02*
X100197367Y-144100198D01*
X100197367Y-144100198D02*
X100054510Y-144243055D01*
X100054510Y-144243055D02*
X99911653Y-144314484D01*
X91983082Y-147372257D02*
X92697368Y-147372257D01*
X91840225Y-147800828D02*
X92340225Y-146300828D01*
X92340225Y-146300828D02*
X92840225Y-147800828D01*
X93340224Y-146800828D02*
X93340224Y-148300828D01*
X93340224Y-146872257D02*
X93483082Y-146800828D01*
X93483082Y-146800828D02*
X93768796Y-146800828D01*
X93768796Y-146800828D02*
X93911653Y-146872257D01*
X93911653Y-146872257D02*
X93983082Y-146943685D01*
X93983082Y-146943685D02*
X94054510Y-147086542D01*
X94054510Y-147086542D02*
X94054510Y-147515114D01*
X94054510Y-147515114D02*
X93983082Y-147657971D01*
X93983082Y-147657971D02*
X93911653Y-147729400D01*
X93911653Y-147729400D02*
X93768796Y-147800828D01*
X93768796Y-147800828D02*
X93483082Y-147800828D01*
X93483082Y-147800828D02*
X93340224Y-147729400D01*
X94697367Y-147800828D02*
X94697367Y-146800828D01*
X94697367Y-147086542D02*
X94768796Y-146943685D01*
X94768796Y-146943685D02*
X94840225Y-146872257D01*
X94840225Y-146872257D02*
X94983082Y-146800828D01*
X94983082Y-146800828D02*
X95125939Y-146800828D01*
X95625938Y-147800828D02*
X95625938Y-146800828D01*
X95625938Y-146300828D02*
X95554510Y-146372257D01*
X95554510Y-146372257D02*
X95625938Y-146443685D01*
X95625938Y-146443685D02*
X95697367Y-146372257D01*
X95697367Y-146372257D02*
X95625938Y-146300828D01*
X95625938Y-146300828D02*
X95625938Y-146443685D01*
X96554510Y-147800828D02*
X96411653Y-147729400D01*
X96411653Y-147729400D02*
X96340224Y-147586542D01*
X96340224Y-147586542D02*
X96340224Y-146300828D01*
X98197367Y-146443685D02*
X98268795Y-146372257D01*
X98268795Y-146372257D02*
X98411653Y-146300828D01*
X98411653Y-146300828D02*
X98768795Y-146300828D01*
X98768795Y-146300828D02*
X98911653Y-146372257D01*
X98911653Y-146372257D02*
X98983081Y-146443685D01*
X98983081Y-146443685D02*
X99054510Y-146586542D01*
X99054510Y-146586542D02*
X99054510Y-146729400D01*
X99054510Y-146729400D02*
X98983081Y-146943685D01*
X98983081Y-146943685D02*
X98125938Y-147800828D01*
X98125938Y-147800828D02*
X99054510Y-147800828D01*
X99983081Y-146300828D02*
X100125938Y-146300828D01*
X100125938Y-146300828D02*
X100268795Y-146372257D01*
X100268795Y-146372257D02*
X100340224Y-146443685D01*
X100340224Y-146443685D02*
X100411652Y-146586542D01*
X100411652Y-146586542D02*
X100483081Y-146872257D01*
X100483081Y-146872257D02*
X100483081Y-147229400D01*
X100483081Y-147229400D02*
X100411652Y-147515114D01*
X100411652Y-147515114D02*
X100340224Y-147657971D01*
X100340224Y-147657971D02*
X100268795Y-147729400D01*
X100268795Y-147729400D02*
X100125938Y-147800828D01*
X100125938Y-147800828D02*
X99983081Y-147800828D01*
X99983081Y-147800828D02*
X99840224Y-147729400D01*
X99840224Y-147729400D02*
X99768795Y-147657971D01*
X99768795Y-147657971D02*
X99697366Y-147515114D01*
X99697366Y-147515114D02*
X99625938Y-147229400D01*
X99625938Y-147229400D02*
X99625938Y-146872257D01*
X99625938Y-146872257D02*
X99697366Y-146586542D01*
X99697366Y-146586542D02*
X99768795Y-146443685D01*
X99768795Y-146443685D02*
X99840224Y-146372257D01*
X99840224Y-146372257D02*
X99983081Y-146300828D01*
X101054509Y-146443685D02*
X101125937Y-146372257D01*
X101125937Y-146372257D02*
X101268795Y-146300828D01*
X101268795Y-146300828D02*
X101625937Y-146300828D01*
X101625937Y-146300828D02*
X101768795Y-146372257D01*
X101768795Y-146372257D02*
X101840223Y-146443685D01*
X101840223Y-146443685D02*
X101911652Y-146586542D01*
X101911652Y-146586542D02*
X101911652Y-146729400D01*
X101911652Y-146729400D02*
X101840223Y-146943685D01*
X101840223Y-146943685D02*
X100983080Y-147800828D01*
X100983080Y-147800828D02*
X101911652Y-147800828D01*
X103268794Y-146300828D02*
X102554508Y-146300828D01*
X102554508Y-146300828D02*
X102483080Y-147015114D01*
X102483080Y-147015114D02*
X102554508Y-146943685D01*
X102554508Y-146943685D02*
X102697366Y-146872257D01*
X102697366Y-146872257D02*
X103054508Y-146872257D01*
X103054508Y-146872257D02*
X103197366Y-146943685D01*
X103197366Y-146943685D02*
X103268794Y-147015114D01*
X103268794Y-147015114D02*
X103340223Y-147157971D01*
X103340223Y-147157971D02*
X103340223Y-147515114D01*
X103340223Y-147515114D02*
X103268794Y-147657971D01*
X103268794Y-147657971D02*
X103197366Y-147729400D01*
X103197366Y-147729400D02*
X103054508Y-147800828D01*
X103054508Y-147800828D02*
X102697366Y-147800828D01*
X102697366Y-147800828D02*
X102554508Y-147729400D01*
X102554508Y-147729400D02*
X102483080Y-147657971D01*
D10*
X137609021Y-70958800D02*
X139894736Y-70958800D01*
D14*
X103452219Y-82166666D02*
X102976028Y-82499999D01*
X103452219Y-82738094D02*
X102452219Y-82738094D01*
X102452219Y-82738094D02*
X102452219Y-82357142D01*
X102452219Y-82357142D02*
X102499838Y-82261904D01*
X102499838Y-82261904D02*
X102547457Y-82214285D01*
X102547457Y-82214285D02*
X102642695Y-82166666D01*
X102642695Y-82166666D02*
X102785552Y-82166666D01*
X102785552Y-82166666D02*
X102880790Y-82214285D01*
X102880790Y-82214285D02*
X102928409Y-82261904D01*
X102928409Y-82261904D02*
X102976028Y-82357142D01*
X102976028Y-82357142D02*
X102976028Y-82738094D01*
X102452219Y-81833332D02*
X102452219Y-81214285D01*
X102452219Y-81214285D02*
X102833171Y-81547618D01*
X102833171Y-81547618D02*
X102833171Y-81404761D01*
X102833171Y-81404761D02*
X102880790Y-81309523D01*
X102880790Y-81309523D02*
X102928409Y-81261904D01*
X102928409Y-81261904D02*
X103023647Y-81214285D01*
X103023647Y-81214285D02*
X103261742Y-81214285D01*
X103261742Y-81214285D02*
X103356980Y-81261904D01*
X103356980Y-81261904D02*
X103404600Y-81309523D01*
X103404600Y-81309523D02*
X103452219Y-81404761D01*
X103452219Y-81404761D02*
X103452219Y-81690475D01*
X103452219Y-81690475D02*
X103404600Y-81785713D01*
X103404600Y-81785713D02*
X103356980Y-81833332D01*
D15*
X210904269Y-69772848D02*
X211644498Y-69772848D01*
X211644498Y-69772848D02*
X211731584Y-69729305D01*
X211731584Y-69729305D02*
X211775127Y-69685763D01*
X211775127Y-69685763D02*
X211818669Y-69598677D01*
X211818669Y-69598677D02*
X211818669Y-69424505D01*
X211818669Y-69424505D02*
X211775127Y-69337420D01*
X211775127Y-69337420D02*
X211731584Y-69293877D01*
X211731584Y-69293877D02*
X211644498Y-69250334D01*
X211644498Y-69250334D02*
X210904269Y-69250334D01*
X211818669Y-68335934D02*
X211818669Y-68858448D01*
X211818669Y-68597191D02*
X210904269Y-68597191D01*
X210904269Y-68597191D02*
X211034898Y-68684277D01*
X211034898Y-68684277D02*
X211121984Y-68771362D01*
X211121984Y-68771362D02*
X211165527Y-68858448D01*
D16*
X211265913Y-75787337D02*
X210065913Y-76187337D01*
X210065913Y-76187337D02*
X211265913Y-76587337D01*
X210065913Y-76987337D02*
X211265913Y-76987337D01*
X210065913Y-77558766D02*
X211265913Y-77558766D01*
X211265913Y-77558766D02*
X210065913Y-78244480D01*
X210065913Y-78244480D02*
X211265913Y-78244480D01*
D17*
X181580395Y-66706898D02*
X181523252Y-66878326D01*
X181523252Y-66878326D02*
X181466109Y-66935469D01*
X181466109Y-66935469D02*
X181351824Y-66992612D01*
X181351824Y-66992612D02*
X181180395Y-66992612D01*
X181180395Y-66992612D02*
X181066109Y-66935469D01*
X181066109Y-66935469D02*
X181008967Y-66878326D01*
X181008967Y-66878326D02*
X180951824Y-66764041D01*
X180951824Y-66764041D02*
X180951824Y-66306898D01*
X180951824Y-66306898D02*
X182151824Y-66306898D01*
X182151824Y-66306898D02*
X182151824Y-66706898D01*
X182151824Y-66706898D02*
X182094681Y-66821184D01*
X182094681Y-66821184D02*
X182037538Y-66878326D01*
X182037538Y-66878326D02*
X181923252Y-66935469D01*
X181923252Y-66935469D02*
X181808967Y-66935469D01*
X181808967Y-66935469D02*
X181694681Y-66878326D01*
X181694681Y-66878326D02*
X181637538Y-66821184D01*
X181637538Y-66821184D02*
X181580395Y-66706898D01*
X181580395Y-66706898D02*
X181580395Y-66306898D01*
X181294681Y-67449755D02*
X181294681Y-68021184D01*
X180951824Y-67335469D02*
X182151824Y-67735469D01*
X182151824Y-67735469D02*
X180951824Y-68135469D01*
X182151824Y-68364040D02*
X182151824Y-69049755D01*
X180951824Y-68706897D02*
X182151824Y-68706897D01*
X182094681Y-71380469D02*
X182151824Y-71266184D01*
X182151824Y-71266184D02*
X182151824Y-71094755D01*
X182151824Y-71094755D02*
X182094681Y-70923326D01*
X182094681Y-70923326D02*
X181980395Y-70809041D01*
X181980395Y-70809041D02*
X181866109Y-70751898D01*
X181866109Y-70751898D02*
X181637538Y-70694755D01*
X181637538Y-70694755D02*
X181466109Y-70694755D01*
X181466109Y-70694755D02*
X181237538Y-70751898D01*
X181237538Y-70751898D02*
X181123252Y-70809041D01*
X181123252Y-70809041D02*
X181008967Y-70923326D01*
X181008967Y-70923326D02*
X180951824Y-71094755D01*
X180951824Y-71094755D02*
X180951824Y-71209041D01*
X180951824Y-71209041D02*
X181008967Y-71380469D01*
X181008967Y-71380469D02*
X181066109Y-71437612D01*
X181066109Y-71437612D02*
X181466109Y-71437612D01*
X181466109Y-71437612D02*
X181466109Y-71209041D01*
X180951824Y-71951898D02*
X182151824Y-71951898D01*
X182151824Y-71951898D02*
X180951824Y-72637612D01*
X180951824Y-72637612D02*
X182151824Y-72637612D01*
X180951824Y-73209041D02*
X182151824Y-73209041D01*
X182151824Y-73209041D02*
X182151824Y-73494755D01*
X182151824Y-73494755D02*
X182094681Y-73666184D01*
X182094681Y-73666184D02*
X181980395Y-73780469D01*
X181980395Y-73780469D02*
X181866109Y-73837612D01*
X181866109Y-73837612D02*
X181637538Y-73894755D01*
X181637538Y-73894755D02*
X181466109Y-73894755D01*
X181466109Y-73894755D02*
X181237538Y-73837612D01*
X181237538Y-73837612D02*
X181123252Y-73780469D01*
X181123252Y-73780469D02*
X181008967Y-73666184D01*
X181008967Y-73666184D02*
X180951824Y-73494755D01*
X180951824Y-73494755D02*
X180951824Y-73209041D01*
X211335781Y-62490469D02*
X211392924Y-62376184D01*
X211392924Y-62376184D02*
X211392924Y-62204755D01*
X211392924Y-62204755D02*
X211335781Y-62033326D01*
X211335781Y-62033326D02*
X211221495Y-61919041D01*
X211221495Y-61919041D02*
X211107209Y-61861898D01*
X211107209Y-61861898D02*
X210878638Y-61804755D01*
X210878638Y-61804755D02*
X210707209Y-61804755D01*
X210707209Y-61804755D02*
X210478638Y-61861898D01*
X210478638Y-61861898D02*
X210364352Y-61919041D01*
X210364352Y-61919041D02*
X210250067Y-62033326D01*
X210250067Y-62033326D02*
X210192924Y-62204755D01*
X210192924Y-62204755D02*
X210192924Y-62319041D01*
X210192924Y-62319041D02*
X210250067Y-62490469D01*
X210250067Y-62490469D02*
X210307209Y-62547612D01*
X210307209Y-62547612D02*
X210707209Y-62547612D01*
X210707209Y-62547612D02*
X210707209Y-62319041D01*
X210192924Y-63061898D02*
X211392924Y-63061898D01*
X211392924Y-63061898D02*
X210192924Y-63747612D01*
X210192924Y-63747612D02*
X211392924Y-63747612D01*
X210192924Y-64319041D02*
X211392924Y-64319041D01*
X211392924Y-64319041D02*
X211392924Y-64604755D01*
X211392924Y-64604755D02*
X211335781Y-64776184D01*
X211335781Y-64776184D02*
X211221495Y-64890469D01*
X211221495Y-64890469D02*
X211107209Y-64947612D01*
X211107209Y-64947612D02*
X210878638Y-65004755D01*
X210878638Y-65004755D02*
X210707209Y-65004755D01*
X210707209Y-65004755D02*
X210478638Y-64947612D01*
X210478638Y-64947612D02*
X210364352Y-64890469D01*
X210364352Y-64890469D02*
X210250067Y-64776184D01*
X210250067Y-64776184D02*
X210192924Y-64604755D01*
X210192924Y-64604755D02*
X210192924Y-64319041D01*
D18*
X115771009Y-102785714D02*
X115818628Y-102642857D01*
X115818628Y-102642857D02*
X115866247Y-102595238D01*
X115866247Y-102595238D02*
X115961485Y-102547619D01*
X115961485Y-102547619D02*
X116104342Y-102547619D01*
X116104342Y-102547619D02*
X116199580Y-102595238D01*
X116199580Y-102595238D02*
X116247200Y-102642857D01*
X116247200Y-102642857D02*
X116294819Y-102738095D01*
X116294819Y-102738095D02*
X116294819Y-103119047D01*
X116294819Y-103119047D02*
X115294819Y-103119047D01*
X115294819Y-103119047D02*
X115294819Y-102785714D01*
X115294819Y-102785714D02*
X115342438Y-102690476D01*
X115342438Y-102690476D02*
X115390057Y-102642857D01*
X115390057Y-102642857D02*
X115485295Y-102595238D01*
X115485295Y-102595238D02*
X115580533Y-102595238D01*
X115580533Y-102595238D02*
X115675771Y-102642857D01*
X115675771Y-102642857D02*
X115723390Y-102690476D01*
X115723390Y-102690476D02*
X115771009Y-102785714D01*
X115771009Y-102785714D02*
X115771009Y-103119047D01*
X115294819Y-102261904D02*
X115294819Y-101690476D01*
X116294819Y-101976190D02*
X115294819Y-101976190D01*
X115294819Y-101452380D02*
X115294819Y-100833333D01*
X115294819Y-100833333D02*
X115675771Y-101166666D01*
X115675771Y-101166666D02*
X115675771Y-101023809D01*
X115675771Y-101023809D02*
X115723390Y-100928571D01*
X115723390Y-100928571D02*
X115771009Y-100880952D01*
X115771009Y-100880952D02*
X115866247Y-100833333D01*
X115866247Y-100833333D02*
X116104342Y-100833333D01*
X116104342Y-100833333D02*
X116199580Y-100880952D01*
X116199580Y-100880952D02*
X116247200Y-100928571D01*
X116247200Y-100928571D02*
X116294819Y-101023809D01*
X116294819Y-101023809D02*
X116294819Y-101309523D01*
X116294819Y-101309523D02*
X116247200Y-101404761D01*
X116247200Y-101404761D02*
X116199580Y-101452380D01*
D19*
X213066390Y-91666666D02*
X213066390Y-91333333D01*
X212542580Y-91333333D02*
X213542580Y-91333333D01*
X213542580Y-91333333D02*
X213542580Y-91809523D01*
X212542580Y-92714285D02*
X212542580Y-92142857D01*
X212542580Y-92428571D02*
X213542580Y-92428571D01*
X213542580Y-92428571D02*
X213399723Y-92333333D01*
X213399723Y-92333333D02*
X213304485Y-92238095D01*
X213304485Y-92238095D02*
X213256866Y-92142857D01*
D15*
X92035617Y-90682022D02*
X92775846Y-90682022D01*
X92775846Y-90682022D02*
X92862932Y-90638479D01*
X92862932Y-90638479D02*
X92906475Y-90594937D01*
X92906475Y-90594937D02*
X92950017Y-90507851D01*
X92950017Y-90507851D02*
X92950017Y-90333679D01*
X92950017Y-90333679D02*
X92906475Y-90246594D01*
X92906475Y-90246594D02*
X92862932Y-90203051D01*
X92862932Y-90203051D02*
X92775846Y-90159508D01*
X92775846Y-90159508D02*
X92035617Y-90159508D01*
X92122703Y-89767622D02*
X92079160Y-89724079D01*
X92079160Y-89724079D02*
X92035617Y-89636994D01*
X92035617Y-89636994D02*
X92035617Y-89419279D01*
X92035617Y-89419279D02*
X92079160Y-89332194D01*
X92079160Y-89332194D02*
X92122703Y-89288651D01*
X92122703Y-89288651D02*
X92209789Y-89245108D01*
X92209789Y-89245108D02*
X92296875Y-89245108D01*
X92296875Y-89245108D02*
X92427503Y-89288651D01*
X92427503Y-89288651D02*
X92950017Y-89811165D01*
X92950017Y-89811165D02*
X92950017Y-89245108D01*
D10*
X99611657Y-114962406D02*
X99611657Y-116390978D01*
X99611657Y-116390978D02*
X96611657Y-116390978D01*
X99611657Y-113962407D02*
X96611657Y-113962407D01*
X96611657Y-113962407D02*
X98754514Y-112962407D01*
X98754514Y-112962407D02*
X96611657Y-111962407D01*
X96611657Y-111962407D02*
X99611657Y-111962407D01*
X96611657Y-110819550D02*
X96611657Y-108962407D01*
X96611657Y-108962407D02*
X97754514Y-109962407D01*
X97754514Y-109962407D02*
X97754514Y-109533836D01*
X97754514Y-109533836D02*
X97897371Y-109248122D01*
X97897371Y-109248122D02*
X98040228Y-109105264D01*
X98040228Y-109105264D02*
X98325942Y-108962407D01*
X98325942Y-108962407D02*
X99040228Y-108962407D01*
X99040228Y-108962407D02*
X99325942Y-109105264D01*
X99325942Y-109105264D02*
X99468800Y-109248122D01*
X99468800Y-109248122D02*
X99611657Y-109533836D01*
X99611657Y-109533836D02*
X99611657Y-110390979D01*
X99611657Y-110390979D02*
X99468800Y-110676693D01*
X99468800Y-110676693D02*
X99325942Y-110819550D01*
X97897371Y-107248121D02*
X97754514Y-107533836D01*
X97754514Y-107533836D02*
X97611657Y-107676693D01*
X97611657Y-107676693D02*
X97325942Y-107819550D01*
X97325942Y-107819550D02*
X97183085Y-107819550D01*
X97183085Y-107819550D02*
X96897371Y-107676693D01*
X96897371Y-107676693D02*
X96754514Y-107533836D01*
X96754514Y-107533836D02*
X96611657Y-107248121D01*
X96611657Y-107248121D02*
X96611657Y-106676693D01*
X96611657Y-106676693D02*
X96754514Y-106390979D01*
X96754514Y-106390979D02*
X96897371Y-106248121D01*
X96897371Y-106248121D02*
X97183085Y-106105264D01*
X97183085Y-106105264D02*
X97325942Y-106105264D01*
X97325942Y-106105264D02*
X97611657Y-106248121D01*
X97611657Y-106248121D02*
X97754514Y-106390979D01*
X97754514Y-106390979D02*
X97897371Y-106676693D01*
X97897371Y-106676693D02*
X97897371Y-107248121D01*
X97897371Y-107248121D02*
X98040228Y-107533836D01*
X98040228Y-107533836D02*
X98183085Y-107676693D01*
X98183085Y-107676693D02*
X98468800Y-107819550D01*
X98468800Y-107819550D02*
X99040228Y-107819550D01*
X99040228Y-107819550D02*
X99325942Y-107676693D01*
X99325942Y-107676693D02*
X99468800Y-107533836D01*
X99468800Y-107533836D02*
X99611657Y-107248121D01*
X99611657Y-107248121D02*
X99611657Y-106676693D01*
X99611657Y-106676693D02*
X99468800Y-106390979D01*
X99468800Y-106390979D02*
X99325942Y-106248121D01*
X99325942Y-106248121D02*
X99040228Y-106105264D01*
X99040228Y-106105264D02*
X98468800Y-106105264D01*
X98468800Y-106105264D02*
X98183085Y-106248121D01*
X98183085Y-106248121D02*
X98040228Y-106390979D01*
X98040228Y-106390979D02*
X97897371Y-106676693D01*
X96611657Y-103533836D02*
X96611657Y-104105264D01*
X96611657Y-104105264D02*
X96754514Y-104390978D01*
X96754514Y-104390978D02*
X96897371Y-104533836D01*
X96897371Y-104533836D02*
X97325942Y-104819550D01*
X97325942Y-104819550D02*
X97897371Y-104962407D01*
X97897371Y-104962407D02*
X99040228Y-104962407D01*
X99040228Y-104962407D02*
X99325942Y-104819550D01*
X99325942Y-104819550D02*
X99468800Y-104676693D01*
X99468800Y-104676693D02*
X99611657Y-104390978D01*
X99611657Y-104390978D02*
X99611657Y-103819550D01*
X99611657Y-103819550D02*
X99468800Y-103533836D01*
X99468800Y-103533836D02*
X99325942Y-103390978D01*
X99325942Y-103390978D02*
X99040228Y-103248121D01*
X99040228Y-103248121D02*
X98325942Y-103248121D01*
X98325942Y-103248121D02*
X98040228Y-103390978D01*
X98040228Y-103390978D02*
X97897371Y-103533836D01*
X97897371Y-103533836D02*
X97754514Y-103819550D01*
X97754514Y-103819550D02*
X97754514Y-104390978D01*
X97754514Y-104390978D02*
X97897371Y-104676693D01*
X97897371Y-104676693D02*
X98040228Y-104819550D01*
X98040228Y-104819550D02*
X98325942Y-104962407D01*
D17*
X96695718Y-94230130D02*
X96638575Y-94344416D01*
X96638575Y-94344416D02*
X96638575Y-94515844D01*
X96638575Y-94515844D02*
X96695718Y-94687273D01*
X96695718Y-94687273D02*
X96810004Y-94801558D01*
X96810004Y-94801558D02*
X96924290Y-94858701D01*
X96924290Y-94858701D02*
X97152861Y-94915844D01*
X97152861Y-94915844D02*
X97324290Y-94915844D01*
X97324290Y-94915844D02*
X97552861Y-94858701D01*
X97552861Y-94858701D02*
X97667147Y-94801558D01*
X97667147Y-94801558D02*
X97781433Y-94687273D01*
X97781433Y-94687273D02*
X97838575Y-94515844D01*
X97838575Y-94515844D02*
X97838575Y-94401558D01*
X97838575Y-94401558D02*
X97781433Y-94230130D01*
X97781433Y-94230130D02*
X97724290Y-94172987D01*
X97724290Y-94172987D02*
X97324290Y-94172987D01*
X97324290Y-94172987D02*
X97324290Y-94401558D01*
X97838575Y-93658701D02*
X96638575Y-93658701D01*
X96638575Y-93658701D02*
X97838575Y-92972987D01*
X97838575Y-92972987D02*
X96638575Y-92972987D01*
X97838575Y-92401558D02*
X96638575Y-92401558D01*
X96638575Y-92401558D02*
X96638575Y-92115844D01*
X96638575Y-92115844D02*
X96695718Y-91944415D01*
X96695718Y-91944415D02*
X96810004Y-91830130D01*
X96810004Y-91830130D02*
X96924290Y-91772987D01*
X96924290Y-91772987D02*
X97152861Y-91715844D01*
X97152861Y-91715844D02*
X97324290Y-91715844D01*
X97324290Y-91715844D02*
X97552861Y-91772987D01*
X97552861Y-91772987D02*
X97667147Y-91830130D01*
X97667147Y-91830130D02*
X97781433Y-91944415D01*
X97781433Y-91944415D02*
X97838575Y-92115844D01*
X97838575Y-92115844D02*
X97838575Y-92401558D01*
D14*
X93695885Y-94232236D02*
X93638742Y-94346522D01*
X93638742Y-94346522D02*
X93638742Y-94517950D01*
X93638742Y-94517950D02*
X93695885Y-94689379D01*
X93695885Y-94689379D02*
X93810171Y-94803664D01*
X93810171Y-94803664D02*
X93924457Y-94860807D01*
X93924457Y-94860807D02*
X94153028Y-94917950D01*
X94153028Y-94917950D02*
X94324457Y-94917950D01*
X94324457Y-94917950D02*
X94553028Y-94860807D01*
X94553028Y-94860807D02*
X94667314Y-94803664D01*
X94667314Y-94803664D02*
X94781600Y-94689379D01*
X94781600Y-94689379D02*
X94838742Y-94517950D01*
X94838742Y-94517950D02*
X94838742Y-94403664D01*
X94838742Y-94403664D02*
X94781600Y-94232236D01*
X94781600Y-94232236D02*
X94724457Y-94175093D01*
X94724457Y-94175093D02*
X94324457Y-94175093D01*
X94324457Y-94175093D02*
X94324457Y-94403664D01*
X94838742Y-93660807D02*
X93638742Y-93660807D01*
X93638742Y-93660807D02*
X94838742Y-92975093D01*
X94838742Y-92975093D02*
X93638742Y-92975093D01*
X94838742Y-92403664D02*
X93638742Y-92403664D01*
X93638742Y-92403664D02*
X93638742Y-92117950D01*
X93638742Y-92117950D02*
X93695885Y-91946521D01*
X93695885Y-91946521D02*
X93810171Y-91832236D01*
X93810171Y-91832236D02*
X93924457Y-91775093D01*
X93924457Y-91775093D02*
X94153028Y-91717950D01*
X94153028Y-91717950D02*
X94324457Y-91717950D01*
X94324457Y-91717950D02*
X94553028Y-91775093D01*
X94553028Y-91775093D02*
X94667314Y-91832236D01*
X94667314Y-91832236D02*
X94781600Y-91946521D01*
X94781600Y-91946521D02*
X94838742Y-92117950D01*
X94838742Y-92117950D02*
X94838742Y-92403664D01*
D17*
X102138575Y-93287273D02*
X102138575Y-93858701D01*
X102138575Y-93858701D02*
X102710004Y-93915844D01*
X102710004Y-93915844D02*
X102652861Y-93858701D01*
X102652861Y-93858701D02*
X102595718Y-93744416D01*
X102595718Y-93744416D02*
X102595718Y-93458701D01*
X102595718Y-93458701D02*
X102652861Y-93344416D01*
X102652861Y-93344416D02*
X102710004Y-93287273D01*
X102710004Y-93287273D02*
X102824290Y-93230130D01*
X102824290Y-93230130D02*
X103110004Y-93230130D01*
X103110004Y-93230130D02*
X103224290Y-93287273D01*
X103224290Y-93287273D02*
X103281433Y-93344416D01*
X103281433Y-93344416D02*
X103338575Y-93458701D01*
X103338575Y-93458701D02*
X103338575Y-93744416D01*
X103338575Y-93744416D02*
X103281433Y-93858701D01*
X103281433Y-93858701D02*
X103224290Y-93915844D01*
X102138575Y-92887273D02*
X103338575Y-92487273D01*
X103338575Y-92487273D02*
X102138575Y-92087273D01*
X100629052Y-95906320D02*
X99629052Y-95906320D01*
X100629052Y-95430130D02*
X99629052Y-95430130D01*
X99629052Y-95430130D02*
X100629052Y-94858702D01*
X100629052Y-94858702D02*
X99629052Y-94858702D01*
X100629052Y-94382511D02*
X99629052Y-94382511D01*
X99629052Y-94382511D02*
X99629052Y-94001559D01*
X99629052Y-94001559D02*
X99676671Y-93906321D01*
X99676671Y-93906321D02*
X99724290Y-93858702D01*
X99724290Y-93858702D02*
X99819528Y-93811083D01*
X99819528Y-93811083D02*
X99962385Y-93811083D01*
X99962385Y-93811083D02*
X100057623Y-93858702D01*
X100057623Y-93858702D02*
X100105242Y-93906321D01*
X100105242Y-93906321D02*
X100152861Y-94001559D01*
X100152861Y-94001559D02*
X100152861Y-94382511D01*
X99629052Y-93382511D02*
X100438575Y-93382511D01*
X100438575Y-93382511D02*
X100533813Y-93334892D01*
X100533813Y-93334892D02*
X100581433Y-93287273D01*
X100581433Y-93287273D02*
X100629052Y-93192035D01*
X100629052Y-93192035D02*
X100629052Y-93001559D01*
X100629052Y-93001559D02*
X100581433Y-92906321D01*
X100581433Y-92906321D02*
X100533813Y-92858702D01*
X100533813Y-92858702D02*
X100438575Y-92811083D01*
X100438575Y-92811083D02*
X99629052Y-92811083D01*
X99629052Y-92477749D02*
X99629052Y-91906321D01*
X100629052Y-92192035D02*
X99629052Y-92192035D01*
D14*
X94452219Y-77166666D02*
X93976028Y-77499999D01*
X94452219Y-77738094D02*
X93452219Y-77738094D01*
X93452219Y-77738094D02*
X93452219Y-77357142D01*
X93452219Y-77357142D02*
X93499838Y-77261904D01*
X93499838Y-77261904D02*
X93547457Y-77214285D01*
X93547457Y-77214285D02*
X93642695Y-77166666D01*
X93642695Y-77166666D02*
X93785552Y-77166666D01*
X93785552Y-77166666D02*
X93880790Y-77214285D01*
X93880790Y-77214285D02*
X93928409Y-77261904D01*
X93928409Y-77261904D02*
X93976028Y-77357142D01*
X93976028Y-77357142D02*
X93976028Y-77738094D01*
X93547457Y-76785713D02*
X93499838Y-76738094D01*
X93499838Y-76738094D02*
X93452219Y-76642856D01*
X93452219Y-76642856D02*
X93452219Y-76404761D01*
X93452219Y-76404761D02*
X93499838Y-76309523D01*
X93499838Y-76309523D02*
X93547457Y-76261904D01*
X93547457Y-76261904D02*
X93642695Y-76214285D01*
X93642695Y-76214285D02*
X93737933Y-76214285D01*
X93737933Y-76214285D02*
X93880790Y-76261904D01*
X93880790Y-76261904D02*
X94452219Y-76833332D01*
X94452219Y-76833332D02*
X94452219Y-76214285D01*
X103452219Y-77166666D02*
X102976028Y-77499999D01*
X103452219Y-77738094D02*
X102452219Y-77738094D01*
X102452219Y-77738094D02*
X102452219Y-77357142D01*
X102452219Y-77357142D02*
X102499838Y-77261904D01*
X102499838Y-77261904D02*
X102547457Y-77214285D01*
X102547457Y-77214285D02*
X102642695Y-77166666D01*
X102642695Y-77166666D02*
X102785552Y-77166666D01*
X102785552Y-77166666D02*
X102880790Y-77214285D01*
X102880790Y-77214285D02*
X102928409Y-77261904D01*
X102928409Y-77261904D02*
X102976028Y-77357142D01*
X102976028Y-77357142D02*
X102976028Y-77738094D01*
X103452219Y-76214285D02*
X103452219Y-76785713D01*
X103452219Y-76499999D02*
X102452219Y-76499999D01*
X102452219Y-76499999D02*
X102595076Y-76595237D01*
X102595076Y-76595237D02*
X102690314Y-76690475D01*
X102690314Y-76690475D02*
X102737933Y-76785713D01*
D15*
X174471046Y-90377222D02*
X174514589Y-90246594D01*
X174514589Y-90246594D02*
X174558132Y-90203051D01*
X174558132Y-90203051D02*
X174645217Y-90159508D01*
X174645217Y-90159508D02*
X174775846Y-90159508D01*
X174775846Y-90159508D02*
X174862932Y-90203051D01*
X174862932Y-90203051D02*
X174906475Y-90246594D01*
X174906475Y-90246594D02*
X174950017Y-90333679D01*
X174950017Y-90333679D02*
X174950017Y-90682022D01*
X174950017Y-90682022D02*
X174035617Y-90682022D01*
X174035617Y-90682022D02*
X174035617Y-90377222D01*
X174035617Y-90377222D02*
X174079160Y-90290137D01*
X174079160Y-90290137D02*
X174122703Y-90246594D01*
X174122703Y-90246594D02*
X174209789Y-90203051D01*
X174209789Y-90203051D02*
X174296875Y-90203051D01*
X174296875Y-90203051D02*
X174383960Y-90246594D01*
X174383960Y-90246594D02*
X174427503Y-90290137D01*
X174427503Y-90290137D02*
X174471046Y-90377222D01*
X174471046Y-90377222D02*
X174471046Y-90682022D01*
X174950017Y-89767622D02*
X174035617Y-89767622D01*
X174035617Y-89767622D02*
X174688760Y-89462822D01*
X174688760Y-89462822D02*
X174035617Y-89158022D01*
X174035617Y-89158022D02*
X174950017Y-89158022D01*
X174906475Y-88766136D02*
X174950017Y-88635508D01*
X174950017Y-88635508D02*
X174950017Y-88417793D01*
X174950017Y-88417793D02*
X174906475Y-88330708D01*
X174906475Y-88330708D02*
X174862932Y-88287165D01*
X174862932Y-88287165D02*
X174775846Y-88243622D01*
X174775846Y-88243622D02*
X174688760Y-88243622D01*
X174688760Y-88243622D02*
X174601675Y-88287165D01*
X174601675Y-88287165D02*
X174558132Y-88330708D01*
X174558132Y-88330708D02*
X174514589Y-88417793D01*
X174514589Y-88417793D02*
X174471046Y-88591965D01*
X174471046Y-88591965D02*
X174427503Y-88679050D01*
X174427503Y-88679050D02*
X174383960Y-88722593D01*
X174383960Y-88722593D02*
X174296875Y-88766136D01*
X174296875Y-88766136D02*
X174209789Y-88766136D01*
X174209789Y-88766136D02*
X174122703Y-88722593D01*
X174122703Y-88722593D02*
X174079160Y-88679050D01*
X174079160Y-88679050D02*
X174035617Y-88591965D01*
X174035617Y-88591965D02*
X174035617Y-88374250D01*
X174035617Y-88374250D02*
X174079160Y-88243622D01*
X174950017Y-87372765D02*
X174950017Y-87895279D01*
X174950017Y-87634022D02*
X174035617Y-87634022D01*
X174035617Y-87634022D02*
X174166246Y-87721108D01*
X174166246Y-87721108D02*
X174253332Y-87808193D01*
X174253332Y-87808193D02*
X174296875Y-87895279D01*
D17*
X186113566Y-93873268D02*
X186113566Y-92634716D01*
X189359928Y-96181039D02*
X189282518Y-96335858D01*
X189282518Y-96335858D02*
X189205109Y-96413268D01*
X189205109Y-96413268D02*
X189050290Y-96490677D01*
X189050290Y-96490677D02*
X188972880Y-96490677D01*
X188972880Y-96490677D02*
X188818061Y-96413268D01*
X188818061Y-96413268D02*
X188740652Y-96335858D01*
X188740652Y-96335858D02*
X188663242Y-96181039D01*
X188663242Y-96181039D02*
X188663242Y-95871401D01*
X188663242Y-95871401D02*
X188740652Y-95716582D01*
X188740652Y-95716582D02*
X188818061Y-95639173D01*
X188818061Y-95639173D02*
X188972880Y-95561763D01*
X188972880Y-95561763D02*
X189050290Y-95561763D01*
X189050290Y-95561763D02*
X189205109Y-95639173D01*
X189205109Y-95639173D02*
X189282518Y-95716582D01*
X189282518Y-95716582D02*
X189359928Y-95871401D01*
X189359928Y-95871401D02*
X189359928Y-96181039D01*
X189359928Y-96181039D02*
X189437337Y-96335858D01*
X189437337Y-96335858D02*
X189514747Y-96413268D01*
X189514747Y-96413268D02*
X189669566Y-96490677D01*
X189669566Y-96490677D02*
X189979204Y-96490677D01*
X189979204Y-96490677D02*
X190134023Y-96413268D01*
X190134023Y-96413268D02*
X190211433Y-96335858D01*
X190211433Y-96335858D02*
X190288842Y-96181039D01*
X190288842Y-96181039D02*
X190288842Y-95871401D01*
X190288842Y-95871401D02*
X190211433Y-95716582D01*
X190211433Y-95716582D02*
X190134023Y-95639173D01*
X190134023Y-95639173D02*
X189979204Y-95561763D01*
X189979204Y-95561763D02*
X189669566Y-95561763D01*
X189669566Y-95561763D02*
X189514747Y-95639173D01*
X189514747Y-95639173D02*
X189437337Y-95716582D01*
X189437337Y-95716582D02*
X189359928Y-95871401D01*
X190134023Y-94865078D02*
X190211433Y-94787668D01*
X190211433Y-94787668D02*
X190288842Y-94865078D01*
X190288842Y-94865078D02*
X190211433Y-94942487D01*
X190211433Y-94942487D02*
X190134023Y-94865078D01*
X190134023Y-94865078D02*
X190288842Y-94865078D01*
X189205109Y-93394297D02*
X190288842Y-93394297D01*
X188585833Y-93781345D02*
X189746975Y-94168392D01*
X189746975Y-94168392D02*
X189746975Y-93162069D01*
X188663242Y-92775021D02*
X190288842Y-92233155D01*
X190288842Y-92233155D02*
X188663242Y-91691288D01*
D10*
X183040228Y-129890978D02*
X183183085Y-129462406D01*
X183183085Y-129462406D02*
X183325942Y-129319549D01*
X183325942Y-129319549D02*
X183611657Y-129176692D01*
X183611657Y-129176692D02*
X184040228Y-129176692D01*
X184040228Y-129176692D02*
X184325942Y-129319549D01*
X184325942Y-129319549D02*
X184468800Y-129462406D01*
X184468800Y-129462406D02*
X184611657Y-129748121D01*
X184611657Y-129748121D02*
X184611657Y-130890978D01*
X184611657Y-130890978D02*
X181611657Y-130890978D01*
X181611657Y-130890978D02*
X181611657Y-129890978D01*
X181611657Y-129890978D02*
X181754514Y-129605264D01*
X181754514Y-129605264D02*
X181897371Y-129462406D01*
X181897371Y-129462406D02*
X182183085Y-129319549D01*
X182183085Y-129319549D02*
X182468800Y-129319549D01*
X182468800Y-129319549D02*
X182754514Y-129462406D01*
X182754514Y-129462406D02*
X182897371Y-129605264D01*
X182897371Y-129605264D02*
X183040228Y-129890978D01*
X183040228Y-129890978D02*
X183040228Y-130890978D01*
X184611657Y-127890978D02*
X181611657Y-127890978D01*
X181611657Y-127890978D02*
X183754514Y-126890978D01*
X183754514Y-126890978D02*
X181611657Y-125890978D01*
X181611657Y-125890978D02*
X184611657Y-125890978D01*
X184468800Y-124605264D02*
X184611657Y-124176693D01*
X184611657Y-124176693D02*
X184611657Y-123462407D01*
X184611657Y-123462407D02*
X184468800Y-123176693D01*
X184468800Y-123176693D02*
X184325942Y-123033835D01*
X184325942Y-123033835D02*
X184040228Y-122890978D01*
X184040228Y-122890978D02*
X183754514Y-122890978D01*
X183754514Y-122890978D02*
X183468800Y-123033835D01*
X183468800Y-123033835D02*
X183325942Y-123176693D01*
X183325942Y-123176693D02*
X183183085Y-123462407D01*
X183183085Y-123462407D02*
X183040228Y-124033835D01*
X183040228Y-124033835D02*
X182897371Y-124319550D01*
X182897371Y-124319550D02*
X182754514Y-124462407D01*
X182754514Y-124462407D02*
X182468800Y-124605264D01*
X182468800Y-124605264D02*
X182183085Y-124605264D01*
X182183085Y-124605264D02*
X181897371Y-124462407D01*
X181897371Y-124462407D02*
X181754514Y-124319550D01*
X181754514Y-124319550D02*
X181611657Y-124033835D01*
X181611657Y-124033835D02*
X181611657Y-123319550D01*
X181611657Y-123319550D02*
X181754514Y-122890978D01*
X181611657Y-119605264D02*
X181611657Y-117748121D01*
X181611657Y-117748121D02*
X182754514Y-118748121D01*
X182754514Y-118748121D02*
X182754514Y-118319550D01*
X182754514Y-118319550D02*
X182897371Y-118033836D01*
X182897371Y-118033836D02*
X183040228Y-117890978D01*
X183040228Y-117890978D02*
X183325942Y-117748121D01*
X183325942Y-117748121D02*
X184040228Y-117748121D01*
X184040228Y-117748121D02*
X184325942Y-117890978D01*
X184325942Y-117890978D02*
X184468800Y-118033836D01*
X184468800Y-118033836D02*
X184611657Y-118319550D01*
X184611657Y-118319550D02*
X184611657Y-119176693D01*
X184611657Y-119176693D02*
X184468800Y-119462407D01*
X184468800Y-119462407D02*
X184325942Y-119605264D01*
X184468800Y-116605264D02*
X184611657Y-116176693D01*
X184611657Y-116176693D02*
X184611657Y-115462407D01*
X184611657Y-115462407D02*
X184468800Y-115176693D01*
X184468800Y-115176693D02*
X184325942Y-115033835D01*
X184325942Y-115033835D02*
X184040228Y-114890978D01*
X184040228Y-114890978D02*
X183754514Y-114890978D01*
X183754514Y-114890978D02*
X183468800Y-115033835D01*
X183468800Y-115033835D02*
X183325942Y-115176693D01*
X183325942Y-115176693D02*
X183183085Y-115462407D01*
X183183085Y-115462407D02*
X183040228Y-116033835D01*
X183040228Y-116033835D02*
X182897371Y-116319550D01*
X182897371Y-116319550D02*
X182754514Y-116462407D01*
X182754514Y-116462407D02*
X182468800Y-116605264D01*
X182468800Y-116605264D02*
X182183085Y-116605264D01*
X182183085Y-116605264D02*
X181897371Y-116462407D01*
X181897371Y-116462407D02*
X181754514Y-116319550D01*
X181754514Y-116319550D02*
X181611657Y-116033835D01*
X181611657Y-116033835D02*
X181611657Y-115319550D01*
X181611657Y-115319550D02*
X181754514Y-114890978D01*
X181897371Y-111462407D02*
X181754514Y-111319550D01*
X181754514Y-111319550D02*
X181611657Y-111033836D01*
X181611657Y-111033836D02*
X181611657Y-110319550D01*
X181611657Y-110319550D02*
X181754514Y-110033836D01*
X181754514Y-110033836D02*
X181897371Y-109890978D01*
X181897371Y-109890978D02*
X182183085Y-109748121D01*
X182183085Y-109748121D02*
X182468800Y-109748121D01*
X182468800Y-109748121D02*
X182897371Y-109890978D01*
X182897371Y-109890978D02*
X184611657Y-111605264D01*
X184611657Y-111605264D02*
X184611657Y-109748121D01*
X181611657Y-107890978D02*
X181611657Y-107605264D01*
X181611657Y-107605264D02*
X181754514Y-107319550D01*
X181754514Y-107319550D02*
X181897371Y-107176693D01*
X181897371Y-107176693D02*
X182183085Y-107033835D01*
X182183085Y-107033835D02*
X182754514Y-106890978D01*
X182754514Y-106890978D02*
X183468800Y-106890978D01*
X183468800Y-106890978D02*
X184040228Y-107033835D01*
X184040228Y-107033835D02*
X184325942Y-107176693D01*
X184325942Y-107176693D02*
X184468800Y-107319550D01*
X184468800Y-107319550D02*
X184611657Y-107605264D01*
X184611657Y-107605264D02*
X184611657Y-107890978D01*
X184611657Y-107890978D02*
X184468800Y-108176693D01*
X184468800Y-108176693D02*
X184325942Y-108319550D01*
X184325942Y-108319550D02*
X184040228Y-108462407D01*
X184040228Y-108462407D02*
X183468800Y-108605264D01*
X183468800Y-108605264D02*
X182754514Y-108605264D01*
X182754514Y-108605264D02*
X182183085Y-108462407D01*
X182183085Y-108462407D02*
X181897371Y-108319550D01*
X181897371Y-108319550D02*
X181754514Y-108176693D01*
X181754514Y-108176693D02*
X181611657Y-107890978D01*
X183754514Y-105748121D02*
X183754514Y-104319550D01*
X184611657Y-106033835D02*
X181611657Y-105033835D01*
X181611657Y-105033835D02*
X184611657Y-104033835D01*
D17*
X178096842Y-96577763D02*
X178096842Y-97506677D01*
X178096842Y-97042220D02*
X176471242Y-97042220D01*
X176471242Y-97042220D02*
X176703471Y-97197039D01*
X176703471Y-97197039D02*
X176858290Y-97351858D01*
X176858290Y-97351858D02*
X176935699Y-97506677D01*
X176626061Y-95958487D02*
X176548652Y-95881078D01*
X176548652Y-95881078D02*
X176471242Y-95726259D01*
X176471242Y-95726259D02*
X176471242Y-95339211D01*
X176471242Y-95339211D02*
X176548652Y-95184392D01*
X176548652Y-95184392D02*
X176626061Y-95106983D01*
X176626061Y-95106983D02*
X176780880Y-95029573D01*
X176780880Y-95029573D02*
X176935699Y-95029573D01*
X176935699Y-95029573D02*
X177167928Y-95106983D01*
X177167928Y-95106983D02*
X178096842Y-96035897D01*
X178096842Y-96035897D02*
X178096842Y-95029573D01*
X177942023Y-94332888D02*
X178019433Y-94255478D01*
X178019433Y-94255478D02*
X178096842Y-94332888D01*
X178096842Y-94332888D02*
X178019433Y-94410297D01*
X178019433Y-94410297D02*
X177942023Y-94332888D01*
X177942023Y-94332888D02*
X178096842Y-94332888D01*
X176471242Y-92862107D02*
X176471242Y-93171745D01*
X176471242Y-93171745D02*
X176548652Y-93326564D01*
X176548652Y-93326564D02*
X176626061Y-93403974D01*
X176626061Y-93403974D02*
X176858290Y-93558793D01*
X176858290Y-93558793D02*
X177167928Y-93636202D01*
X177167928Y-93636202D02*
X177787204Y-93636202D01*
X177787204Y-93636202D02*
X177942023Y-93558793D01*
X177942023Y-93558793D02*
X178019433Y-93481383D01*
X178019433Y-93481383D02*
X178096842Y-93326564D01*
X178096842Y-93326564D02*
X178096842Y-93016926D01*
X178096842Y-93016926D02*
X178019433Y-92862107D01*
X178019433Y-92862107D02*
X177942023Y-92784698D01*
X177942023Y-92784698D02*
X177787204Y-92707288D01*
X177787204Y-92707288D02*
X177400156Y-92707288D01*
X177400156Y-92707288D02*
X177245337Y-92784698D01*
X177245337Y-92784698D02*
X177167928Y-92862107D01*
X177167928Y-92862107D02*
X177090518Y-93016926D01*
X177090518Y-93016926D02*
X177090518Y-93326564D01*
X177090518Y-93326564D02*
X177167928Y-93481383D01*
X177167928Y-93481383D02*
X177245337Y-93558793D01*
X177245337Y-93558793D02*
X177400156Y-93636202D01*
X176471242Y-92242831D02*
X178096842Y-91700965D01*
X178096842Y-91700965D02*
X176471242Y-91159098D01*
X181033566Y-93873268D02*
X181033566Y-92634716D01*
X181652842Y-93253992D02*
X180414290Y-93253992D01*
D20*
X179871119Y-129108240D02*
X179394928Y-129441573D01*
X179871119Y-129679668D02*
X178871119Y-129679668D01*
X178871119Y-129679668D02*
X178871119Y-129298716D01*
X178871119Y-129298716D02*
X178918738Y-129203478D01*
X178918738Y-129203478D02*
X178966357Y-129155859D01*
X178966357Y-129155859D02*
X179061595Y-129108240D01*
X179061595Y-129108240D02*
X179204452Y-129108240D01*
X179204452Y-129108240D02*
X179299690Y-129155859D01*
X179299690Y-129155859D02*
X179347309Y-129203478D01*
X179347309Y-129203478D02*
X179394928Y-129298716D01*
X179394928Y-129298716D02*
X179394928Y-129679668D01*
X179823500Y-128298716D02*
X179871119Y-128393954D01*
X179871119Y-128393954D02*
X179871119Y-128584430D01*
X179871119Y-128584430D02*
X179823500Y-128679668D01*
X179823500Y-128679668D02*
X179728261Y-128727287D01*
X179728261Y-128727287D02*
X179347309Y-128727287D01*
X179347309Y-128727287D02*
X179252071Y-128679668D01*
X179252071Y-128679668D02*
X179204452Y-128584430D01*
X179204452Y-128584430D02*
X179204452Y-128393954D01*
X179204452Y-128393954D02*
X179252071Y-128298716D01*
X179252071Y-128298716D02*
X179347309Y-128251097D01*
X179347309Y-128251097D02*
X179442547Y-128251097D01*
X179442547Y-128251097D02*
X179537785Y-128727287D01*
X179204452Y-127917763D02*
X179871119Y-127679668D01*
X179871119Y-127679668D02*
X179204452Y-127441573D01*
X179775880Y-127060620D02*
X179823500Y-127013001D01*
X179823500Y-127013001D02*
X179871119Y-127060620D01*
X179871119Y-127060620D02*
X179823500Y-127108239D01*
X179823500Y-127108239D02*
X179775880Y-127060620D01*
X179775880Y-127060620D02*
X179871119Y-127060620D01*
X178966357Y-125870144D02*
X178918738Y-125822525D01*
X178918738Y-125822525D02*
X178871119Y-125727287D01*
X178871119Y-125727287D02*
X178871119Y-125489192D01*
X178871119Y-125489192D02*
X178918738Y-125393954D01*
X178918738Y-125393954D02*
X178966357Y-125346335D01*
X178966357Y-125346335D02*
X179061595Y-125298716D01*
X179061595Y-125298716D02*
X179156833Y-125298716D01*
X179156833Y-125298716D02*
X179299690Y-125346335D01*
X179299690Y-125346335D02*
X179871119Y-125917763D01*
X179871119Y-125917763D02*
X179871119Y-125298716D01*
X179871119Y-123679668D02*
X179347309Y-123679668D01*
X179347309Y-123679668D02*
X179252071Y-123727287D01*
X179252071Y-123727287D02*
X179204452Y-123822525D01*
X179204452Y-123822525D02*
X179204452Y-124013001D01*
X179204452Y-124013001D02*
X179252071Y-124108239D01*
X179823500Y-123679668D02*
X179871119Y-123774906D01*
X179871119Y-123774906D02*
X179871119Y-124013001D01*
X179871119Y-124013001D02*
X179823500Y-124108239D01*
X179823500Y-124108239D02*
X179728261Y-124155858D01*
X179728261Y-124155858D02*
X179633023Y-124155858D01*
X179633023Y-124155858D02*
X179537785Y-124108239D01*
X179537785Y-124108239D02*
X179490166Y-124013001D01*
X179490166Y-124013001D02*
X179490166Y-123774906D01*
X179490166Y-123774906D02*
X179442547Y-123679668D01*
X179204452Y-123203477D02*
X179871119Y-123203477D01*
X179299690Y-123203477D02*
X179252071Y-123155858D01*
X179252071Y-123155858D02*
X179204452Y-123060620D01*
X179204452Y-123060620D02*
X179204452Y-122917763D01*
X179204452Y-122917763D02*
X179252071Y-122822525D01*
X179252071Y-122822525D02*
X179347309Y-122774906D01*
X179347309Y-122774906D02*
X179871119Y-122774906D01*
X179871119Y-121870144D02*
X178871119Y-121870144D01*
X179823500Y-121870144D02*
X179871119Y-121965382D01*
X179871119Y-121965382D02*
X179871119Y-122155858D01*
X179871119Y-122155858D02*
X179823500Y-122251096D01*
X179823500Y-122251096D02*
X179775880Y-122298715D01*
X179775880Y-122298715D02*
X179680642Y-122346334D01*
X179680642Y-122346334D02*
X179394928Y-122346334D01*
X179394928Y-122346334D02*
X179299690Y-122298715D01*
X179299690Y-122298715D02*
X179252071Y-122251096D01*
X179252071Y-122251096D02*
X179204452Y-122155858D01*
X179204452Y-122155858D02*
X179204452Y-121965382D01*
X179204452Y-121965382D02*
X179252071Y-121870144D01*
X179871119Y-120060620D02*
X179394928Y-120393953D01*
X179871119Y-120632048D02*
X178871119Y-120632048D01*
X178871119Y-120632048D02*
X178871119Y-120251096D01*
X178871119Y-120251096D02*
X178918738Y-120155858D01*
X178918738Y-120155858D02*
X178966357Y-120108239D01*
X178966357Y-120108239D02*
X179061595Y-120060620D01*
X179061595Y-120060620D02*
X179204452Y-120060620D01*
X179204452Y-120060620D02*
X179299690Y-120108239D01*
X179299690Y-120108239D02*
X179347309Y-120155858D01*
X179347309Y-120155858D02*
X179394928Y-120251096D01*
X179394928Y-120251096D02*
X179394928Y-120632048D01*
X179823500Y-119251096D02*
X179871119Y-119346334D01*
X179871119Y-119346334D02*
X179871119Y-119536810D01*
X179871119Y-119536810D02*
X179823500Y-119632048D01*
X179823500Y-119632048D02*
X179728261Y-119679667D01*
X179728261Y-119679667D02*
X179347309Y-119679667D01*
X179347309Y-119679667D02*
X179252071Y-119632048D01*
X179252071Y-119632048D02*
X179204452Y-119536810D01*
X179204452Y-119536810D02*
X179204452Y-119346334D01*
X179204452Y-119346334D02*
X179252071Y-119251096D01*
X179252071Y-119251096D02*
X179347309Y-119203477D01*
X179347309Y-119203477D02*
X179442547Y-119203477D01*
X179442547Y-119203477D02*
X179537785Y-119679667D01*
X179204452Y-118870143D02*
X179871119Y-118632048D01*
X179871119Y-118632048D02*
X179204452Y-118393953D01*
X179775880Y-118013000D02*
X179823500Y-117965381D01*
X179823500Y-117965381D02*
X179871119Y-118013000D01*
X179871119Y-118013000D02*
X179823500Y-118060619D01*
X179823500Y-118060619D02*
X179775880Y-118013000D01*
X179775880Y-118013000D02*
X179871119Y-118013000D01*
X178966357Y-116822524D02*
X178918738Y-116774905D01*
X178918738Y-116774905D02*
X178871119Y-116679667D01*
X178871119Y-116679667D02*
X178871119Y-116441572D01*
X178871119Y-116441572D02*
X178918738Y-116346334D01*
X178918738Y-116346334D02*
X178966357Y-116298715D01*
X178966357Y-116298715D02*
X179061595Y-116251096D01*
X179061595Y-116251096D02*
X179156833Y-116251096D01*
X179156833Y-116251096D02*
X179299690Y-116298715D01*
X179299690Y-116298715D02*
X179871119Y-116870143D01*
X179871119Y-116870143D02*
X179871119Y-116251096D01*
X179775880Y-115822524D02*
X179823500Y-115774905D01*
X179823500Y-115774905D02*
X179871119Y-115822524D01*
X179871119Y-115822524D02*
X179823500Y-115870143D01*
X179823500Y-115870143D02*
X179775880Y-115822524D01*
X179775880Y-115822524D02*
X179871119Y-115822524D01*
X178871119Y-115441572D02*
X178871119Y-114822525D01*
X178871119Y-114822525D02*
X179252071Y-115155858D01*
X179252071Y-115155858D02*
X179252071Y-115013001D01*
X179252071Y-115013001D02*
X179299690Y-114917763D01*
X179299690Y-114917763D02*
X179347309Y-114870144D01*
X179347309Y-114870144D02*
X179442547Y-114822525D01*
X179442547Y-114822525D02*
X179680642Y-114822525D01*
X179680642Y-114822525D02*
X179775880Y-114870144D01*
X179775880Y-114870144D02*
X179823500Y-114917763D01*
X179823500Y-114917763D02*
X179871119Y-115013001D01*
X179871119Y-115013001D02*
X179871119Y-115298715D01*
X179871119Y-115298715D02*
X179823500Y-115393953D01*
X179823500Y-115393953D02*
X179775880Y-115441572D01*
X179823500Y-113203477D02*
X179871119Y-113298715D01*
X179871119Y-113298715D02*
X179871119Y-113489191D01*
X179871119Y-113489191D02*
X179823500Y-113584429D01*
X179823500Y-113584429D02*
X179775880Y-113632048D01*
X179775880Y-113632048D02*
X179680642Y-113679667D01*
X179680642Y-113679667D02*
X179394928Y-113679667D01*
X179394928Y-113679667D02*
X179299690Y-113632048D01*
X179299690Y-113632048D02*
X179252071Y-113584429D01*
X179252071Y-113584429D02*
X179204452Y-113489191D01*
X179204452Y-113489191D02*
X179204452Y-113298715D01*
X179204452Y-113298715D02*
X179252071Y-113203477D01*
X179871119Y-112632048D02*
X179823500Y-112727286D01*
X179823500Y-112727286D02*
X179775880Y-112774905D01*
X179775880Y-112774905D02*
X179680642Y-112822524D01*
X179680642Y-112822524D02*
X179394928Y-112822524D01*
X179394928Y-112822524D02*
X179299690Y-112774905D01*
X179299690Y-112774905D02*
X179252071Y-112727286D01*
X179252071Y-112727286D02*
X179204452Y-112632048D01*
X179204452Y-112632048D02*
X179204452Y-112489191D01*
X179204452Y-112489191D02*
X179252071Y-112393953D01*
X179252071Y-112393953D02*
X179299690Y-112346334D01*
X179299690Y-112346334D02*
X179394928Y-112298715D01*
X179394928Y-112298715D02*
X179680642Y-112298715D01*
X179680642Y-112298715D02*
X179775880Y-112346334D01*
X179775880Y-112346334D02*
X179823500Y-112393953D01*
X179823500Y-112393953D02*
X179871119Y-112489191D01*
X179871119Y-112489191D02*
X179871119Y-112632048D01*
X179871119Y-111870143D02*
X179204452Y-111870143D01*
X179299690Y-111870143D02*
X179252071Y-111822524D01*
X179252071Y-111822524D02*
X179204452Y-111727286D01*
X179204452Y-111727286D02*
X179204452Y-111584429D01*
X179204452Y-111584429D02*
X179252071Y-111489191D01*
X179252071Y-111489191D02*
X179347309Y-111441572D01*
X179347309Y-111441572D02*
X179871119Y-111441572D01*
X179347309Y-111441572D02*
X179252071Y-111393953D01*
X179252071Y-111393953D02*
X179204452Y-111298715D01*
X179204452Y-111298715D02*
X179204452Y-111155858D01*
X179204452Y-111155858D02*
X179252071Y-111060619D01*
X179252071Y-111060619D02*
X179347309Y-111013000D01*
X179347309Y-111013000D02*
X179871119Y-111013000D01*
X179204452Y-110536810D02*
X180204452Y-110536810D01*
X179252071Y-110536810D02*
X179204452Y-110441572D01*
X179204452Y-110441572D02*
X179204452Y-110251096D01*
X179204452Y-110251096D02*
X179252071Y-110155858D01*
X179252071Y-110155858D02*
X179299690Y-110108239D01*
X179299690Y-110108239D02*
X179394928Y-110060620D01*
X179394928Y-110060620D02*
X179680642Y-110060620D01*
X179680642Y-110060620D02*
X179775880Y-110108239D01*
X179775880Y-110108239D02*
X179823500Y-110155858D01*
X179823500Y-110155858D02*
X179871119Y-110251096D01*
X179871119Y-110251096D02*
X179871119Y-110441572D01*
X179871119Y-110441572D02*
X179823500Y-110536810D01*
X179871119Y-109203477D02*
X179347309Y-109203477D01*
X179347309Y-109203477D02*
X179252071Y-109251096D01*
X179252071Y-109251096D02*
X179204452Y-109346334D01*
X179204452Y-109346334D02*
X179204452Y-109536810D01*
X179204452Y-109536810D02*
X179252071Y-109632048D01*
X179823500Y-109203477D02*
X179871119Y-109298715D01*
X179871119Y-109298715D02*
X179871119Y-109536810D01*
X179871119Y-109536810D02*
X179823500Y-109632048D01*
X179823500Y-109632048D02*
X179728261Y-109679667D01*
X179728261Y-109679667D02*
X179633023Y-109679667D01*
X179633023Y-109679667D02*
X179537785Y-109632048D01*
X179537785Y-109632048D02*
X179490166Y-109536810D01*
X179490166Y-109536810D02*
X179490166Y-109298715D01*
X179490166Y-109298715D02*
X179442547Y-109203477D01*
X179204452Y-108870143D02*
X179204452Y-108489191D01*
X178871119Y-108727286D02*
X179728261Y-108727286D01*
X179728261Y-108727286D02*
X179823500Y-108679667D01*
X179823500Y-108679667D02*
X179871119Y-108584429D01*
X179871119Y-108584429D02*
X179871119Y-108489191D01*
X179871119Y-108155857D02*
X179204452Y-108155857D01*
X178871119Y-108155857D02*
X178918738Y-108203476D01*
X178918738Y-108203476D02*
X178966357Y-108155857D01*
X178966357Y-108155857D02*
X178918738Y-108108238D01*
X178918738Y-108108238D02*
X178871119Y-108155857D01*
X178871119Y-108155857D02*
X178966357Y-108155857D01*
X179871119Y-107679667D02*
X178871119Y-107679667D01*
X179252071Y-107679667D02*
X179204452Y-107584429D01*
X179204452Y-107584429D02*
X179204452Y-107393953D01*
X179204452Y-107393953D02*
X179252071Y-107298715D01*
X179252071Y-107298715D02*
X179299690Y-107251096D01*
X179299690Y-107251096D02*
X179394928Y-107203477D01*
X179394928Y-107203477D02*
X179680642Y-107203477D01*
X179680642Y-107203477D02*
X179775880Y-107251096D01*
X179775880Y-107251096D02*
X179823500Y-107298715D01*
X179823500Y-107298715D02*
X179871119Y-107393953D01*
X179871119Y-107393953D02*
X179871119Y-107584429D01*
X179871119Y-107584429D02*
X179823500Y-107679667D01*
X179871119Y-106632048D02*
X179823500Y-106727286D01*
X179823500Y-106727286D02*
X179728261Y-106774905D01*
X179728261Y-106774905D02*
X178871119Y-106774905D01*
X179823500Y-105870143D02*
X179871119Y-105965381D01*
X179871119Y-105965381D02*
X179871119Y-106155857D01*
X179871119Y-106155857D02*
X179823500Y-106251095D01*
X179823500Y-106251095D02*
X179728261Y-106298714D01*
X179728261Y-106298714D02*
X179347309Y-106298714D01*
X179347309Y-106298714D02*
X179252071Y-106251095D01*
X179252071Y-106251095D02*
X179204452Y-106155857D01*
X179204452Y-106155857D02*
X179204452Y-105965381D01*
X179204452Y-105965381D02*
X179252071Y-105870143D01*
X179252071Y-105870143D02*
X179347309Y-105822524D01*
X179347309Y-105822524D02*
X179442547Y-105822524D01*
X179442547Y-105822524D02*
X179537785Y-106298714D01*
D17*
X189205109Y-114766582D02*
X190288842Y-114766582D01*
X188585833Y-115153630D02*
X189746975Y-115540677D01*
X189746975Y-115540677D02*
X189746975Y-114534354D01*
X190134023Y-113915078D02*
X190211433Y-113837668D01*
X190211433Y-113837668D02*
X190288842Y-113915078D01*
X190288842Y-113915078D02*
X190211433Y-113992487D01*
X190211433Y-113992487D02*
X190134023Y-113915078D01*
X190134023Y-113915078D02*
X190288842Y-113915078D01*
X188818061Y-113218392D02*
X188740652Y-113140983D01*
X188740652Y-113140983D02*
X188663242Y-112986164D01*
X188663242Y-112986164D02*
X188663242Y-112599116D01*
X188663242Y-112599116D02*
X188740652Y-112444297D01*
X188740652Y-112444297D02*
X188818061Y-112366888D01*
X188818061Y-112366888D02*
X188972880Y-112289478D01*
X188972880Y-112289478D02*
X189127699Y-112289478D01*
X189127699Y-112289478D02*
X189359928Y-112366888D01*
X189359928Y-112366888D02*
X190288842Y-113295802D01*
X190288842Y-113295802D02*
X190288842Y-112289478D01*
X188663242Y-111825021D02*
X190288842Y-111283155D01*
X190288842Y-111283155D02*
X188663242Y-110741288D01*
X188409242Y-132933630D02*
X188409242Y-132778811D01*
X188409242Y-132778811D02*
X188486652Y-132623992D01*
X188486652Y-132623992D02*
X188564061Y-132546582D01*
X188564061Y-132546582D02*
X188718880Y-132469173D01*
X188718880Y-132469173D02*
X189028518Y-132391763D01*
X189028518Y-132391763D02*
X189415566Y-132391763D01*
X189415566Y-132391763D02*
X189725204Y-132469173D01*
X189725204Y-132469173D02*
X189880023Y-132546582D01*
X189880023Y-132546582D02*
X189957433Y-132623992D01*
X189957433Y-132623992D02*
X190034842Y-132778811D01*
X190034842Y-132778811D02*
X190034842Y-132933630D01*
X190034842Y-132933630D02*
X189957433Y-133088449D01*
X189957433Y-133088449D02*
X189880023Y-133165858D01*
X189880023Y-133165858D02*
X189725204Y-133243268D01*
X189725204Y-133243268D02*
X189415566Y-133320677D01*
X189415566Y-133320677D02*
X189028518Y-133320677D01*
X189028518Y-133320677D02*
X188718880Y-133243268D01*
X188718880Y-133243268D02*
X188564061Y-133165858D01*
X188564061Y-133165858D02*
X188486652Y-133088449D01*
X188486652Y-133088449D02*
X188409242Y-132933630D01*
X188409242Y-131927306D02*
X190034842Y-131385440D01*
X190034842Y-131385440D02*
X188409242Y-130843573D01*
D14*
X94452219Y-82166666D02*
X93976028Y-82499999D01*
X94452219Y-82738094D02*
X93452219Y-82738094D01*
X93452219Y-82738094D02*
X93452219Y-82357142D01*
X93452219Y-82357142D02*
X93499838Y-82261904D01*
X93499838Y-82261904D02*
X93547457Y-82214285D01*
X93547457Y-82214285D02*
X93642695Y-82166666D01*
X93642695Y-82166666D02*
X93785552Y-82166666D01*
X93785552Y-82166666D02*
X93880790Y-82214285D01*
X93880790Y-82214285D02*
X93928409Y-82261904D01*
X93928409Y-82261904D02*
X93976028Y-82357142D01*
X93976028Y-82357142D02*
X93976028Y-82738094D01*
X93785552Y-81309523D02*
X94452219Y-81309523D01*
X93404600Y-81547618D02*
X94118885Y-81785713D01*
X94118885Y-81785713D02*
X94118885Y-81166666D01*
D18*
X139361009Y-102785714D02*
X139408628Y-102642857D01*
X139408628Y-102642857D02*
X139456247Y-102595238D01*
X139456247Y-102595238D02*
X139551485Y-102547619D01*
X139551485Y-102547619D02*
X139694342Y-102547619D01*
X139694342Y-102547619D02*
X139789580Y-102595238D01*
X139789580Y-102595238D02*
X139837200Y-102642857D01*
X139837200Y-102642857D02*
X139884819Y-102738095D01*
X139884819Y-102738095D02*
X139884819Y-103119047D01*
X139884819Y-103119047D02*
X138884819Y-103119047D01*
X138884819Y-103119047D02*
X138884819Y-102785714D01*
X138884819Y-102785714D02*
X138932438Y-102690476D01*
X138932438Y-102690476D02*
X138980057Y-102642857D01*
X138980057Y-102642857D02*
X139075295Y-102595238D01*
X139075295Y-102595238D02*
X139170533Y-102595238D01*
X139170533Y-102595238D02*
X139265771Y-102642857D01*
X139265771Y-102642857D02*
X139313390Y-102690476D01*
X139313390Y-102690476D02*
X139361009Y-102785714D01*
X139361009Y-102785714D02*
X139361009Y-103119047D01*
X138884819Y-102261904D02*
X138884819Y-101690476D01*
X139884819Y-101976190D02*
X138884819Y-101976190D01*
X138980057Y-101404761D02*
X138932438Y-101357142D01*
X138932438Y-101357142D02*
X138884819Y-101261904D01*
X138884819Y-101261904D02*
X138884819Y-101023809D01*
X138884819Y-101023809D02*
X138932438Y-100928571D01*
X138932438Y-100928571D02*
X138980057Y-100880952D01*
X138980057Y-100880952D02*
X139075295Y-100833333D01*
X139075295Y-100833333D02*
X139170533Y-100833333D01*
X139170533Y-100833333D02*
X139313390Y-100880952D01*
X139313390Y-100880952D02*
X139884819Y-101452380D01*
X139884819Y-101452380D02*
X139884819Y-100833333D01*
X158931009Y-102785714D02*
X158978628Y-102642857D01*
X158978628Y-102642857D02*
X159026247Y-102595238D01*
X159026247Y-102595238D02*
X159121485Y-102547619D01*
X159121485Y-102547619D02*
X159264342Y-102547619D01*
X159264342Y-102547619D02*
X159359580Y-102595238D01*
X159359580Y-102595238D02*
X159407200Y-102642857D01*
X159407200Y-102642857D02*
X159454819Y-102738095D01*
X159454819Y-102738095D02*
X159454819Y-103119047D01*
X159454819Y-103119047D02*
X158454819Y-103119047D01*
X158454819Y-103119047D02*
X158454819Y-102785714D01*
X158454819Y-102785714D02*
X158502438Y-102690476D01*
X158502438Y-102690476D02*
X158550057Y-102642857D01*
X158550057Y-102642857D02*
X158645295Y-102595238D01*
X158645295Y-102595238D02*
X158740533Y-102595238D01*
X158740533Y-102595238D02*
X158835771Y-102642857D01*
X158835771Y-102642857D02*
X158883390Y-102690476D01*
X158883390Y-102690476D02*
X158931009Y-102785714D01*
X158931009Y-102785714D02*
X158931009Y-103119047D01*
X158454819Y-102261904D02*
X158454819Y-101690476D01*
X159454819Y-101976190D02*
X158454819Y-101976190D01*
X159454819Y-100833333D02*
X159454819Y-101404761D01*
X159454819Y-101119047D02*
X158454819Y-101119047D01*
X158454819Y-101119047D02*
X158597676Y-101214285D01*
X158597676Y-101214285D02*
X158692914Y-101309523D01*
X158692914Y-101309523D02*
X158740533Y-101404761D01*
D21*
%TO.C,R3*%
X99595000Y-79088936D02*
X99595000Y-79543064D01*
X101065000Y-79088936D02*
X101065000Y-79543064D01*
D22*
%TO.C,U1*%
X176938500Y-61061500D02*
X213938500Y-61061500D01*
X176938500Y-79061500D02*
X176938500Y-61061500D01*
X207938500Y-65561500D02*
X213938500Y-65561500D01*
X207938500Y-74561500D02*
X207938500Y-65561500D01*
X213938500Y-61061500D02*
X213938500Y-79061500D01*
X213938500Y-65561600D02*
X213938500Y-74561600D01*
X213938500Y-74561500D02*
X207938500Y-74561500D01*
X213938500Y-79061500D02*
X176938500Y-79061500D01*
D21*
%TO.C,BT3*%
X106790000Y-63000000D02*
X126890000Y-63000000D01*
X106790000Y-141000000D02*
X106790000Y-63000000D01*
X126890000Y-63000000D02*
X126890000Y-141000000D01*
X126890000Y-141000000D02*
X106790000Y-141000000D01*
%TO.C,F1*%
D19*
X214500000Y-90600000D02*
X205500000Y-90600000D01*
X205500000Y-112600000D01*
X214500000Y-112600000D01*
X214500000Y-90600000D01*
D22*
%TO.C,U2*%
X91377000Y-88269000D02*
X105577100Y-88269000D01*
X91377000Y-129369000D02*
X91377000Y-88269000D01*
X105577100Y-88269000D02*
X105577100Y-129369000D01*
X105577100Y-129369000D02*
X91377000Y-129369000D01*
D15*
%TO.C,J1*%
X95670000Y-57845000D02*
X96305000Y-57210000D01*
X95670000Y-59115000D02*
X95670000Y-57845000D01*
X95670000Y-59115000D02*
X96305000Y-59750000D01*
X95670000Y-60385000D02*
X96305000Y-59750000D01*
X95670000Y-61655000D02*
X95670000Y-60385000D01*
X95670000Y-61655000D02*
X96305000Y-62290000D01*
X95670000Y-62925000D02*
X96305000Y-62290000D01*
X95670000Y-64195000D02*
X95670000Y-62925000D01*
X95670000Y-65465000D02*
X96305000Y-64830000D01*
X95670000Y-66735000D02*
X95670000Y-65465000D01*
X95670000Y-68005000D02*
X96305000Y-67370000D01*
X95670000Y-69275000D02*
X95670000Y-68005000D01*
X95670000Y-69275000D02*
X96305000Y-69910000D01*
X96305000Y-57210000D02*
X97575000Y-57210000D01*
X96305000Y-59750000D02*
X97575000Y-59750000D01*
X96305000Y-62290000D02*
X97575000Y-62290000D01*
X96305000Y-64830000D02*
X95670000Y-64195000D01*
X96305000Y-64830000D02*
X97575000Y-64830000D01*
X96305000Y-67370000D02*
X95670000Y-66735000D01*
X96305000Y-67370000D02*
X97575000Y-67370000D01*
X96305000Y-69910000D02*
X97575000Y-69910000D01*
X97575000Y-57210000D02*
X98210000Y-57845000D01*
X97575000Y-59750000D02*
X98210000Y-59115000D01*
X97575000Y-59750000D02*
X98210000Y-60385000D01*
X97575000Y-62290000D02*
X98210000Y-61655000D01*
X97575000Y-62290000D02*
X98210000Y-62925000D01*
X97575000Y-64830000D02*
X98210000Y-65465000D01*
X97575000Y-67370000D02*
X98210000Y-68005000D01*
X97575000Y-69910000D02*
X98210000Y-69275000D01*
X98210000Y-57845000D02*
X98210000Y-59115000D01*
X98210000Y-60385000D02*
X98210000Y-61655000D01*
X98210000Y-62925000D02*
X98210000Y-64195000D01*
X98210000Y-64195000D02*
X97575000Y-64830000D01*
X98210000Y-65465000D02*
X98210000Y-66735000D01*
X98210000Y-66735000D02*
X97575000Y-67370000D01*
X98210000Y-68005000D02*
X98210000Y-69275000D01*
D23*
%TO.C,REF\u002A\u002A*%
X202727830Y-138261107D02*
X202801932Y-138261471D01*
X202858704Y-138262276D01*
X202900768Y-138263687D01*
X202930748Y-138265867D01*
X202951267Y-138268979D01*
X202964949Y-138273186D01*
X202974416Y-138278652D01*
X202979082Y-138282528D01*
X202999575Y-138313966D01*
X202998739Y-138349767D01*
X202981264Y-138381127D01*
X202959684Y-138407778D01*
X202312227Y-138407778D01*
X202290647Y-138381127D01*
X202274949Y-138355406D01*
X202269067Y-138334400D01*
X202275877Y-138311386D01*
X202290647Y-138287673D01*
X202312227Y-138261022D01*
X202633773Y-138261022D01*
X202727830Y-138261107D01*
G36*
X202727830Y-138261107D02*
G01*
X202801932Y-138261471D01*
X202858704Y-138262276D01*
X202900768Y-138263687D01*
X202930748Y-138265867D01*
X202951267Y-138268979D01*
X202964949Y-138273186D01*
X202974416Y-138278652D01*
X202979082Y-138282528D01*
X202999575Y-138313966D01*
X202998739Y-138349767D01*
X202981264Y-138381127D01*
X202959684Y-138407778D01*
X202312227Y-138407778D01*
X202290647Y-138381127D01*
X202274949Y-138355406D01*
X202269067Y-138334400D01*
X202275877Y-138311386D01*
X202290647Y-138287673D01*
X202312227Y-138261022D01*
X202633773Y-138261022D01*
X202727830Y-138261107D01*
G37*
X202729802Y-145401314D02*
X202803689Y-145401638D01*
X202860232Y-145402386D01*
X202902049Y-145403732D01*
X202931757Y-145405846D01*
X202951973Y-145408900D01*
X202965314Y-145413066D01*
X202974398Y-145418516D01*
X202980267Y-145423822D01*
X202999947Y-145456826D01*
X202998181Y-145491991D01*
X202976717Y-145523455D01*
X202968337Y-145530684D01*
X202958614Y-145536334D01*
X202944861Y-145540599D01*
X202924389Y-145543673D01*
X202894512Y-145545752D01*
X202852541Y-145547030D01*
X202795789Y-145547701D01*
X202721567Y-145547959D01*
X202637537Y-145548000D01*
X202324485Y-145548000D01*
X202296776Y-145520291D01*
X202273463Y-145486137D01*
X202272623Y-145453006D01*
X202291645Y-145423822D01*
X202299218Y-145417242D01*
X202308987Y-145412079D01*
X202323571Y-145408164D01*
X202345585Y-145405324D01*
X202377648Y-145403387D01*
X202422375Y-145402183D01*
X202482385Y-145401539D01*
X202560294Y-145401284D01*
X202635956Y-145401245D01*
X202729802Y-145401314D01*
G36*
X202729802Y-145401314D02*
G01*
X202803689Y-145401638D01*
X202860232Y-145402386D01*
X202902049Y-145403732D01*
X202931757Y-145405846D01*
X202951973Y-145408900D01*
X202965314Y-145413066D01*
X202974398Y-145418516D01*
X202980267Y-145423822D01*
X202999947Y-145456826D01*
X202998181Y-145491991D01*
X202976717Y-145523455D01*
X202968337Y-145530684D01*
X202958614Y-145536334D01*
X202944861Y-145540599D01*
X202924389Y-145543673D01*
X202894512Y-145545752D01*
X202852541Y-145547030D01*
X202795789Y-145547701D01*
X202721567Y-145547959D01*
X202637537Y-145548000D01*
X202324485Y-145548000D01*
X202296776Y-145520291D01*
X202273463Y-145486137D01*
X202272623Y-145453006D01*
X202291645Y-145423822D01*
X202299218Y-145417242D01*
X202308987Y-145412079D01*
X202323571Y-145408164D01*
X202345585Y-145405324D01*
X202377648Y-145403387D01*
X202422375Y-145402183D01*
X202482385Y-145401539D01*
X202560294Y-145401284D01*
X202635956Y-145401245D01*
X202729802Y-145401314D01*
G37*
X197604654Y-144392140D02*
X197692511Y-144425840D01*
X197771770Y-144476528D01*
X197839836Y-144542345D01*
X197894112Y-144621434D01*
X197932002Y-144711934D01*
X197944426Y-144763200D01*
X197951947Y-144807698D01*
X197954919Y-144841999D01*
X197953094Y-144874960D01*
X197946225Y-144915434D01*
X197939250Y-144948531D01*
X197907741Y-145041947D01*
X197856617Y-145125619D01*
X197787429Y-145197665D01*
X197701728Y-145256200D01*
X197674489Y-145270148D01*
X197638122Y-145286586D01*
X197607582Y-145296894D01*
X197575450Y-145302460D01*
X197534307Y-145304669D01*
X197488222Y-145304948D01*
X197403865Y-145300861D01*
X197334586Y-145287446D01*
X197273961Y-145262256D01*
X197215567Y-145222846D01*
X197171302Y-145184298D01*
X197105484Y-145112406D01*
X197060053Y-145037313D01*
X197032850Y-144954562D01*
X197022576Y-144876928D01*
X197026571Y-144773043D01*
X197050809Y-144676768D01*
X197093641Y-144590184D01*
X197153419Y-144515373D01*
X197228494Y-144454418D01*
X197317220Y-144409399D01*
X197413530Y-144383136D01*
X197510795Y-144377286D01*
X197604654Y-144392140D01*
G36*
X197604654Y-144392140D02*
G01*
X197692511Y-144425840D01*
X197771770Y-144476528D01*
X197839836Y-144542345D01*
X197894112Y-144621434D01*
X197932002Y-144711934D01*
X197944426Y-144763200D01*
X197951947Y-144807698D01*
X197954919Y-144841999D01*
X197953094Y-144874960D01*
X197946225Y-144915434D01*
X197939250Y-144948531D01*
X197907741Y-145041947D01*
X197856617Y-145125619D01*
X197787429Y-145197665D01*
X197701728Y-145256200D01*
X197674489Y-145270148D01*
X197638122Y-145286586D01*
X197607582Y-145296894D01*
X197575450Y-145302460D01*
X197534307Y-145304669D01*
X197488222Y-145304948D01*
X197403865Y-145300861D01*
X197334586Y-145287446D01*
X197273961Y-145262256D01*
X197215567Y-145222846D01*
X197171302Y-145184298D01*
X197105484Y-145112406D01*
X197060053Y-145037313D01*
X197032850Y-144954562D01*
X197022576Y-144876928D01*
X197026571Y-144773043D01*
X197050809Y-144676768D01*
X197093641Y-144590184D01*
X197153419Y-144515373D01*
X197228494Y-144454418D01*
X197317220Y-144409399D01*
X197413530Y-144383136D01*
X197510795Y-144377286D01*
X197604654Y-144392140D01*
G37*
X202385826Y-137251289D02*
X202398089Y-137261652D01*
X202406450Y-137272804D01*
X202411657Y-137288965D01*
X202414457Y-137314358D01*
X202415596Y-137353202D01*
X202415821Y-137409720D01*
X202415822Y-137420820D01*
X202415822Y-137566756D01*
X202686756Y-137566756D01*
X202772154Y-137566852D01*
X202837864Y-137567289D01*
X202886774Y-137568288D01*
X202921773Y-137570072D01*
X202945749Y-137572863D01*
X202961593Y-137576883D01*
X202972191Y-137582355D01*
X202980267Y-137589334D01*
X203000112Y-137622266D01*
X202998548Y-137656646D01*
X202975906Y-137687824D01*
X202973100Y-137690114D01*
X202962492Y-137697571D01*
X202950081Y-137703253D01*
X202932850Y-137707399D01*
X202907784Y-137710250D01*
X202871867Y-137712046D01*
X202822083Y-137713028D01*
X202755417Y-137713436D01*
X202679589Y-137713511D01*
X202415822Y-137713511D01*
X202415822Y-137852873D01*
X202415418Y-137912678D01*
X202413840Y-137954082D01*
X202410547Y-137981252D01*
X202404992Y-137998354D01*
X202396631Y-138009557D01*
X202395178Y-138010917D01*
X202361939Y-138027275D01*
X202324362Y-138025828D01*
X202291645Y-138007022D01*
X202285298Y-137999750D01*
X202280266Y-137990373D01*
X202276396Y-137976391D01*
X202273537Y-137955304D01*
X202271535Y-137924611D01*
X202270239Y-137881811D01*
X202269498Y-137824405D01*
X202269158Y-137749890D01*
X202269068Y-137655767D01*
X202269067Y-137635740D01*
X202269163Y-137536935D01*
X202269542Y-137458228D01*
X202270333Y-137397137D01*
X202271670Y-137351183D01*
X202273683Y-137317886D01*
X202276506Y-137294764D01*
X202280269Y-137279338D01*
X202285105Y-137269129D01*
X202288822Y-137264187D01*
X202321358Y-137238543D01*
X202355138Y-137235441D01*
X202385826Y-137251289D01*
G36*
X202385826Y-137251289D02*
G01*
X202398089Y-137261652D01*
X202406450Y-137272804D01*
X202411657Y-137288965D01*
X202414457Y-137314358D01*
X202415596Y-137353202D01*
X202415821Y-137409720D01*
X202415822Y-137420820D01*
X202415822Y-137566756D01*
X202686756Y-137566756D01*
X202772154Y-137566852D01*
X202837864Y-137567289D01*
X202886774Y-137568288D01*
X202921773Y-137570072D01*
X202945749Y-137572863D01*
X202961593Y-137576883D01*
X202972191Y-137582355D01*
X202980267Y-137589334D01*
X203000112Y-137622266D01*
X202998548Y-137656646D01*
X202975906Y-137687824D01*
X202973100Y-137690114D01*
X202962492Y-137697571D01*
X202950081Y-137703253D01*
X202932850Y-137707399D01*
X202907784Y-137710250D01*
X202871867Y-137712046D01*
X202822083Y-137713028D01*
X202755417Y-137713436D01*
X202679589Y-137713511D01*
X202415822Y-137713511D01*
X202415822Y-137852873D01*
X202415418Y-137912678D01*
X202413840Y-137954082D01*
X202410547Y-137981252D01*
X202404992Y-137998354D01*
X202396631Y-138009557D01*
X202395178Y-138010917D01*
X202361939Y-138027275D01*
X202324362Y-138025828D01*
X202291645Y-138007022D01*
X202285298Y-137999750D01*
X202280266Y-137990373D01*
X202276396Y-137976391D01*
X202273537Y-137955304D01*
X202271535Y-137924611D01*
X202270239Y-137881811D01*
X202269498Y-137824405D01*
X202269158Y-137749890D01*
X202269068Y-137655767D01*
X202269067Y-137635740D01*
X202269163Y-137536935D01*
X202269542Y-137458228D01*
X202270333Y-137397137D01*
X202271670Y-137351183D01*
X202273683Y-137317886D01*
X202276506Y-137294764D01*
X202280269Y-137279338D01*
X202285105Y-137269129D01*
X202288822Y-137264187D01*
X202321358Y-137238543D01*
X202355138Y-137235441D01*
X202385826Y-137251289D01*
G37*
X202725799Y-136212162D02*
X202797840Y-136212505D01*
X202852780Y-136213308D01*
X202893360Y-136214759D01*
X202922317Y-136217048D01*
X202942391Y-136220364D01*
X202956321Y-136224895D01*
X202966845Y-136230831D01*
X202973100Y-136235486D01*
X202997673Y-136266217D01*
X203000341Y-136301504D01*
X202985271Y-136333755D01*
X202976374Y-136344412D01*
X202964557Y-136351536D01*
X202945526Y-136355833D01*
X202914992Y-136358009D01*
X202868662Y-136358772D01*
X202832871Y-136358845D01*
X202698045Y-136358845D01*
X202698045Y-136855556D01*
X202820700Y-136855556D01*
X202876787Y-136856069D01*
X202915333Y-136858124D01*
X202941361Y-136862492D01*
X202959897Y-136869944D01*
X202973100Y-136878953D01*
X202997604Y-136909856D01*
X203000506Y-136944804D01*
X202983089Y-136978262D01*
X202973959Y-136987396D01*
X202961855Y-136993848D01*
X202943001Y-136998103D01*
X202913620Y-137000648D01*
X202869937Y-137001971D01*
X202808175Y-137002557D01*
X202794000Y-137002625D01*
X202677631Y-137003109D01*
X202581727Y-137003359D01*
X202504177Y-137003277D01*
X202442869Y-137002769D01*
X202395690Y-137001738D01*
X202360530Y-137000087D01*
X202335276Y-136997721D01*
X202317817Y-136994543D01*
X202306041Y-136990456D01*
X202297835Y-136985366D01*
X202291645Y-136979734D01*
X202271844Y-136947872D01*
X202274533Y-136914643D01*
X202296776Y-136883265D01*
X202311126Y-136870567D01*
X202326978Y-136862474D01*
X202349554Y-136857958D01*
X202384078Y-136855994D01*
X202435776Y-136855556D01*
X202551289Y-136855556D01*
X202551289Y-136358845D01*
X202432756Y-136358845D01*
X202378148Y-136358338D01*
X202341275Y-136356302D01*
X202317307Y-136351965D01*
X202301415Y-136344553D01*
X202291645Y-136336267D01*
X202271844Y-136304406D01*
X202274533Y-136271177D01*
X202296776Y-136239798D01*
X202324485Y-136212089D01*
X202633920Y-136212089D01*
X202725799Y-136212162D01*
G36*
X202725799Y-136212162D02*
G01*
X202797840Y-136212505D01*
X202852780Y-136213308D01*
X202893360Y-136214759D01*
X202922317Y-136217048D01*
X202942391Y-136220364D01*
X202956321Y-136224895D01*
X202966845Y-136230831D01*
X202973100Y-136235486D01*
X202997673Y-136266217D01*
X203000341Y-136301504D01*
X202985271Y-136333755D01*
X202976374Y-136344412D01*
X202964557Y-136351536D01*
X202945526Y-136355833D01*
X202914992Y-136358009D01*
X202868662Y-136358772D01*
X202832871Y-136358845D01*
X202698045Y-136358845D01*
X202698045Y-136855556D01*
X202820700Y-136855556D01*
X202876787Y-136856069D01*
X202915333Y-136858124D01*
X202941361Y-136862492D01*
X202959897Y-136869944D01*
X202973100Y-136878953D01*
X202997604Y-136909856D01*
X203000506Y-136944804D01*
X202983089Y-136978262D01*
X202973959Y-136987396D01*
X202961855Y-136993848D01*
X202943001Y-136998103D01*
X202913620Y-137000648D01*
X202869937Y-137001971D01*
X202808175Y-137002557D01*
X202794000Y-137002625D01*
X202677631Y-137003109D01*
X202581727Y-137003359D01*
X202504177Y-137003277D01*
X202442869Y-137002769D01*
X202395690Y-137001738D01*
X202360530Y-137000087D01*
X202335276Y-136997721D01*
X202317817Y-136994543D01*
X202306041Y-136990456D01*
X202297835Y-136985366D01*
X202291645Y-136979734D01*
X202271844Y-136947872D01*
X202274533Y-136914643D01*
X202296776Y-136883265D01*
X202311126Y-136870567D01*
X202326978Y-136862474D01*
X202349554Y-136857958D01*
X202384078Y-136855994D01*
X202435776Y-136855556D01*
X202551289Y-136855556D01*
X202551289Y-136358845D01*
X202432756Y-136358845D01*
X202378148Y-136358338D01*
X202341275Y-136356302D01*
X202317307Y-136351965D01*
X202301415Y-136344553D01*
X202291645Y-136336267D01*
X202271844Y-136304406D01*
X202274533Y-136271177D01*
X202296776Y-136239798D01*
X202324485Y-136212089D01*
X202633920Y-136212089D01*
X202725799Y-136212162D01*
G37*
X202687887Y-140893769D02*
X202751073Y-140916346D01*
X202760689Y-140920628D01*
X202816966Y-140949828D01*
X202860451Y-140982644D01*
X202897417Y-141024998D01*
X202934135Y-141082810D01*
X202936052Y-141086169D01*
X202960227Y-141136496D01*
X202978282Y-141193379D01*
X202990839Y-141260473D01*
X202998522Y-141341435D01*
X203001953Y-141439918D01*
X203002251Y-141474714D01*
X203002845Y-141640406D01*
X202973100Y-141663803D01*
X202963319Y-141670743D01*
X202951897Y-141676158D01*
X202936095Y-141680235D01*
X202913175Y-141683163D01*
X202880396Y-141685133D01*
X202856089Y-141685775D01*
X202835021Y-141686332D01*
X202774311Y-141686950D01*
X202695526Y-141687175D01*
X202633920Y-141687200D01*
X202324485Y-141687200D01*
X202296776Y-141659491D01*
X202285544Y-141647194D01*
X202277853Y-141633897D01*
X202273040Y-141615328D01*
X202270446Y-141587214D01*
X202269410Y-141545283D01*
X202269372Y-141529156D01*
X202415822Y-141529156D01*
X202856089Y-141529156D01*
X202856089Y-141435274D01*
X202854483Y-141380336D01*
X202850255Y-141323940D01*
X202844292Y-141277655D01*
X202843790Y-141274861D01*
X202821736Y-141192652D01*
X202788600Y-141128886D01*
X202742847Y-141081548D01*
X202682939Y-141048618D01*
X202667061Y-141042892D01*
X202642333Y-141037279D01*
X202617902Y-141039709D01*
X202585400Y-141051533D01*
X202569434Y-141058660D01*
X202527006Y-141082000D01*
X202497240Y-141110120D01*
X202476511Y-141141060D01*
X202449537Y-141203034D01*
X202429998Y-141282349D01*
X202418746Y-141374747D01*
X202416270Y-141441667D01*
X202415822Y-141529156D01*
X202269372Y-141529156D01*
X202269270Y-141485263D01*
X202269275Y-141481691D01*
X202273636Y-141352712D01*
X202286861Y-141243009D01*
X202309741Y-141150774D01*
X202343070Y-141074198D01*
X202387638Y-141011473D01*
X202444236Y-140960788D01*
X202513658Y-140920337D01*
X202515351Y-140919541D01*
X202577483Y-140895399D01*
X202632509Y-140886797D01*
X202687887Y-140893769D01*
G36*
X202687887Y-140893769D02*
G01*
X202751073Y-140916346D01*
X202760689Y-140920628D01*
X202816966Y-140949828D01*
X202860451Y-140982644D01*
X202897417Y-141024998D01*
X202934135Y-141082810D01*
X202936052Y-141086169D01*
X202960227Y-141136496D01*
X202978282Y-141193379D01*
X202990839Y-141260473D01*
X202998522Y-141341435D01*
X203001953Y-141439918D01*
X203002251Y-141474714D01*
X203002845Y-141640406D01*
X202973100Y-141663803D01*
X202963319Y-141670743D01*
X202951897Y-141676158D01*
X202936095Y-141680235D01*
X202913175Y-141683163D01*
X202880396Y-141685133D01*
X202856089Y-141685775D01*
X202835021Y-141686332D01*
X202774311Y-141686950D01*
X202695526Y-141687175D01*
X202633920Y-141687200D01*
X202324485Y-141687200D01*
X202296776Y-141659491D01*
X202285544Y-141647194D01*
X202277853Y-141633897D01*
X202273040Y-141615328D01*
X202270446Y-141587214D01*
X202269410Y-141545283D01*
X202269372Y-141529156D01*
X202415822Y-141529156D01*
X202856089Y-141529156D01*
X202856089Y-141435274D01*
X202854483Y-141380336D01*
X202850255Y-141323940D01*
X202844292Y-141277655D01*
X202843790Y-141274861D01*
X202821736Y-141192652D01*
X202788600Y-141128886D01*
X202742847Y-141081548D01*
X202682939Y-141048618D01*
X202667061Y-141042892D01*
X202642333Y-141037279D01*
X202617902Y-141039709D01*
X202585400Y-141051533D01*
X202569434Y-141058660D01*
X202527006Y-141082000D01*
X202497240Y-141110120D01*
X202476511Y-141141060D01*
X202449537Y-141203034D01*
X202429998Y-141282349D01*
X202418746Y-141374747D01*
X202416270Y-141441667D01*
X202415822Y-141529156D01*
X202269372Y-141529156D01*
X202269270Y-141485263D01*
X202269275Y-141481691D01*
X202273636Y-141352712D01*
X202286861Y-141243009D01*
X202309741Y-141150774D01*
X202343070Y-141074198D01*
X202387638Y-141011473D01*
X202444236Y-140960788D01*
X202513658Y-140920337D01*
X202515351Y-140919541D01*
X202577483Y-140895399D01*
X202632509Y-140886797D01*
X202687887Y-140893769D01*
G37*
X202694769Y-147994417D02*
X202759013Y-148015899D01*
X202819821Y-148046999D01*
X202868330Y-148083866D01*
X202874182Y-148089854D01*
X202915321Y-148140579D01*
X202947435Y-148196125D01*
X202971365Y-148259696D01*
X202987953Y-148334494D01*
X202998041Y-148423722D01*
X203002469Y-148530582D01*
X203002845Y-148579528D01*
X203002545Y-148641762D01*
X203001292Y-148685528D01*
X202998554Y-148714931D01*
X202993801Y-148734079D01*
X202986501Y-148747077D01*
X202980267Y-148754045D01*
X202972694Y-148760626D01*
X202962924Y-148765788D01*
X202948340Y-148769703D01*
X202926326Y-148772543D01*
X202894264Y-148774480D01*
X202849536Y-148775684D01*
X202789526Y-148776328D01*
X202711617Y-148776583D01*
X202635956Y-148776622D01*
X202535041Y-148776870D01*
X202454427Y-148776817D01*
X202415822Y-148775857D01*
X202391851Y-148775260D01*
X202345055Y-148770998D01*
X202311778Y-148762830D01*
X202289759Y-148749556D01*
X202276739Y-148729974D01*
X202270457Y-148702883D01*
X202268653Y-148667082D01*
X202269066Y-148621371D01*
X202269467Y-148581889D01*
X202270148Y-148553667D01*
X202415808Y-148553667D01*
X202415822Y-148629867D01*
X202856089Y-148629867D01*
X202856004Y-148536734D01*
X202854396Y-148480693D01*
X202850256Y-148421999D01*
X202844464Y-148373028D01*
X202844226Y-148371538D01*
X202825090Y-148292392D01*
X202795287Y-148231002D01*
X202752878Y-148184305D01*
X202706961Y-148154635D01*
X202656026Y-148136353D01*
X202608200Y-148137771D01*
X202556933Y-148158988D01*
X202503899Y-148200489D01*
X202464600Y-148257998D01*
X202438331Y-148332750D01*
X202429035Y-148382708D01*
X202422507Y-148439416D01*
X202417782Y-148499519D01*
X202415817Y-148550639D01*
X202415808Y-148553667D01*
X202270148Y-148553667D01*
X202272259Y-148466200D01*
X202280550Y-148369311D01*
X202295232Y-148287919D01*
X202317193Y-148218723D01*
X202347322Y-148158420D01*
X202386510Y-148103708D01*
X202403532Y-148084167D01*
X202443363Y-148051750D01*
X202497413Y-148022520D01*
X202557323Y-147999991D01*
X202614739Y-147987679D01*
X202635956Y-147986400D01*
X202694769Y-147994417D01*
G36*
X202694769Y-147994417D02*
G01*
X202759013Y-148015899D01*
X202819821Y-148046999D01*
X202868330Y-148083866D01*
X202874182Y-148089854D01*
X202915321Y-148140579D01*
X202947435Y-148196125D01*
X202971365Y-148259696D01*
X202987953Y-148334494D01*
X202998041Y-148423722D01*
X203002469Y-148530582D01*
X203002845Y-148579528D01*
X203002545Y-148641762D01*
X203001292Y-148685528D01*
X202998554Y-148714931D01*
X202993801Y-148734079D01*
X202986501Y-148747077D01*
X202980267Y-148754045D01*
X202972694Y-148760626D01*
X202962924Y-148765788D01*
X202948340Y-148769703D01*
X202926326Y-148772543D01*
X202894264Y-148774480D01*
X202849536Y-148775684D01*
X202789526Y-148776328D01*
X202711617Y-148776583D01*
X202635956Y-148776622D01*
X202535041Y-148776870D01*
X202454427Y-148776817D01*
X202415822Y-148775857D01*
X202391851Y-148775260D01*
X202345055Y-148770998D01*
X202311778Y-148762830D01*
X202289759Y-148749556D01*
X202276739Y-148729974D01*
X202270457Y-148702883D01*
X202268653Y-148667082D01*
X202269066Y-148621371D01*
X202269467Y-148581889D01*
X202270148Y-148553667D01*
X202415808Y-148553667D01*
X202415822Y-148629867D01*
X202856089Y-148629867D01*
X202856004Y-148536734D01*
X202854396Y-148480693D01*
X202850256Y-148421999D01*
X202844464Y-148373028D01*
X202844226Y-148371538D01*
X202825090Y-148292392D01*
X202795287Y-148231002D01*
X202752878Y-148184305D01*
X202706961Y-148154635D01*
X202656026Y-148136353D01*
X202608200Y-148137771D01*
X202556933Y-148158988D01*
X202503899Y-148200489D01*
X202464600Y-148257998D01*
X202438331Y-148332750D01*
X202429035Y-148382708D01*
X202422507Y-148439416D01*
X202417782Y-148499519D01*
X202415817Y-148550639D01*
X202415808Y-148553667D01*
X202270148Y-148553667D01*
X202272259Y-148466200D01*
X202280550Y-148369311D01*
X202295232Y-148287919D01*
X202317193Y-148218723D01*
X202347322Y-148158420D01*
X202386510Y-148103708D01*
X202403532Y-148084167D01*
X202443363Y-148051750D01*
X202497413Y-148022520D01*
X202557323Y-147999991D01*
X202614739Y-147987679D01*
X202635956Y-147986400D01*
X202694769Y-147994417D01*
G37*
X202848161Y-143088113D02*
X202889342Y-143089032D01*
X202918803Y-143090887D01*
X202939255Y-143093839D01*
X202953413Y-143098050D01*
X202963991Y-143103682D01*
X202972474Y-143109927D01*
X202988207Y-143123439D01*
X202998636Y-143136883D01*
X203002639Y-143152124D01*
X202999094Y-143171026D01*
X202986879Y-143195455D01*
X202964871Y-143227273D01*
X202931949Y-143268348D01*
X202886991Y-143320542D01*
X202828875Y-143385722D01*
X202762099Y-143459556D01*
X202521458Y-143724845D01*
X202740589Y-143730489D01*
X202816128Y-143732531D01*
X202872354Y-143734502D01*
X202912524Y-143736839D01*
X202939896Y-143739981D01*
X202957728Y-143744364D01*
X202969279Y-143750424D01*
X202977807Y-143758600D01*
X202981282Y-143762784D01*
X203000372Y-143799765D01*
X202997493Y-143834708D01*
X202973100Y-143865136D01*
X202963286Y-143872097D01*
X202951826Y-143877523D01*
X202935968Y-143881603D01*
X202912963Y-143884529D01*
X202880062Y-143886492D01*
X202834516Y-143887683D01*
X202773573Y-143888292D01*
X202694486Y-143888511D01*
X202635956Y-143888534D01*
X202544407Y-143888460D01*
X202472687Y-143888113D01*
X202418045Y-143887301D01*
X202377732Y-143885833D01*
X202348998Y-143883519D01*
X202329093Y-143880167D01*
X202315268Y-143875588D01*
X202304772Y-143869589D01*
X202298811Y-143865136D01*
X202284691Y-143853850D01*
X202274029Y-143843301D01*
X202267892Y-143831893D01*
X202267343Y-143818030D01*
X202273448Y-143800114D01*
X202287273Y-143776548D01*
X202309881Y-143745735D01*
X202342338Y-143706078D01*
X202385708Y-143655980D01*
X202441058Y-143593843D01*
X202509451Y-143518072D01*
X202588084Y-143431334D01*
X202751878Y-143250711D01*
X202532029Y-143245067D01*
X202456351Y-143243029D01*
X202399994Y-143241063D01*
X202359706Y-143238734D01*
X202332235Y-143235606D01*
X202314329Y-143231245D01*
X202302737Y-143225216D01*
X202294208Y-143217084D01*
X202290623Y-143212772D01*
X202271670Y-143178241D01*
X202274441Y-143145383D01*
X202290633Y-143119318D01*
X202312199Y-143092667D01*
X202627151Y-143089352D01*
X202719779Y-143088435D01*
X202792544Y-143087968D01*
X202848161Y-143088113D01*
G36*
X202848161Y-143088113D02*
G01*
X202889342Y-143089032D01*
X202918803Y-143090887D01*
X202939255Y-143093839D01*
X202953413Y-143098050D01*
X202963991Y-143103682D01*
X202972474Y-143109927D01*
X202988207Y-143123439D01*
X202998636Y-143136883D01*
X203002639Y-143152124D01*
X202999094Y-143171026D01*
X202986879Y-143195455D01*
X202964871Y-143227273D01*
X202931949Y-143268348D01*
X202886991Y-143320542D01*
X202828875Y-143385722D01*
X202762099Y-143459556D01*
X202521458Y-143724845D01*
X202740589Y-143730489D01*
X202816128Y-143732531D01*
X202872354Y-143734502D01*
X202912524Y-143736839D01*
X202939896Y-143739981D01*
X202957728Y-143744364D01*
X202969279Y-143750424D01*
X202977807Y-143758600D01*
X202981282Y-143762784D01*
X203000372Y-143799765D01*
X202997493Y-143834708D01*
X202973100Y-143865136D01*
X202963286Y-143872097D01*
X202951826Y-143877523D01*
X202935968Y-143881603D01*
X202912963Y-143884529D01*
X202880062Y-143886492D01*
X202834516Y-143887683D01*
X202773573Y-143888292D01*
X202694486Y-143888511D01*
X202635956Y-143888534D01*
X202544407Y-143888460D01*
X202472687Y-143888113D01*
X202418045Y-143887301D01*
X202377732Y-143885833D01*
X202348998Y-143883519D01*
X202329093Y-143880167D01*
X202315268Y-143875588D01*
X202304772Y-143869589D01*
X202298811Y-143865136D01*
X202284691Y-143853850D01*
X202274029Y-143843301D01*
X202267892Y-143831893D01*
X202267343Y-143818030D01*
X202273448Y-143800114D01*
X202287273Y-143776548D01*
X202309881Y-143745735D01*
X202342338Y-143706078D01*
X202385708Y-143655980D01*
X202441058Y-143593843D01*
X202509451Y-143518072D01*
X202588084Y-143431334D01*
X202751878Y-143250711D01*
X202532029Y-143245067D01*
X202456351Y-143243029D01*
X202399994Y-143241063D01*
X202359706Y-143238734D01*
X202332235Y-143235606D01*
X202314329Y-143231245D01*
X202302737Y-143225216D01*
X202294208Y-143217084D01*
X202290623Y-143212772D01*
X202271670Y-143178241D01*
X202274441Y-143145383D01*
X202290633Y-143119318D01*
X202312199Y-143092667D01*
X202627151Y-143089352D01*
X202719779Y-143088435D01*
X202792544Y-143087968D01*
X202848161Y-143088113D01*
G37*
X202839535Y-144228609D02*
X202886786Y-144232848D01*
X202912012Y-144239936D01*
X202913988Y-144241311D01*
X202945508Y-144280228D01*
X202970470Y-144337286D01*
X202988340Y-144408869D01*
X202998586Y-144491358D01*
X203000673Y-144581139D01*
X202994068Y-144674592D01*
X202985956Y-144729556D01*
X202961554Y-144815766D01*
X202921662Y-144895892D01*
X202869887Y-144962977D01*
X202859539Y-144973173D01*
X202816035Y-145006302D01*
X202762118Y-145036194D01*
X202705592Y-145059357D01*
X202654259Y-145072298D01*
X202634544Y-145073858D01*
X202593419Y-145067218D01*
X202542252Y-145049568D01*
X202488394Y-145024297D01*
X202439195Y-144994789D01*
X202406334Y-144968719D01*
X202357452Y-144907765D01*
X202318545Y-144828969D01*
X202290494Y-144735157D01*
X202274179Y-144629150D01*
X202270192Y-144532000D01*
X202274599Y-144450081D01*
X202286095Y-144381565D01*
X202303967Y-144328943D01*
X202327499Y-144294708D01*
X202340924Y-144285379D01*
X202372148Y-144275893D01*
X202400395Y-144282277D01*
X202427182Y-144302430D01*
X202439713Y-144333745D01*
X202438696Y-144379183D01*
X202431906Y-144414326D01*
X202418971Y-144492419D01*
X202417742Y-144572226D01*
X202428241Y-144661555D01*
X202432690Y-144686229D01*
X202456108Y-144769291D01*
X202490945Y-144834273D01*
X202536604Y-144880461D01*
X202592494Y-144907145D01*
X202621388Y-144912663D01*
X202680012Y-144909051D01*
X202731879Y-144885729D01*
X202775978Y-144844824D01*
X202811299Y-144788459D01*
X202836829Y-144718760D01*
X202851559Y-144637852D01*
X202854478Y-144547860D01*
X202844575Y-144450910D01*
X202843641Y-144445436D01*
X202836459Y-144406875D01*
X202829521Y-144385494D01*
X202819227Y-144376227D01*
X202801976Y-144374006D01*
X202792841Y-144373956D01*
X202754489Y-144373956D01*
X202754489Y-144442431D01*
X202750347Y-144502900D01*
X202737147Y-144544165D01*
X202713730Y-144568175D01*
X202678936Y-144576877D01*
X202674394Y-144576983D01*
X202644654Y-144571892D01*
X202623419Y-144554433D01*
X202609366Y-144521939D01*
X202601173Y-144471743D01*
X202598161Y-144423123D01*
X202596433Y-144352456D01*
X202599070Y-144301198D01*
X202608800Y-144266239D01*
X202628353Y-144244470D01*
X202660456Y-144232780D01*
X202707838Y-144228060D01*
X202770071Y-144227200D01*
X202839535Y-144228609D01*
G36*
X202839535Y-144228609D02*
G01*
X202886786Y-144232848D01*
X202912012Y-144239936D01*
X202913988Y-144241311D01*
X202945508Y-144280228D01*
X202970470Y-144337286D01*
X202988340Y-144408869D01*
X202998586Y-144491358D01*
X203000673Y-144581139D01*
X202994068Y-144674592D01*
X202985956Y-144729556D01*
X202961554Y-144815766D01*
X202921662Y-144895892D01*
X202869887Y-144962977D01*
X202859539Y-144973173D01*
X202816035Y-145006302D01*
X202762118Y-145036194D01*
X202705592Y-145059357D01*
X202654259Y-145072298D01*
X202634544Y-145073858D01*
X202593419Y-145067218D01*
X202542252Y-145049568D01*
X202488394Y-145024297D01*
X202439195Y-144994789D01*
X202406334Y-144968719D01*
X202357452Y-144907765D01*
X202318545Y-144828969D01*
X202290494Y-144735157D01*
X202274179Y-144629150D01*
X202270192Y-144532000D01*
X202274599Y-144450081D01*
X202286095Y-144381565D01*
X202303967Y-144328943D01*
X202327499Y-144294708D01*
X202340924Y-144285379D01*
X202372148Y-144275893D01*
X202400395Y-144282277D01*
X202427182Y-144302430D01*
X202439713Y-144333745D01*
X202438696Y-144379183D01*
X202431906Y-144414326D01*
X202418971Y-144492419D01*
X202417742Y-144572226D01*
X202428241Y-144661555D01*
X202432690Y-144686229D01*
X202456108Y-144769291D01*
X202490945Y-144834273D01*
X202536604Y-144880461D01*
X202592494Y-144907145D01*
X202621388Y-144912663D01*
X202680012Y-144909051D01*
X202731879Y-144885729D01*
X202775978Y-144844824D01*
X202811299Y-144788459D01*
X202836829Y-144718760D01*
X202851559Y-144637852D01*
X202854478Y-144547860D01*
X202844575Y-144450910D01*
X202843641Y-144445436D01*
X202836459Y-144406875D01*
X202829521Y-144385494D01*
X202819227Y-144376227D01*
X202801976Y-144374006D01*
X202792841Y-144373956D01*
X202754489Y-144373956D01*
X202754489Y-144442431D01*
X202750347Y-144502900D01*
X202737147Y-144544165D01*
X202713730Y-144568175D01*
X202678936Y-144576877D01*
X202674394Y-144576983D01*
X202644654Y-144571892D01*
X202623419Y-144554433D01*
X202609366Y-144521939D01*
X202601173Y-144471743D01*
X202598161Y-144423123D01*
X202596433Y-144352456D01*
X202599070Y-144301198D01*
X202608800Y-144266239D01*
X202628353Y-144244470D01*
X202660456Y-144232780D01*
X202707838Y-144228060D01*
X202770071Y-144227200D01*
X202839535Y-144228609D01*
G37*
X202363992Y-142026869D02*
X202381503Y-142031604D01*
X202394574Y-142042667D01*
X202403913Y-142062652D01*
X202410227Y-142094154D01*
X202414222Y-142139768D01*
X202416606Y-142202087D01*
X202418086Y-142283707D01*
X202418414Y-142308723D01*
X202421467Y-142550800D01*
X202486378Y-142554186D01*
X202551289Y-142557571D01*
X202551289Y-142389424D01*
X202551531Y-142323734D01*
X202552556Y-142276828D01*
X202554811Y-142244917D01*
X202558742Y-142224209D01*
X202564798Y-142210916D01*
X202573424Y-142201245D01*
X202573493Y-142201183D01*
X202607112Y-142183644D01*
X202643448Y-142184278D01*
X202674423Y-142202686D01*
X202677607Y-142206329D01*
X202685812Y-142219259D01*
X202691521Y-142236976D01*
X202695162Y-142263430D01*
X202697167Y-142302568D01*
X202697964Y-142358338D01*
X202698045Y-142394006D01*
X202698045Y-142556445D01*
X202856089Y-142556445D01*
X202856089Y-142309839D01*
X202856231Y-142228420D01*
X202856814Y-142166590D01*
X202858068Y-142121363D01*
X202860227Y-142089752D01*
X202863523Y-142068769D01*
X202868189Y-142055427D01*
X202874457Y-142046739D01*
X202876733Y-142044550D01*
X202908280Y-142028386D01*
X202944168Y-142027203D01*
X202975285Y-142040464D01*
X202985271Y-142050957D01*
X202990769Y-142061871D01*
X202995022Y-142078783D01*
X202998180Y-142104367D01*
X203000392Y-142141299D01*
X203001806Y-142192254D01*
X203002572Y-142259906D01*
X203002838Y-142346931D01*
X203002845Y-142366606D01*
X203002787Y-142455089D01*
X203002467Y-142523773D01*
X203001667Y-142575436D01*
X203000167Y-142612855D01*
X202997749Y-142638810D01*
X202994194Y-142656078D01*
X202989282Y-142667438D01*
X202982795Y-142675668D01*
X202978138Y-142680183D01*
X202969889Y-142686979D01*
X202959669Y-142692288D01*
X202944800Y-142696294D01*
X202922602Y-142699179D01*
X202890393Y-142701126D01*
X202845496Y-142702319D01*
X202785228Y-142702939D01*
X202706911Y-142703171D01*
X202640994Y-142703200D01*
X202548628Y-142703129D01*
X202476117Y-142702792D01*
X202420737Y-142702002D01*
X202379765Y-142700574D01*
X202350478Y-142698321D01*
X202330153Y-142695057D01*
X202316066Y-142690596D01*
X202305495Y-142684752D01*
X202298811Y-142679803D01*
X202269067Y-142656406D01*
X202269067Y-142366226D01*
X202269260Y-142269657D01*
X202270174Y-142193299D01*
X202272311Y-142134783D01*
X202276175Y-142091745D01*
X202282267Y-142061817D01*
X202291090Y-142042632D01*
X202303146Y-142031824D01*
X202318939Y-142027027D01*
X202338970Y-142025873D01*
X202341335Y-142025867D01*
X202363992Y-142026869D01*
G36*
X202363992Y-142026869D02*
G01*
X202381503Y-142031604D01*
X202394574Y-142042667D01*
X202403913Y-142062652D01*
X202410227Y-142094154D01*
X202414222Y-142139768D01*
X202416606Y-142202087D01*
X202418086Y-142283707D01*
X202418414Y-142308723D01*
X202421467Y-142550800D01*
X202486378Y-142554186D01*
X202551289Y-142557571D01*
X202551289Y-142389424D01*
X202551531Y-142323734D01*
X202552556Y-142276828D01*
X202554811Y-142244917D01*
X202558742Y-142224209D01*
X202564798Y-142210916D01*
X202573424Y-142201245D01*
X202573493Y-142201183D01*
X202607112Y-142183644D01*
X202643448Y-142184278D01*
X202674423Y-142202686D01*
X202677607Y-142206329D01*
X202685812Y-142219259D01*
X202691521Y-142236976D01*
X202695162Y-142263430D01*
X202697167Y-142302568D01*
X202697964Y-142358338D01*
X202698045Y-142394006D01*
X202698045Y-142556445D01*
X202856089Y-142556445D01*
X202856089Y-142309839D01*
X202856231Y-142228420D01*
X202856814Y-142166590D01*
X202858068Y-142121363D01*
X202860227Y-142089752D01*
X202863523Y-142068769D01*
X202868189Y-142055427D01*
X202874457Y-142046739D01*
X202876733Y-142044550D01*
X202908280Y-142028386D01*
X202944168Y-142027203D01*
X202975285Y-142040464D01*
X202985271Y-142050957D01*
X202990769Y-142061871D01*
X202995022Y-142078783D01*
X202998180Y-142104367D01*
X203000392Y-142141299D01*
X203001806Y-142192254D01*
X203002572Y-142259906D01*
X203002838Y-142346931D01*
X203002845Y-142366606D01*
X203002787Y-142455089D01*
X203002467Y-142523773D01*
X203001667Y-142575436D01*
X203000167Y-142612855D01*
X202997749Y-142638810D01*
X202994194Y-142656078D01*
X202989282Y-142667438D01*
X202982795Y-142675668D01*
X202978138Y-142680183D01*
X202969889Y-142686979D01*
X202959669Y-142692288D01*
X202944800Y-142696294D01*
X202922602Y-142699179D01*
X202890393Y-142701126D01*
X202845496Y-142702319D01*
X202785228Y-142702939D01*
X202706911Y-142703171D01*
X202640994Y-142703200D01*
X202548628Y-142703129D01*
X202476117Y-142702792D01*
X202420737Y-142702002D01*
X202379765Y-142700574D01*
X202350478Y-142698321D01*
X202330153Y-142695057D01*
X202316066Y-142690596D01*
X202305495Y-142684752D01*
X202298811Y-142679803D01*
X202269067Y-142656406D01*
X202269067Y-142366226D01*
X202269260Y-142269657D01*
X202270174Y-142193299D01*
X202272311Y-142134783D01*
X202276175Y-142091745D01*
X202282267Y-142061817D01*
X202291090Y-142042632D01*
X202303146Y-142031824D01*
X202318939Y-142027027D01*
X202338970Y-142025873D01*
X202341335Y-142025867D01*
X202363992Y-142026869D01*
G37*
X202958667Y-146966963D02*
X202980267Y-146981689D01*
X202987066Y-146989546D01*
X202992346Y-146999688D01*
X202996298Y-147014844D01*
X202999113Y-147037741D01*
X203000982Y-147071109D01*
X203002098Y-147117675D01*
X203002651Y-147180167D01*
X203002833Y-147261314D01*
X203002845Y-147303422D01*
X203002765Y-147393598D01*
X203002398Y-147463924D01*
X203001552Y-147517129D01*
X203000036Y-147555940D01*
X202997659Y-147583087D01*
X202994229Y-147601298D01*
X202989554Y-147613300D01*
X202983444Y-147621822D01*
X202980267Y-147625156D01*
X202972670Y-147631755D01*
X202962870Y-147636927D01*
X202948239Y-147640846D01*
X202926152Y-147643684D01*
X202893982Y-147645615D01*
X202849103Y-147646812D01*
X202788889Y-147647448D01*
X202710713Y-147647697D01*
X202637923Y-147647734D01*
X202544707Y-147647700D01*
X202471431Y-147647465D01*
X202415458Y-147646830D01*
X202374151Y-147645594D01*
X202344872Y-147643556D01*
X202324984Y-147640517D01*
X202311850Y-147636277D01*
X202302832Y-147630635D01*
X202295293Y-147623391D01*
X202293612Y-147621606D01*
X202286172Y-147612945D01*
X202280409Y-147602882D01*
X202276112Y-147588625D01*
X202273064Y-147567383D01*
X202271051Y-147536364D01*
X202269860Y-147492777D01*
X202269275Y-147433831D01*
X202269083Y-147356734D01*
X202269067Y-147302001D01*
X202269146Y-147212794D01*
X202269518Y-147143386D01*
X202270385Y-147090997D01*
X202271946Y-147052847D01*
X202274403Y-147026159D01*
X202277957Y-147008153D01*
X202282810Y-146996049D01*
X202289161Y-146987069D01*
X202292084Y-146983818D01*
X202323142Y-146964043D01*
X202358828Y-146960482D01*
X202390510Y-146973491D01*
X202396913Y-146979506D01*
X202403121Y-146989235D01*
X202407910Y-147004901D01*
X202411514Y-147029408D01*
X202414164Y-147065661D01*
X202416095Y-147116565D01*
X202417539Y-147185026D01*
X202418418Y-147247617D01*
X202421467Y-147495334D01*
X202486378Y-147498719D01*
X202551289Y-147502105D01*
X202551289Y-147333958D01*
X202551919Y-147260959D01*
X202554553Y-147207517D01*
X202560309Y-147170628D01*
X202570304Y-147147288D01*
X202585656Y-147134494D01*
X202607482Y-147129242D01*
X202627738Y-147128445D01*
X202652592Y-147130923D01*
X202670906Y-147140277D01*
X202683637Y-147159383D01*
X202691741Y-147191118D01*
X202696176Y-147238359D01*
X202697899Y-147303983D01*
X202698045Y-147339801D01*
X202698045Y-147500978D01*
X202856089Y-147500978D01*
X202856089Y-147252622D01*
X202856202Y-147171213D01*
X202856712Y-147109342D01*
X202857870Y-147063968D01*
X202859930Y-147032054D01*
X202863146Y-147010559D01*
X202867772Y-146996443D01*
X202874059Y-146986668D01*
X202878667Y-146981689D01*
X202905560Y-146964610D01*
X202929467Y-146959111D01*
X202958667Y-146966963D01*
G36*
X202958667Y-146966963D02*
G01*
X202980267Y-146981689D01*
X202987066Y-146989546D01*
X202992346Y-146999688D01*
X202996298Y-147014844D01*
X202999113Y-147037741D01*
X203000982Y-147071109D01*
X203002098Y-147117675D01*
X203002651Y-147180167D01*
X203002833Y-147261314D01*
X203002845Y-147303422D01*
X203002765Y-147393598D01*
X203002398Y-147463924D01*
X203001552Y-147517129D01*
X203000036Y-147555940D01*
X202997659Y-147583087D01*
X202994229Y-147601298D01*
X202989554Y-147613300D01*
X202983444Y-147621822D01*
X202980267Y-147625156D01*
X202972670Y-147631755D01*
X202962870Y-147636927D01*
X202948239Y-147640846D01*
X202926152Y-147643684D01*
X202893982Y-147645615D01*
X202849103Y-147646812D01*
X202788889Y-147647448D01*
X202710713Y-147647697D01*
X202637923Y-147647734D01*
X202544707Y-147647700D01*
X202471431Y-147647465D01*
X202415458Y-147646830D01*
X202374151Y-147645594D01*
X202344872Y-147643556D01*
X202324984Y-147640517D01*
X202311850Y-147636277D01*
X202302832Y-147630635D01*
X202295293Y-147623391D01*
X202293612Y-147621606D01*
X202286172Y-147612945D01*
X202280409Y-147602882D01*
X202276112Y-147588625D01*
X202273064Y-147567383D01*
X202271051Y-147536364D01*
X202269860Y-147492777D01*
X202269275Y-147433831D01*
X202269083Y-147356734D01*
X202269067Y-147302001D01*
X202269146Y-147212794D01*
X202269518Y-147143386D01*
X202270385Y-147090997D01*
X202271946Y-147052847D01*
X202274403Y-147026159D01*
X202277957Y-147008153D01*
X202282810Y-146996049D01*
X202289161Y-146987069D01*
X202292084Y-146983818D01*
X202323142Y-146964043D01*
X202358828Y-146960482D01*
X202390510Y-146973491D01*
X202396913Y-146979506D01*
X202403121Y-146989235D01*
X202407910Y-147004901D01*
X202411514Y-147029408D01*
X202414164Y-147065661D01*
X202416095Y-147116565D01*
X202417539Y-147185026D01*
X202418418Y-147247617D01*
X202421467Y-147495334D01*
X202486378Y-147498719D01*
X202551289Y-147502105D01*
X202551289Y-147333958D01*
X202551919Y-147260959D01*
X202554553Y-147207517D01*
X202560309Y-147170628D01*
X202570304Y-147147288D01*
X202585656Y-147134494D01*
X202607482Y-147129242D01*
X202627738Y-147128445D01*
X202652592Y-147130923D01*
X202670906Y-147140277D01*
X202683637Y-147159383D01*
X202691741Y-147191118D01*
X202696176Y-147238359D01*
X202697899Y-147303983D01*
X202698045Y-147339801D01*
X202698045Y-147500978D01*
X202856089Y-147500978D01*
X202856089Y-147252622D01*
X202856202Y-147171213D01*
X202856712Y-147109342D01*
X202857870Y-147063968D01*
X202859930Y-147032054D01*
X202863146Y-147010559D01*
X202867772Y-146996443D01*
X202874059Y-146986668D01*
X202878667Y-146981689D01*
X202905560Y-146964610D01*
X202929467Y-146959111D01*
X202958667Y-146966963D01*
G37*
X202342361Y-138691004D02*
X202360895Y-138695039D01*
X202387257Y-138703854D01*
X202423752Y-138718331D01*
X202472687Y-138739355D01*
X202536365Y-138767812D01*
X202617093Y-138804585D01*
X202661216Y-138824825D01*
X202739985Y-138861375D01*
X202812423Y-138895685D01*
X202875880Y-138926448D01*
X202927708Y-138952352D01*
X202965259Y-138972090D01*
X202985884Y-138984350D01*
X202988733Y-138986776D01*
X203001302Y-139017817D01*
X202999619Y-139052879D01*
X202984332Y-139081000D01*
X202983089Y-139082146D01*
X202966154Y-139093332D01*
X202933170Y-139112096D01*
X202888380Y-139136125D01*
X202836032Y-139163103D01*
X202816742Y-139172799D01*
X202670150Y-139245986D01*
X202829393Y-139325760D01*
X202884415Y-139354233D01*
X202932132Y-139380650D01*
X202968893Y-139402852D01*
X202991044Y-139418681D01*
X202995741Y-139424046D01*
X203002102Y-139465743D01*
X202988733Y-139500151D01*
X202974446Y-139510272D01*
X202942692Y-139527786D01*
X202896597Y-139551265D01*
X202839285Y-139579280D01*
X202773880Y-139610401D01*
X202703507Y-139643201D01*
X202631291Y-139676250D01*
X202560355Y-139708119D01*
X202493825Y-139737381D01*
X202434826Y-139762605D01*
X202386481Y-139782364D01*
X202351915Y-139795228D01*
X202334253Y-139799769D01*
X202333613Y-139799723D01*
X202311388Y-139788674D01*
X202288753Y-139766590D01*
X202287768Y-139765290D01*
X202272425Y-139738147D01*
X202272574Y-139713042D01*
X202275466Y-139703632D01*
X202281718Y-139692166D01*
X202294014Y-139679990D01*
X202314908Y-139665643D01*
X202346949Y-139647664D01*
X202392688Y-139624593D01*
X202454677Y-139594970D01*
X202511898Y-139568255D01*
X202578226Y-139537520D01*
X202637874Y-139509979D01*
X202687725Y-139487062D01*
X202724664Y-139470202D01*
X202745573Y-139460827D01*
X202748845Y-139459460D01*
X202743497Y-139453311D01*
X202721109Y-139439178D01*
X202684946Y-139418943D01*
X202638277Y-139394485D01*
X202619022Y-139384752D01*
X202554004Y-139351783D01*
X202506654Y-139326357D01*
X202474219Y-139306388D01*
X202453946Y-139289790D01*
X202443082Y-139274476D01*
X202438875Y-139258360D01*
X202438400Y-139247857D01*
X202440042Y-139229330D01*
X202446831Y-139213096D01*
X202461566Y-139196965D01*
X202487044Y-139178749D01*
X202526061Y-139156261D01*
X202581414Y-139127311D01*
X202612903Y-139111338D01*
X202663087Y-139085430D01*
X202704704Y-139062833D01*
X202734242Y-139045542D01*
X202748189Y-139035550D01*
X202748770Y-139034191D01*
X202737793Y-139027739D01*
X202709290Y-139013292D01*
X202666244Y-138992297D01*
X202611638Y-138966203D01*
X202548454Y-138936454D01*
X202517071Y-138921820D01*
X202436078Y-138883750D01*
X202373756Y-138853095D01*
X202328071Y-138828263D01*
X202296989Y-138807663D01*
X202278478Y-138789702D01*
X202270504Y-138772790D01*
X202271034Y-138755335D01*
X202278035Y-138735745D01*
X202278377Y-138734990D01*
X202298678Y-138708387D01*
X202319561Y-138693730D01*
X202329352Y-138690862D01*
X202342361Y-138691004D01*
G36*
X202342361Y-138691004D02*
G01*
X202360895Y-138695039D01*
X202387257Y-138703854D01*
X202423752Y-138718331D01*
X202472687Y-138739355D01*
X202536365Y-138767812D01*
X202617093Y-138804585D01*
X202661216Y-138824825D01*
X202739985Y-138861375D01*
X202812423Y-138895685D01*
X202875880Y-138926448D01*
X202927708Y-138952352D01*
X202965259Y-138972090D01*
X202985884Y-138984350D01*
X202988733Y-138986776D01*
X203001302Y-139017817D01*
X202999619Y-139052879D01*
X202984332Y-139081000D01*
X202983089Y-139082146D01*
X202966154Y-139093332D01*
X202933170Y-139112096D01*
X202888380Y-139136125D01*
X202836032Y-139163103D01*
X202816742Y-139172799D01*
X202670150Y-139245986D01*
X202829393Y-139325760D01*
X202884415Y-139354233D01*
X202932132Y-139380650D01*
X202968893Y-139402852D01*
X202991044Y-139418681D01*
X202995741Y-139424046D01*
X203002102Y-139465743D01*
X202988733Y-139500151D01*
X202974446Y-139510272D01*
X202942692Y-139527786D01*
X202896597Y-139551265D01*
X202839285Y-139579280D01*
X202773880Y-139610401D01*
X202703507Y-139643201D01*
X202631291Y-139676250D01*
X202560355Y-139708119D01*
X202493825Y-139737381D01*
X202434826Y-139762605D01*
X202386481Y-139782364D01*
X202351915Y-139795228D01*
X202334253Y-139799769D01*
X202333613Y-139799723D01*
X202311388Y-139788674D01*
X202288753Y-139766590D01*
X202287768Y-139765290D01*
X202272425Y-139738147D01*
X202272574Y-139713042D01*
X202275466Y-139703632D01*
X202281718Y-139692166D01*
X202294014Y-139679990D01*
X202314908Y-139665643D01*
X202346949Y-139647664D01*
X202392688Y-139624593D01*
X202454677Y-139594970D01*
X202511898Y-139568255D01*
X202578226Y-139537520D01*
X202637874Y-139509979D01*
X202687725Y-139487062D01*
X202724664Y-139470202D01*
X202745573Y-139460827D01*
X202748845Y-139459460D01*
X202743497Y-139453311D01*
X202721109Y-139439178D01*
X202684946Y-139418943D01*
X202638277Y-139394485D01*
X202619022Y-139384752D01*
X202554004Y-139351783D01*
X202506654Y-139326357D01*
X202474219Y-139306388D01*
X202453946Y-139289790D01*
X202443082Y-139274476D01*
X202438875Y-139258360D01*
X202438400Y-139247857D01*
X202440042Y-139229330D01*
X202446831Y-139213096D01*
X202461566Y-139196965D01*
X202487044Y-139178749D01*
X202526061Y-139156261D01*
X202581414Y-139127311D01*
X202612903Y-139111338D01*
X202663087Y-139085430D01*
X202704704Y-139062833D01*
X202734242Y-139045542D01*
X202748189Y-139035550D01*
X202748770Y-139034191D01*
X202737793Y-139027739D01*
X202709290Y-139013292D01*
X202666244Y-138992297D01*
X202611638Y-138966203D01*
X202548454Y-138936454D01*
X202517071Y-138921820D01*
X202436078Y-138883750D01*
X202373756Y-138853095D01*
X202328071Y-138828263D01*
X202296989Y-138807663D01*
X202278478Y-138789702D01*
X202270504Y-138772790D01*
X202271034Y-138755335D01*
X202278035Y-138735745D01*
X202278377Y-138734990D01*
X202298678Y-138708387D01*
X202319561Y-138693730D01*
X202329352Y-138690862D01*
X202342361Y-138691004D01*
G37*
X202827712Y-145889576D02*
X202857259Y-145901202D01*
X202883486Y-145921323D01*
X202923576Y-145962216D01*
X202954149Y-146007817D01*
X202976203Y-146061513D01*
X202990735Y-146126692D01*
X202998741Y-146206744D01*
X203001218Y-146305057D01*
X203001177Y-146321289D01*
X202999818Y-146386849D01*
X202996730Y-146451866D01*
X202992356Y-146509252D01*
X202987140Y-146551922D01*
X202986541Y-146555372D01*
X202976491Y-146597796D01*
X202963796Y-146633780D01*
X202952190Y-146654150D01*
X202921572Y-146673107D01*
X202885918Y-146674427D01*
X202854144Y-146658085D01*
X202850551Y-146654429D01*
X202839876Y-146639315D01*
X202835276Y-146620415D01*
X202836059Y-146591162D01*
X202840127Y-146555651D01*
X202843762Y-146515970D01*
X202846828Y-146460345D01*
X202849053Y-146395406D01*
X202850164Y-146327785D01*
X202850237Y-146310000D01*
X202849964Y-146242128D01*
X202848646Y-146192454D01*
X202845827Y-146156610D01*
X202841050Y-146130224D01*
X202833857Y-146108926D01*
X202827867Y-146096126D01*
X202811233Y-146068000D01*
X202796168Y-146050068D01*
X202791897Y-146047447D01*
X202774263Y-146052976D01*
X202757192Y-146079260D01*
X202741458Y-146124478D01*
X202727838Y-146186808D01*
X202724804Y-146205171D01*
X202709738Y-146301090D01*
X202697146Y-146377641D01*
X202686111Y-146437780D01*
X202675720Y-146484460D01*
X202665056Y-146520637D01*
X202653205Y-146549265D01*
X202639251Y-146573298D01*
X202622281Y-146595692D01*
X202601378Y-146619402D01*
X202594049Y-146627380D01*
X202566699Y-146655353D01*
X202545029Y-146670160D01*
X202520232Y-146675952D01*
X202488983Y-146676889D01*
X202427705Y-146666575D01*
X202375640Y-146635752D01*
X202332958Y-146584595D01*
X202299825Y-146513283D01*
X202284964Y-146462400D01*
X202275366Y-146407100D01*
X202269936Y-146340853D01*
X202268367Y-146267706D01*
X202270351Y-146191703D01*
X202275581Y-146116888D01*
X202283750Y-146047306D01*
X202294550Y-145987002D01*
X202307673Y-145940020D01*
X202322813Y-145910406D01*
X202327269Y-145905860D01*
X202361850Y-145890054D01*
X202397351Y-145894847D01*
X202427725Y-145919364D01*
X202428596Y-145920534D01*
X202437954Y-145934954D01*
X202442876Y-145950008D01*
X202443473Y-145971005D01*
X202439861Y-146003257D01*
X202432154Y-146052073D01*
X202431505Y-146056000D01*
X202422569Y-146128739D01*
X202418161Y-146207217D01*
X202418119Y-146285927D01*
X202422279Y-146359361D01*
X202430479Y-146422011D01*
X202442557Y-146468370D01*
X202443771Y-146471416D01*
X202462615Y-146505048D01*
X202481685Y-146516864D01*
X202500439Y-146507614D01*
X202518337Y-146478047D01*
X202534837Y-146428911D01*
X202549396Y-146360957D01*
X202556406Y-146315645D01*
X202569889Y-146221456D01*
X202582214Y-146146544D01*
X202594449Y-146087717D01*
X202607661Y-146041785D01*
X202622917Y-146005555D01*
X202641285Y-145975838D01*
X202663831Y-145949442D01*
X202685971Y-145928230D01*
X202716819Y-145903065D01*
X202743345Y-145890681D01*
X202776026Y-145886808D01*
X202787995Y-145886667D01*
X202827712Y-145889576D01*
G36*
X202827712Y-145889576D02*
G01*
X202857259Y-145901202D01*
X202883486Y-145921323D01*
X202923576Y-145962216D01*
X202954149Y-146007817D01*
X202976203Y-146061513D01*
X202990735Y-146126692D01*
X202998741Y-146206744D01*
X203001218Y-146305057D01*
X203001177Y-146321289D01*
X202999818Y-146386849D01*
X202996730Y-146451866D01*
X202992356Y-146509252D01*
X202987140Y-146551922D01*
X202986541Y-146555372D01*
X202976491Y-146597796D01*
X202963796Y-146633780D01*
X202952190Y-146654150D01*
X202921572Y-146673107D01*
X202885918Y-146674427D01*
X202854144Y-146658085D01*
X202850551Y-146654429D01*
X202839876Y-146639315D01*
X202835276Y-146620415D01*
X202836059Y-146591162D01*
X202840127Y-146555651D01*
X202843762Y-146515970D01*
X202846828Y-146460345D01*
X202849053Y-146395406D01*
X202850164Y-146327785D01*
X202850237Y-146310000D01*
X202849964Y-146242128D01*
X202848646Y-146192454D01*
X202845827Y-146156610D01*
X202841050Y-146130224D01*
X202833857Y-146108926D01*
X202827867Y-146096126D01*
X202811233Y-146068000D01*
X202796168Y-146050068D01*
X202791897Y-146047447D01*
X202774263Y-146052976D01*
X202757192Y-146079260D01*
X202741458Y-146124478D01*
X202727838Y-146186808D01*
X202724804Y-146205171D01*
X202709738Y-146301090D01*
X202697146Y-146377641D01*
X202686111Y-146437780D01*
X202675720Y-146484460D01*
X202665056Y-146520637D01*
X202653205Y-146549265D01*
X202639251Y-146573298D01*
X202622281Y-146595692D01*
X202601378Y-146619402D01*
X202594049Y-146627380D01*
X202566699Y-146655353D01*
X202545029Y-146670160D01*
X202520232Y-146675952D01*
X202488983Y-146676889D01*
X202427705Y-146666575D01*
X202375640Y-146635752D01*
X202332958Y-146584595D01*
X202299825Y-146513283D01*
X202284964Y-146462400D01*
X202275366Y-146407100D01*
X202269936Y-146340853D01*
X202268367Y-146267706D01*
X202270351Y-146191703D01*
X202275581Y-146116888D01*
X202283750Y-146047306D01*
X202294550Y-145987002D01*
X202307673Y-145940020D01*
X202322813Y-145910406D01*
X202327269Y-145905860D01*
X202361850Y-145890054D01*
X202397351Y-145894847D01*
X202427725Y-145919364D01*
X202428596Y-145920534D01*
X202437954Y-145934954D01*
X202442876Y-145950008D01*
X202443473Y-145971005D01*
X202439861Y-146003257D01*
X202432154Y-146052073D01*
X202431505Y-146056000D01*
X202422569Y-146128739D01*
X202418161Y-146207217D01*
X202418119Y-146285927D01*
X202422279Y-146359361D01*
X202430479Y-146422011D01*
X202442557Y-146468370D01*
X202443771Y-146471416D01*
X202462615Y-146505048D01*
X202481685Y-146516864D01*
X202500439Y-146507614D01*
X202518337Y-146478047D01*
X202534837Y-146428911D01*
X202549396Y-146360957D01*
X202556406Y-146315645D01*
X202569889Y-146221456D01*
X202582214Y-146146544D01*
X202594449Y-146087717D01*
X202607661Y-146041785D01*
X202622917Y-146005555D01*
X202641285Y-145975838D01*
X202663831Y-145949442D01*
X202685971Y-145928230D01*
X202716819Y-145903065D01*
X202743345Y-145890681D01*
X202776026Y-145886808D01*
X202787995Y-145886667D01*
X202827712Y-145889576D01*
G37*
X201156718Y-141241854D02*
X201173999Y-141267433D01*
X201197283Y-141307127D01*
X201224934Y-141357703D01*
X201255315Y-141415926D01*
X201286790Y-141478563D01*
X201317722Y-141542379D01*
X201346473Y-141604140D01*
X201371408Y-141660612D01*
X201390889Y-141708562D01*
X201399318Y-141732014D01*
X201437133Y-141865779D01*
X201462136Y-142003673D01*
X201475140Y-142151378D01*
X201477468Y-142278167D01*
X201476373Y-142346122D01*
X201474275Y-142411723D01*
X201471434Y-142469153D01*
X201468106Y-142512597D01*
X201466422Y-142526702D01*
X201437587Y-142665716D01*
X201392468Y-142807243D01*
X201333750Y-142944725D01*
X201264120Y-143071606D01*
X201211441Y-143149111D01*
X201103239Y-143276519D01*
X200976671Y-143394822D01*
X200834866Y-143501828D01*
X200680951Y-143595348D01*
X200518053Y-143673190D01*
X200400756Y-143717044D01*
X200217128Y-143767292D01*
X200022581Y-143800791D01*
X199821325Y-143817551D01*
X199617568Y-143817584D01*
X199415521Y-143800899D01*
X199219392Y-143767507D01*
X199033391Y-143717420D01*
X199021803Y-143713603D01*
X198859750Y-143650719D01*
X198711832Y-143573972D01*
X198573865Y-143480758D01*
X198441661Y-143368473D01*
X198396399Y-143324608D01*
X198272457Y-143188466D01*
X198169915Y-143048509D01*
X198087656Y-142902589D01*
X198024564Y-142748558D01*
X197979523Y-142584268D01*
X197962033Y-142488711D01*
X197946466Y-142329977D01*
X197949071Y-142171571D01*
X197970245Y-142011430D01*
X198010385Y-141847490D01*
X198069889Y-141677687D01*
X198149154Y-141499957D01*
X198154699Y-141488690D01*
X198182725Y-141430995D01*
X198206802Y-141379448D01*
X198225249Y-141337809D01*
X198236386Y-141309838D01*
X198238933Y-141300267D01*
X198243941Y-141281050D01*
X198248147Y-141276439D01*
X198258580Y-141281542D01*
X198284868Y-141297582D01*
X198324257Y-141322712D01*
X198373991Y-141355086D01*
X198431315Y-141392857D01*
X198493476Y-141434178D01*
X198557718Y-141477202D01*
X198621285Y-141520083D01*
X198681425Y-141560974D01*
X198735380Y-141598029D01*
X198780397Y-141629400D01*
X198813721Y-141653241D01*
X198832597Y-141667706D01*
X198834787Y-141669691D01*
X198830138Y-141679809D01*
X198812962Y-141702150D01*
X198786440Y-141732720D01*
X198771964Y-141748464D01*
X198696682Y-141844953D01*
X198641241Y-141951664D01*
X198606141Y-142067168D01*
X198591880Y-142190038D01*
X198593051Y-142259439D01*
X198610212Y-142380577D01*
X198646094Y-142489795D01*
X198700959Y-142587418D01*
X198775070Y-142673772D01*
X198868688Y-142749185D01*
X198982076Y-142813982D01*
X199068667Y-142851399D01*
X199204366Y-142895252D01*
X199351850Y-142927572D01*
X199507314Y-142948443D01*
X199666956Y-142957949D01*
X199826973Y-142956173D01*
X199983561Y-142943197D01*
X200132918Y-142919106D01*
X200271240Y-142883982D01*
X200394724Y-142837908D01*
X200428978Y-142821627D01*
X200543064Y-142753380D01*
X200639557Y-142672921D01*
X200717670Y-142581430D01*
X200776617Y-142480089D01*
X200815612Y-142370080D01*
X200833868Y-142252585D01*
X200835211Y-142211117D01*
X200824290Y-142089559D01*
X200791474Y-141969122D01*
X200737439Y-141851334D01*
X200662865Y-141737723D01*
X200584539Y-141646315D01*
X200540008Y-141599785D01*
X200837271Y-141418517D01*
X200911433Y-141373420D01*
X200979646Y-141332181D01*
X201039459Y-141296265D01*
X201088420Y-141267134D01*
X201124079Y-141246250D01*
X201143984Y-141235076D01*
X201147079Y-141233625D01*
X201156718Y-141241854D01*
G36*
X201156718Y-141241854D02*
G01*
X201173999Y-141267433D01*
X201197283Y-141307127D01*
X201224934Y-141357703D01*
X201255315Y-141415926D01*
X201286790Y-141478563D01*
X201317722Y-141542379D01*
X201346473Y-141604140D01*
X201371408Y-141660612D01*
X201390889Y-141708562D01*
X201399318Y-141732014D01*
X201437133Y-141865779D01*
X201462136Y-142003673D01*
X201475140Y-142151378D01*
X201477468Y-142278167D01*
X201476373Y-142346122D01*
X201474275Y-142411723D01*
X201471434Y-142469153D01*
X201468106Y-142512597D01*
X201466422Y-142526702D01*
X201437587Y-142665716D01*
X201392468Y-142807243D01*
X201333750Y-142944725D01*
X201264120Y-143071606D01*
X201211441Y-143149111D01*
X201103239Y-143276519D01*
X200976671Y-143394822D01*
X200834866Y-143501828D01*
X200680951Y-143595348D01*
X200518053Y-143673190D01*
X200400756Y-143717044D01*
X200217128Y-143767292D01*
X200022581Y-143800791D01*
X199821325Y-143817551D01*
X199617568Y-143817584D01*
X199415521Y-143800899D01*
X199219392Y-143767507D01*
X199033391Y-143717420D01*
X199021803Y-143713603D01*
X198859750Y-143650719D01*
X198711832Y-143573972D01*
X198573865Y-143480758D01*
X198441661Y-143368473D01*
X198396399Y-143324608D01*
X198272457Y-143188466D01*
X198169915Y-143048509D01*
X198087656Y-142902589D01*
X198024564Y-142748558D01*
X197979523Y-142584268D01*
X197962033Y-142488711D01*
X197946466Y-142329977D01*
X197949071Y-142171571D01*
X197970245Y-142011430D01*
X198010385Y-141847490D01*
X198069889Y-141677687D01*
X198149154Y-141499957D01*
X198154699Y-141488690D01*
X198182725Y-141430995D01*
X198206802Y-141379448D01*
X198225249Y-141337809D01*
X198236386Y-141309838D01*
X198238933Y-141300267D01*
X198243941Y-141281050D01*
X198248147Y-141276439D01*
X198258580Y-141281542D01*
X198284868Y-141297582D01*
X198324257Y-141322712D01*
X198373991Y-141355086D01*
X198431315Y-141392857D01*
X198493476Y-141434178D01*
X198557718Y-141477202D01*
X198621285Y-141520083D01*
X198681425Y-141560974D01*
X198735380Y-141598029D01*
X198780397Y-141629400D01*
X198813721Y-141653241D01*
X198832597Y-141667706D01*
X198834787Y-141669691D01*
X198830138Y-141679809D01*
X198812962Y-141702150D01*
X198786440Y-141732720D01*
X198771964Y-141748464D01*
X198696682Y-141844953D01*
X198641241Y-141951664D01*
X198606141Y-142067168D01*
X198591880Y-142190038D01*
X198593051Y-142259439D01*
X198610212Y-142380577D01*
X198646094Y-142489795D01*
X198700959Y-142587418D01*
X198775070Y-142673772D01*
X198868688Y-142749185D01*
X198982076Y-142813982D01*
X199068667Y-142851399D01*
X199204366Y-142895252D01*
X199351850Y-142927572D01*
X199507314Y-142948443D01*
X199666956Y-142957949D01*
X199826973Y-142956173D01*
X199983561Y-142943197D01*
X200132918Y-142919106D01*
X200271240Y-142883982D01*
X200394724Y-142837908D01*
X200428978Y-142821627D01*
X200543064Y-142753380D01*
X200639557Y-142672921D01*
X200717670Y-142581430D01*
X200776617Y-142480089D01*
X200815612Y-142370080D01*
X200833868Y-142252585D01*
X200835211Y-142211117D01*
X200824290Y-142089559D01*
X200791474Y-141969122D01*
X200737439Y-141851334D01*
X200662865Y-141737723D01*
X200584539Y-141646315D01*
X200540008Y-141599785D01*
X200837271Y-141418517D01*
X200911433Y-141373420D01*
X200979646Y-141332181D01*
X201039459Y-141296265D01*
X201088420Y-141267134D01*
X201124079Y-141246250D01*
X201143984Y-141235076D01*
X201147079Y-141233625D01*
X201156718Y-141241854D01*
G37*
X201433689Y-137070045D02*
X201337733Y-137070045D01*
X201294370Y-137070776D01*
X201261205Y-137072728D01*
X201243424Y-137075537D01*
X201241778Y-137076779D01*
X201248662Y-137088201D01*
X201266505Y-137110916D01*
X201285879Y-137133615D01*
X201326614Y-137188200D01*
X201367617Y-137257679D01*
X201405123Y-137334730D01*
X201435364Y-137412035D01*
X201445012Y-137442887D01*
X201459578Y-137511384D01*
X201469539Y-137594236D01*
X201474583Y-137683629D01*
X201474396Y-137771752D01*
X201468666Y-137850793D01*
X201462858Y-137888489D01*
X201424797Y-138026586D01*
X201367073Y-138153887D01*
X201290211Y-138269708D01*
X201194739Y-138373363D01*
X201081179Y-138464167D01*
X200970381Y-138530969D01*
X200853625Y-138585836D01*
X200734276Y-138627837D01*
X200608283Y-138657833D01*
X200471594Y-138676689D01*
X200320158Y-138685268D01*
X200242711Y-138685994D01*
X200185934Y-138683900D01*
X200029895Y-138678143D01*
X199834059Y-138656198D01*
X199655332Y-138620214D01*
X199493845Y-138570241D01*
X199349726Y-138506332D01*
X199223106Y-138428538D01*
X199114115Y-138336911D01*
X199022883Y-138231503D01*
X198991932Y-138186338D01*
X198935785Y-138085389D01*
X198896174Y-137982099D01*
X198872014Y-137872011D01*
X198862219Y-137750670D01*
X198863265Y-137658164D01*
X198874231Y-137528510D01*
X198893231Y-137430443D01*
X199447465Y-137430443D01*
X199450722Y-137511784D01*
X199469615Y-137584620D01*
X199485184Y-137616574D01*
X199528181Y-137674499D01*
X199584953Y-137723456D01*
X199657575Y-137764610D01*
X199748121Y-137799126D01*
X199858666Y-137828167D01*
X199864533Y-137829448D01*
X199926788Y-137839619D01*
X200004594Y-137847261D01*
X200092720Y-137852330D01*
X200185934Y-137854783D01*
X200279002Y-137854576D01*
X200366692Y-137851663D01*
X200443772Y-137846000D01*
X200505009Y-137837545D01*
X200517350Y-137834962D01*
X200624633Y-137803160D01*
X200711658Y-137761502D01*
X200778642Y-137709637D01*
X200825805Y-137647219D01*
X200853365Y-137573900D01*
X200861541Y-137489331D01*
X200850551Y-137393165D01*
X200834829Y-137329689D01*
X200816639Y-137280546D01*
X200790791Y-137226417D01*
X200767089Y-137185756D01*
X200720721Y-137115200D01*
X199570530Y-137115200D01*
X199526962Y-137182608D01*
X199486040Y-137261133D01*
X199459389Y-137345319D01*
X199447465Y-137430443D01*
X198893231Y-137430443D01*
X198896046Y-137415916D01*
X198929714Y-137317125D01*
X198976236Y-137228879D01*
X199010448Y-137180014D01*
X199032362Y-137150647D01*
X199047333Y-137128957D01*
X199051733Y-137120747D01*
X199040904Y-137119132D01*
X199010251Y-137117841D01*
X198962526Y-137116862D01*
X198900479Y-137116183D01*
X198826862Y-137115790D01*
X198744427Y-137115670D01*
X198655925Y-137115812D01*
X198564107Y-137116203D01*
X198471724Y-137116829D01*
X198381528Y-137117680D01*
X198296271Y-137118740D01*
X198218703Y-137119999D01*
X198151576Y-137121444D01*
X198097641Y-137123062D01*
X198059650Y-137124839D01*
X198052667Y-137125331D01*
X197982251Y-137132908D01*
X197927102Y-137144469D01*
X197879981Y-137162208D01*
X197833647Y-137188318D01*
X197824067Y-137194585D01*
X197787378Y-137219017D01*
X197787378Y-136313689D01*
X199472245Y-136313493D01*
X199706662Y-136313474D01*
X199919603Y-136313448D01*
X200112168Y-136313375D01*
X200285459Y-136313218D01*
X200440576Y-136312936D01*
X200578620Y-136312491D01*
X200700692Y-136311844D01*
X200807894Y-136310955D01*
X200901326Y-136309787D01*
X200982090Y-136308299D01*
X201051286Y-136306454D01*
X201110015Y-136304211D01*
X201159379Y-136301531D01*
X201200478Y-136298377D01*
X201234413Y-136294708D01*
X201262286Y-136290487D01*
X201285198Y-136285673D01*
X201304249Y-136280227D01*
X201320540Y-136274112D01*
X201335173Y-136267288D01*
X201349249Y-136259715D01*
X201363868Y-136251355D01*
X201372974Y-136246161D01*
X201433689Y-136211896D01*
X201433689Y-137070045D01*
G36*
X201433689Y-137070045D02*
G01*
X201337733Y-137070045D01*
X201294370Y-137070776D01*
X201261205Y-137072728D01*
X201243424Y-137075537D01*
X201241778Y-137076779D01*
X201248662Y-137088201D01*
X201266505Y-137110916D01*
X201285879Y-137133615D01*
X201326614Y-137188200D01*
X201367617Y-137257679D01*
X201405123Y-137334730D01*
X201435364Y-137412035D01*
X201445012Y-137442887D01*
X201459578Y-137511384D01*
X201469539Y-137594236D01*
X201474583Y-137683629D01*
X201474396Y-137771752D01*
X201468666Y-137850793D01*
X201462858Y-137888489D01*
X201424797Y-138026586D01*
X201367073Y-138153887D01*
X201290211Y-138269708D01*
X201194739Y-138373363D01*
X201081179Y-138464167D01*
X200970381Y-138530969D01*
X200853625Y-138585836D01*
X200734276Y-138627837D01*
X200608283Y-138657833D01*
X200471594Y-138676689D01*
X200320158Y-138685268D01*
X200242711Y-138685994D01*
X200185934Y-138683900D01*
X200029895Y-138678143D01*
X199834059Y-138656198D01*
X199655332Y-138620214D01*
X199493845Y-138570241D01*
X199349726Y-138506332D01*
X199223106Y-138428538D01*
X199114115Y-138336911D01*
X199022883Y-138231503D01*
X198991932Y-138186338D01*
X198935785Y-138085389D01*
X198896174Y-137982099D01*
X198872014Y-137872011D01*
X198862219Y-137750670D01*
X198863265Y-137658164D01*
X198874231Y-137528510D01*
X198893231Y-137430443D01*
X199447465Y-137430443D01*
X199450722Y-137511784D01*
X199469615Y-137584620D01*
X199485184Y-137616574D01*
X199528181Y-137674499D01*
X199584953Y-137723456D01*
X199657575Y-137764610D01*
X199748121Y-137799126D01*
X199858666Y-137828167D01*
X199864533Y-137829448D01*
X199926788Y-137839619D01*
X200004594Y-137847261D01*
X200092720Y-137852330D01*
X200185934Y-137854783D01*
X200279002Y-137854576D01*
X200366692Y-137851663D01*
X200443772Y-137846000D01*
X200505009Y-137837545D01*
X200517350Y-137834962D01*
X200624633Y-137803160D01*
X200711658Y-137761502D01*
X200778642Y-137709637D01*
X200825805Y-137647219D01*
X200853365Y-137573900D01*
X200861541Y-137489331D01*
X200850551Y-137393165D01*
X200834829Y-137329689D01*
X200816639Y-137280546D01*
X200790791Y-137226417D01*
X200767089Y-137185756D01*
X200720721Y-137115200D01*
X199570530Y-137115200D01*
X199526962Y-137182608D01*
X199486040Y-137261133D01*
X199459389Y-137345319D01*
X199447465Y-137430443D01*
X198893231Y-137430443D01*
X198896046Y-137415916D01*
X198929714Y-137317125D01*
X198976236Y-137228879D01*
X199010448Y-137180014D01*
X199032362Y-137150647D01*
X199047333Y-137128957D01*
X199051733Y-137120747D01*
X199040904Y-137119132D01*
X199010251Y-137117841D01*
X198962526Y-137116862D01*
X198900479Y-137116183D01*
X198826862Y-137115790D01*
X198744427Y-137115670D01*
X198655925Y-137115812D01*
X198564107Y-137116203D01*
X198471724Y-137116829D01*
X198381528Y-137117680D01*
X198296271Y-137118740D01*
X198218703Y-137119999D01*
X198151576Y-137121444D01*
X198097641Y-137123062D01*
X198059650Y-137124839D01*
X198052667Y-137125331D01*
X197982251Y-137132908D01*
X197927102Y-137144469D01*
X197879981Y-137162208D01*
X197833647Y-137188318D01*
X197824067Y-137194585D01*
X197787378Y-137219017D01*
X197787378Y-136313689D01*
X199472245Y-136313493D01*
X199706662Y-136313474D01*
X199919603Y-136313448D01*
X200112168Y-136313375D01*
X200285459Y-136313218D01*
X200440576Y-136312936D01*
X200578620Y-136312491D01*
X200700692Y-136311844D01*
X200807894Y-136310955D01*
X200901326Y-136309787D01*
X200982090Y-136308299D01*
X201051286Y-136306454D01*
X201110015Y-136304211D01*
X201159379Y-136301531D01*
X201200478Y-136298377D01*
X201234413Y-136294708D01*
X201262286Y-136290487D01*
X201285198Y-136285673D01*
X201304249Y-136280227D01*
X201320540Y-136274112D01*
X201335173Y-136267288D01*
X201349249Y-136259715D01*
X201363868Y-136251355D01*
X201372974Y-136246161D01*
X201433689Y-136211896D01*
X201433689Y-137070045D01*
G37*
X201426121Y-138898433D02*
X201428147Y-138929418D01*
X201429942Y-138978043D01*
X201431451Y-139041837D01*
X201432616Y-139118331D01*
X201433380Y-139205056D01*
X201433686Y-139299543D01*
X201433689Y-139310450D01*
X201433689Y-139733343D01*
X201337622Y-139736605D01*
X201241556Y-139739867D01*
X201292543Y-139801956D01*
X201360057Y-139899286D01*
X201414749Y-140009187D01*
X201444978Y-140095651D01*
X201459666Y-140164722D01*
X201469659Y-140248075D01*
X201474646Y-140337841D01*
X201474313Y-140426155D01*
X201468351Y-140505149D01*
X201462638Y-140541378D01*
X201424776Y-140681397D01*
X201369932Y-140807822D01*
X201298924Y-140919740D01*
X201212568Y-141016238D01*
X201111679Y-141096400D01*
X200997076Y-141159313D01*
X200870984Y-141203688D01*
X200814401Y-141216022D01*
X200752202Y-141223632D01*
X200677363Y-141227261D01*
X200643467Y-141227755D01*
X200640282Y-141227690D01*
X200549712Y-141225822D01*
X200470812Y-141217478D01*
X200399590Y-141201232D01*
X200328864Y-141175595D01*
X200276493Y-141151599D01*
X200181196Y-141092980D01*
X200093170Y-141014883D01*
X200014017Y-140919685D01*
X199945340Y-140809762D01*
X199888741Y-140687490D01*
X199845821Y-140555245D01*
X199830882Y-140490578D01*
X199808777Y-140354396D01*
X199794194Y-140205951D01*
X199787813Y-140054495D01*
X199789110Y-139953894D01*
X200311842Y-139953894D01*
X200317096Y-140074670D01*
X200333263Y-140177340D01*
X200360961Y-140263894D01*
X200400808Y-140336319D01*
X200447758Y-140391249D01*
X200505645Y-140435796D01*
X200568693Y-140460520D01*
X200640282Y-140467752D01*
X200715333Y-140458459D01*
X200779160Y-140430272D01*
X200834798Y-140381803D01*
X200839211Y-140376746D01*
X200874037Y-140328452D01*
X200896620Y-140276743D01*
X200908540Y-140216011D01*
X200911383Y-140140648D01*
X200910978Y-140122541D01*
X200908325Y-140068722D01*
X200902909Y-140028692D01*
X200892745Y-139993676D01*
X200875850Y-139954897D01*
X200870672Y-139944255D01*
X200834844Y-139883604D01*
X200792212Y-139836785D01*
X200776973Y-139824048D01*
X200720462Y-139779378D01*
X200524586Y-139779378D01*
X200445939Y-139779914D01*
X200387988Y-139781604D01*
X200348875Y-139784572D01*
X200326741Y-139788943D01*
X200320274Y-139793028D01*
X200317111Y-139808953D01*
X200314488Y-139842736D01*
X200312655Y-139889660D01*
X200311857Y-139945007D01*
X200311842Y-139953894D01*
X199789110Y-139953894D01*
X199789445Y-139927936D01*
X199796224Y-139766050D01*
X199737245Y-139773470D01*
X199638092Y-139792762D01*
X199557372Y-139823896D01*
X199494466Y-139867731D01*
X199448756Y-139925129D01*
X199419622Y-139996952D01*
X199406447Y-140084059D01*
X199408611Y-140187314D01*
X199412612Y-140225289D01*
X199437780Y-140366480D01*
X199478814Y-140503293D01*
X199516815Y-140597822D01*
X199536190Y-140642982D01*
X199551760Y-140681415D01*
X199561405Y-140707766D01*
X199563452Y-140715454D01*
X199554374Y-140725198D01*
X199525405Y-140741917D01*
X199476217Y-140765768D01*
X199406484Y-140796907D01*
X199315879Y-140835493D01*
X199300089Y-140842090D01*
X199227772Y-140872147D01*
X199162425Y-140899126D01*
X199106906Y-140921864D01*
X199064072Y-140939194D01*
X199036781Y-140949952D01*
X199027942Y-140953059D01*
X199023187Y-140943060D01*
X199017910Y-140916783D01*
X199014231Y-140888511D01*
X199009474Y-140858354D01*
X199000028Y-140810567D01*
X198986820Y-140749388D01*
X198970776Y-140679054D01*
X198952820Y-140603806D01*
X198945797Y-140575245D01*
X198920209Y-140470184D01*
X198900147Y-140382520D01*
X198884969Y-140307932D01*
X198874035Y-140242097D01*
X198866704Y-140180693D01*
X198862335Y-140119398D01*
X198860287Y-140053890D01*
X198859889Y-139995872D01*
X198866552Y-139826426D01*
X198886567Y-139674508D01*
X198920202Y-139539244D01*
X198967725Y-139419761D01*
X199029405Y-139315185D01*
X199092965Y-139237576D01*
X199167099Y-139168735D01*
X199246871Y-139114994D01*
X199339091Y-139072090D01*
X199382161Y-139056616D01*
X199421142Y-139043756D01*
X199457289Y-139032554D01*
X199492434Y-139022880D01*
X199528410Y-139014604D01*
X199567050Y-139007597D01*
X199610185Y-139001728D01*
X199659649Y-138996869D01*
X199717273Y-138992890D01*
X199784891Y-138989660D01*
X199864334Y-138987051D01*
X199957436Y-138984933D01*
X200066027Y-138983176D01*
X200191942Y-138981651D01*
X200337012Y-138980228D01*
X200479778Y-138978975D01*
X200635968Y-138977649D01*
X200771239Y-138976444D01*
X200887246Y-138975234D01*
X200985645Y-138973894D01*
X201068093Y-138972300D01*
X201136246Y-138970325D01*
X201191760Y-138967844D01*
X201236292Y-138964731D01*
X201271498Y-138960862D01*
X201299034Y-138956111D01*
X201320556Y-138950352D01*
X201337722Y-138943461D01*
X201352186Y-138935311D01*
X201365606Y-138925777D01*
X201379638Y-138914734D01*
X201385071Y-138910434D01*
X201407910Y-138894614D01*
X201423463Y-138887578D01*
X201423922Y-138887556D01*
X201426121Y-138898433D01*
G36*
X201426121Y-138898433D02*
G01*
X201428147Y-138929418D01*
X201429942Y-138978043D01*
X201431451Y-139041837D01*
X201432616Y-139118331D01*
X201433380Y-139205056D01*
X201433686Y-139299543D01*
X201433689Y-139310450D01*
X201433689Y-139733343D01*
X201337622Y-139736605D01*
X201241556Y-139739867D01*
X201292543Y-139801956D01*
X201360057Y-139899286D01*
X201414749Y-140009187D01*
X201444978Y-140095651D01*
X201459666Y-140164722D01*
X201469659Y-140248075D01*
X201474646Y-140337841D01*
X201474313Y-140426155D01*
X201468351Y-140505149D01*
X201462638Y-140541378D01*
X201424776Y-140681397D01*
X201369932Y-140807822D01*
X201298924Y-140919740D01*
X201212568Y-141016238D01*
X201111679Y-141096400D01*
X200997076Y-141159313D01*
X200870984Y-141203688D01*
X200814401Y-141216022D01*
X200752202Y-141223632D01*
X200677363Y-141227261D01*
X200643467Y-141227755D01*
X200640282Y-141227690D01*
X200549712Y-141225822D01*
X200470812Y-141217478D01*
X200399590Y-141201232D01*
X200328864Y-141175595D01*
X200276493Y-141151599D01*
X200181196Y-141092980D01*
X200093170Y-141014883D01*
X200014017Y-140919685D01*
X199945340Y-140809762D01*
X199888741Y-140687490D01*
X199845821Y-140555245D01*
X199830882Y-140490578D01*
X199808777Y-140354396D01*
X199794194Y-140205951D01*
X199787813Y-140054495D01*
X199789110Y-139953894D01*
X200311842Y-139953894D01*
X200317096Y-140074670D01*
X200333263Y-140177340D01*
X200360961Y-140263894D01*
X200400808Y-140336319D01*
X200447758Y-140391249D01*
X200505645Y-140435796D01*
X200568693Y-140460520D01*
X200640282Y-140467752D01*
X200715333Y-140458459D01*
X200779160Y-140430272D01*
X200834798Y-140381803D01*
X200839211Y-140376746D01*
X200874037Y-140328452D01*
X200896620Y-140276743D01*
X200908540Y-140216011D01*
X200911383Y-140140648D01*
X200910978Y-140122541D01*
X200908325Y-140068722D01*
X200902909Y-140028692D01*
X200892745Y-139993676D01*
X200875850Y-139954897D01*
X200870672Y-139944255D01*
X200834844Y-139883604D01*
X200792212Y-139836785D01*
X200776973Y-139824048D01*
X200720462Y-139779378D01*
X200524586Y-139779378D01*
X200445939Y-139779914D01*
X200387988Y-139781604D01*
X200348875Y-139784572D01*
X200326741Y-139788943D01*
X200320274Y-139793028D01*
X200317111Y-139808953D01*
X200314488Y-139842736D01*
X200312655Y-139889660D01*
X200311857Y-139945007D01*
X200311842Y-139953894D01*
X199789110Y-139953894D01*
X199789445Y-139927936D01*
X199796224Y-139766050D01*
X199737245Y-139773470D01*
X199638092Y-139792762D01*
X199557372Y-139823896D01*
X199494466Y-139867731D01*
X199448756Y-139925129D01*
X199419622Y-139996952D01*
X199406447Y-140084059D01*
X199408611Y-140187314D01*
X199412612Y-140225289D01*
X199437780Y-140366480D01*
X199478814Y-140503293D01*
X199516815Y-140597822D01*
X199536190Y-140642982D01*
X199551760Y-140681415D01*
X199561405Y-140707766D01*
X199563452Y-140715454D01*
X199554374Y-140725198D01*
X199525405Y-140741917D01*
X199476217Y-140765768D01*
X199406484Y-140796907D01*
X199315879Y-140835493D01*
X199300089Y-140842090D01*
X199227772Y-140872147D01*
X199162425Y-140899126D01*
X199106906Y-140921864D01*
X199064072Y-140939194D01*
X199036781Y-140949952D01*
X199027942Y-140953059D01*
X199023187Y-140943060D01*
X199017910Y-140916783D01*
X199014231Y-140888511D01*
X199009474Y-140858354D01*
X199000028Y-140810567D01*
X198986820Y-140749388D01*
X198970776Y-140679054D01*
X198952820Y-140603806D01*
X198945797Y-140575245D01*
X198920209Y-140470184D01*
X198900147Y-140382520D01*
X198884969Y-140307932D01*
X198874035Y-140242097D01*
X198866704Y-140180693D01*
X198862335Y-140119398D01*
X198860287Y-140053890D01*
X198859889Y-139995872D01*
X198866552Y-139826426D01*
X198886567Y-139674508D01*
X198920202Y-139539244D01*
X198967725Y-139419761D01*
X199029405Y-139315185D01*
X199092965Y-139237576D01*
X199167099Y-139168735D01*
X199246871Y-139114994D01*
X199339091Y-139072090D01*
X199382161Y-139056616D01*
X199421142Y-139043756D01*
X199457289Y-139032554D01*
X199492434Y-139022880D01*
X199528410Y-139014604D01*
X199567050Y-139007597D01*
X199610185Y-139001728D01*
X199659649Y-138996869D01*
X199717273Y-138992890D01*
X199784891Y-138989660D01*
X199864334Y-138987051D01*
X199957436Y-138984933D01*
X200066027Y-138983176D01*
X200191942Y-138981651D01*
X200337012Y-138980228D01*
X200479778Y-138978975D01*
X200635968Y-138977649D01*
X200771239Y-138976444D01*
X200887246Y-138975234D01*
X200985645Y-138973894D01*
X201068093Y-138972300D01*
X201136246Y-138970325D01*
X201191760Y-138967844D01*
X201236292Y-138964731D01*
X201271498Y-138960862D01*
X201299034Y-138956111D01*
X201320556Y-138950352D01*
X201337722Y-138943461D01*
X201352186Y-138935311D01*
X201365606Y-138925777D01*
X201379638Y-138914734D01*
X201385071Y-138910434D01*
X201407910Y-138894614D01*
X201423463Y-138887578D01*
X201423922Y-138887556D01*
X201426121Y-138898433D01*
G37*
X199922739Y-144057876D02*
X200163241Y-144057908D01*
X200383048Y-144057972D01*
X200583101Y-144058076D01*
X200764344Y-144058227D01*
X200927716Y-144058434D01*
X201074160Y-144058706D01*
X201204617Y-144059050D01*
X201320029Y-144059474D01*
X201421338Y-144059987D01*
X201509484Y-144060597D01*
X201585410Y-144061312D01*
X201650057Y-144062140D01*
X201704367Y-144063089D01*
X201749280Y-144064167D01*
X201785740Y-144065383D01*
X201814687Y-144066745D01*
X201837063Y-144068261D01*
X201853809Y-144069938D01*
X201865868Y-144071786D01*
X201874180Y-144073813D01*
X201879687Y-144076025D01*
X201881537Y-144077108D01*
X201888549Y-144081271D01*
X201894996Y-144084805D01*
X201900900Y-144088635D01*
X201906286Y-144093682D01*
X201911178Y-144100871D01*
X201915598Y-144111123D01*
X201919572Y-144125364D01*
X201923121Y-144144514D01*
X201926270Y-144169499D01*
X201929042Y-144201240D01*
X201931461Y-144240662D01*
X201933551Y-144288686D01*
X201935335Y-144346237D01*
X201936837Y-144414237D01*
X201938080Y-144493610D01*
X201939089Y-144585279D01*
X201939885Y-144690166D01*
X201940494Y-144809196D01*
X201940939Y-144943290D01*
X201941243Y-145093373D01*
X201941430Y-145260367D01*
X201941524Y-145445196D01*
X201941548Y-145648783D01*
X201941525Y-145872050D01*
X201941480Y-146115922D01*
X201941437Y-146381321D01*
X201941432Y-146419704D01*
X201941389Y-146686682D01*
X201941318Y-146932002D01*
X201941213Y-147156583D01*
X201941066Y-147361345D01*
X201940869Y-147547206D01*
X201940616Y-147715088D01*
X201940300Y-147865908D01*
X201939913Y-148000587D01*
X201939447Y-148120044D01*
X201938897Y-148225199D01*
X201938253Y-148316971D01*
X201937511Y-148396279D01*
X201936661Y-148464043D01*
X201935697Y-148521182D01*
X201934611Y-148568617D01*
X201933397Y-148607266D01*
X201932047Y-148638049D01*
X201930555Y-148661885D01*
X201928911Y-148679694D01*
X201927111Y-148692395D01*
X201925145Y-148700908D01*
X201923477Y-148705266D01*
X201919906Y-148713728D01*
X201917270Y-148721497D01*
X201914634Y-148728602D01*
X201911062Y-148735073D01*
X201905621Y-148740939D01*
X201897375Y-148746229D01*
X201885390Y-148750974D01*
X201868731Y-148755202D01*
X201846463Y-148758943D01*
X201817652Y-148762227D01*
X201781363Y-148765083D01*
X201736661Y-148767540D01*
X201682611Y-148769629D01*
X201618279Y-148771378D01*
X201542730Y-148772817D01*
X201455030Y-148773976D01*
X201354243Y-148774883D01*
X201239434Y-148775569D01*
X201109670Y-148776063D01*
X200964015Y-148776395D01*
X200801535Y-148776593D01*
X200621295Y-148776687D01*
X200422360Y-148776708D01*
X200203796Y-148776685D01*
X199964668Y-148776646D01*
X199704040Y-148776622D01*
X199661889Y-148776622D01*
X199398992Y-148776636D01*
X199157732Y-148776661D01*
X198937165Y-148776671D01*
X198736352Y-148776642D01*
X198554349Y-148776548D01*
X198390216Y-148776362D01*
X198243011Y-148776059D01*
X198111792Y-148775614D01*
X198001867Y-148775034D01*
X197995617Y-148775001D01*
X197893544Y-148774195D01*
X197804633Y-148773170D01*
X197727941Y-148771900D01*
X197662527Y-148770360D01*
X197607449Y-148768524D01*
X197561765Y-148766367D01*
X197524534Y-148763863D01*
X197494813Y-148760987D01*
X197471662Y-148757713D01*
X197454139Y-148754015D01*
X197441301Y-148749869D01*
X197432208Y-148745247D01*
X197425918Y-148740126D01*
X197421488Y-148734478D01*
X197417978Y-148728279D01*
X197414445Y-148721504D01*
X197410876Y-148715508D01*
X197408300Y-148710275D01*
X197405972Y-148702099D01*
X197403878Y-148689886D01*
X197402007Y-148672541D01*
X197400347Y-148648969D01*
X197398884Y-148618077D01*
X197397608Y-148578768D01*
X197396504Y-148529950D01*
X197395561Y-148470527D01*
X197394767Y-148399404D01*
X197394109Y-148315488D01*
X197393575Y-148217683D01*
X197393153Y-148104894D01*
X197392829Y-147976029D01*
X197392592Y-147829991D01*
X197392430Y-147665686D01*
X197392330Y-147482020D01*
X197392280Y-147277897D01*
X197392267Y-147066753D01*
X197392267Y-146674116D01*
X198001867Y-146674116D01*
X198049844Y-146668827D01*
X198107188Y-146672130D01*
X198175463Y-146693661D01*
X198255212Y-146733635D01*
X198327495Y-146778943D01*
X198350140Y-146795161D01*
X198387696Y-146823214D01*
X198438021Y-146861430D01*
X198498973Y-146908137D01*
X198568411Y-146961661D01*
X198644194Y-147020331D01*
X198724180Y-147082475D01*
X198806228Y-147146421D01*
X198888196Y-147210495D01*
X198967943Y-147273027D01*
X199043327Y-147332343D01*
X199112207Y-147386771D01*
X199172442Y-147434639D01*
X199221889Y-147474275D01*
X199258408Y-147504006D01*
X199279858Y-147522161D01*
X199283156Y-147525220D01*
X199275149Y-147528079D01*
X199244855Y-147530293D01*
X199192556Y-147531857D01*
X199118531Y-147532767D01*
X199023063Y-147533020D01*
X198906434Y-147532613D01*
X198786445Y-147531704D01*
X198654333Y-147530382D01*
X198542594Y-147528857D01*
X198449025Y-147526881D01*
X198371419Y-147524206D01*
X198307574Y-147520582D01*
X198255283Y-147515761D01*
X198212344Y-147509494D01*
X198176551Y-147501532D01*
X198145700Y-147491627D01*
X198117586Y-147479531D01*
X198090005Y-147464993D01*
X198064966Y-147450311D01*
X198001867Y-147412314D01*
X198001867Y-148472197D01*
X198059711Y-148432407D01*
X198075479Y-148421236D01*
X198089441Y-148411166D01*
X198102784Y-148402138D01*
X198116693Y-148394097D01*
X198132356Y-148386986D01*
X198150958Y-148380747D01*
X198173686Y-148375325D01*
X198201727Y-148370662D01*
X198236267Y-148366701D01*
X198278492Y-148363385D01*
X198329589Y-148360659D01*
X198390744Y-148358464D01*
X198463144Y-148356745D01*
X198547975Y-148355444D01*
X198646422Y-148354505D01*
X198759674Y-148353870D01*
X198888916Y-148353484D01*
X199035334Y-148353288D01*
X199200116Y-148353227D01*
X199384447Y-148353243D01*
X199589513Y-148353280D01*
X199712133Y-148353289D01*
X199929082Y-148353265D01*
X200124642Y-148353231D01*
X200299999Y-148353243D01*
X200456341Y-148353358D01*
X200594857Y-148353630D01*
X200716734Y-148354118D01*
X200823160Y-148354876D01*
X200915322Y-148355962D01*
X200994409Y-148357431D01*
X201061608Y-148359340D01*
X201118107Y-148361744D01*
X201165093Y-148364701D01*
X201203755Y-148368266D01*
X201235280Y-148372495D01*
X201260855Y-148377446D01*
X201281670Y-148383173D01*
X201298911Y-148389733D01*
X201313765Y-148397183D01*
X201327422Y-148405579D01*
X201341069Y-148414976D01*
X201355893Y-148425432D01*
X201364783Y-148431523D01*
X201422400Y-148470296D01*
X201422400Y-147938732D01*
X201422365Y-147815483D01*
X201422215Y-147712987D01*
X201421878Y-147629420D01*
X201421286Y-147562956D01*
X201420367Y-147511771D01*
X201419051Y-147474041D01*
X201417269Y-147447940D01*
X201414951Y-147431644D01*
X201412026Y-147423328D01*
X201408424Y-147421168D01*
X201404075Y-147423339D01*
X201402645Y-147424535D01*
X201365573Y-147449685D01*
X201312772Y-147475583D01*
X201250770Y-147499192D01*
X201224357Y-147507461D01*
X201206416Y-147512078D01*
X201185355Y-147515979D01*
X201159089Y-147519248D01*
X201125532Y-147521966D01*
X201082599Y-147524215D01*
X201028204Y-147526077D01*
X200960262Y-147527636D01*
X200876688Y-147528972D01*
X200775395Y-147530169D01*
X200654300Y-147531308D01*
X200609600Y-147531685D01*
X200484449Y-147532702D01*
X200380082Y-147533460D01*
X200294707Y-147533903D01*
X200226533Y-147533970D01*
X200173765Y-147533605D01*
X200134614Y-147532748D01*
X200107285Y-147531341D01*
X200089986Y-147529325D01*
X200080926Y-147526643D01*
X200078312Y-147523236D01*
X200080351Y-147519044D01*
X200084667Y-147514571D01*
X200097602Y-147504216D01*
X200126676Y-147482158D01*
X200169759Y-147449957D01*
X200224718Y-147409174D01*
X200289423Y-147361370D01*
X200361742Y-147308105D01*
X200439544Y-147250940D01*
X200520698Y-147191437D01*
X200603072Y-147131155D01*
X200684536Y-147071655D01*
X200762957Y-147014498D01*
X200836204Y-146961245D01*
X200902147Y-146913457D01*
X200958654Y-146872693D01*
X201003593Y-146840516D01*
X201034834Y-146818485D01*
X201041466Y-146813917D01*
X201078369Y-146790996D01*
X201126359Y-146764188D01*
X201175897Y-146738789D01*
X201182577Y-146735568D01*
X201230772Y-146713890D01*
X201268334Y-146701304D01*
X201304160Y-146695574D01*
X201346200Y-146694456D01*
X201422400Y-146695090D01*
X201422400Y-145540651D01*
X201328669Y-145631815D01*
X201278775Y-145678612D01*
X201222295Y-145728899D01*
X201168026Y-145774944D01*
X201142673Y-145795369D01*
X201103128Y-145825807D01*
X201049916Y-145865862D01*
X200984667Y-145914361D01*
X200909011Y-145970135D01*
X200824577Y-146032011D01*
X200732994Y-146098819D01*
X200635892Y-146169387D01*
X200534901Y-146242545D01*
X200431650Y-146317121D01*
X200327768Y-146391944D01*
X200224885Y-146465843D01*
X200124631Y-146537646D01*
X200028636Y-146606184D01*
X199938527Y-146670284D01*
X199855936Y-146728775D01*
X199782492Y-146780486D01*
X199719824Y-146824247D01*
X199669561Y-146858885D01*
X199633334Y-146883230D01*
X199612771Y-146896111D01*
X199608668Y-146897869D01*
X199597342Y-146889910D01*
X199570162Y-146869115D01*
X199528829Y-146836847D01*
X199475044Y-146794470D01*
X199410506Y-146743347D01*
X199336918Y-146684841D01*
X199255978Y-146620314D01*
X199169388Y-146551131D01*
X199078848Y-146478653D01*
X198986060Y-146404246D01*
X198911702Y-146344517D01*
X198892722Y-146329270D01*
X198800537Y-146255090D01*
X198711204Y-146183069D01*
X198626424Y-146114569D01*
X198547898Y-146050955D01*
X198477326Y-145993588D01*
X198416409Y-145943833D01*
X198366847Y-145903052D01*
X198346178Y-145885888D01*
X198245516Y-145799596D01*
X198162259Y-145722997D01*
X198094438Y-145654183D01*
X198040089Y-145591248D01*
X198032722Y-145581867D01*
X198002117Y-145542356D01*
X198001867Y-146674116D01*
X197392267Y-146674116D01*
X197392267Y-145446400D01*
X197489054Y-145446400D01*
X197602993Y-145435535D01*
X197710616Y-145403918D01*
X197809615Y-145353015D01*
X197897684Y-145284293D01*
X197972516Y-145199219D01*
X198030384Y-145102232D01*
X198070005Y-144995964D01*
X198088573Y-144888950D01*
X198087434Y-144783300D01*
X198067930Y-144681125D01*
X198031406Y-144584534D01*
X197979205Y-144495638D01*
X197934249Y-144442195D01*
X198904978Y-144442195D01*
X198904978Y-144887853D01*
X198905142Y-144985670D01*
X198905611Y-145076064D01*
X198906347Y-145156630D01*
X198907316Y-145224962D01*
X198908480Y-145278656D01*
X198909803Y-145315305D01*
X198911249Y-145332504D01*
X198911702Y-145333511D01*
X198924659Y-145327602D01*
X198946908Y-145313272D01*
X198948391Y-145312225D01*
X198978544Y-145293438D01*
X199015375Y-145273791D01*
X199023511Y-145269892D01*
X199031940Y-145266356D01*
X199042059Y-145263230D01*
X199055260Y-145260486D01*
X199072938Y-145258092D01*
X199096484Y-145256019D01*
X199127293Y-145254235D01*
X199166757Y-145252712D01*
X199216269Y-145251419D01*
X199277223Y-145250326D01*
X199351011Y-145249403D01*
X199439028Y-145248619D01*
X199542665Y-145247945D01*
X199663316Y-145247350D01*
X199802374Y-145246805D01*
X199961232Y-145246279D01*
X200140089Y-145245745D01*
X200325207Y-145245206D01*
X200489145Y-145244772D01*
X200633303Y-145244509D01*
X200759079Y-145244484D01*
X200867871Y-145244765D01*
X200961077Y-145245419D01*
X201040097Y-145246514D01*
X201106328Y-145248118D01*
X201161170Y-145250297D01*
X201206021Y-145253119D01*
X201242278Y-145256651D01*
X201271341Y-145260961D01*
X201294609Y-145266117D01*
X201313479Y-145272185D01*
X201329351Y-145279233D01*
X201343622Y-145287329D01*
X201357691Y-145296540D01*
X201370158Y-145305040D01*
X201396452Y-145322176D01*
X201414037Y-145332322D01*
X201417257Y-145333511D01*
X201418334Y-145322604D01*
X201419335Y-145291411D01*
X201420235Y-145242223D01*
X201421010Y-145177333D01*
X201421637Y-145099030D01*
X201422091Y-145009607D01*
X201422349Y-144911356D01*
X201422400Y-144842445D01*
X201422180Y-144737452D01*
X201421548Y-144640610D01*
X201420549Y-144554107D01*
X201419227Y-144480132D01*
X201417626Y-144420874D01*
X201415791Y-144378520D01*
X201413765Y-144355260D01*
X201412493Y-144351378D01*
X201397591Y-144359076D01*
X201389560Y-144367074D01*
X201372434Y-144380246D01*
X201342183Y-144397485D01*
X201317622Y-144409407D01*
X201258711Y-144436045D01*
X200081845Y-144439120D01*
X198904978Y-144442195D01*
X197934249Y-144442195D01*
X197912673Y-144416546D01*
X197833152Y-144349369D01*
X197741987Y-144296217D01*
X197640523Y-144259199D01*
X197530102Y-144240427D01*
X197480206Y-144238489D01*
X197392267Y-144238489D01*
X197392267Y-144186560D01*
X197395111Y-144150253D01*
X197406911Y-144123355D01*
X197430649Y-144096249D01*
X197469031Y-144057867D01*
X199660602Y-144057867D01*
X199922739Y-144057876D01*
G36*
X199922739Y-144057876D02*
G01*
X200163241Y-144057908D01*
X200383048Y-144057972D01*
X200583101Y-144058076D01*
X200764344Y-144058227D01*
X200927716Y-144058434D01*
X201074160Y-144058706D01*
X201204617Y-144059050D01*
X201320029Y-144059474D01*
X201421338Y-144059987D01*
X201509484Y-144060597D01*
X201585410Y-144061312D01*
X201650057Y-144062140D01*
X201704367Y-144063089D01*
X201749280Y-144064167D01*
X201785740Y-144065383D01*
X201814687Y-144066745D01*
X201837063Y-144068261D01*
X201853809Y-144069938D01*
X201865868Y-144071786D01*
X201874180Y-144073813D01*
X201879687Y-144076025D01*
X201881537Y-144077108D01*
X201888549Y-144081271D01*
X201894996Y-144084805D01*
X201900900Y-144088635D01*
X201906286Y-144093682D01*
X201911178Y-144100871D01*
X201915598Y-144111123D01*
X201919572Y-144125364D01*
X201923121Y-144144514D01*
X201926270Y-144169499D01*
X201929042Y-144201240D01*
X201931461Y-144240662D01*
X201933551Y-144288686D01*
X201935335Y-144346237D01*
X201936837Y-144414237D01*
X201938080Y-144493610D01*
X201939089Y-144585279D01*
X201939885Y-144690166D01*
X201940494Y-144809196D01*
X201940939Y-144943290D01*
X201941243Y-145093373D01*
X201941430Y-145260367D01*
X201941524Y-145445196D01*
X201941548Y-145648783D01*
X201941525Y-145872050D01*
X201941480Y-146115922D01*
X201941437Y-146381321D01*
X201941432Y-146419704D01*
X201941389Y-146686682D01*
X201941318Y-146932002D01*
X201941213Y-147156583D01*
X201941066Y-147361345D01*
X201940869Y-147547206D01*
X201940616Y-147715088D01*
X201940300Y-147865908D01*
X201939913Y-148000587D01*
X201939447Y-148120044D01*
X201938897Y-148225199D01*
X201938253Y-148316971D01*
X201937511Y-148396279D01*
X201936661Y-148464043D01*
X201935697Y-148521182D01*
X201934611Y-148568617D01*
X201933397Y-148607266D01*
X201932047Y-148638049D01*
X201930555Y-148661885D01*
X201928911Y-148679694D01*
X201927111Y-148692395D01*
X201925145Y-148700908D01*
X201923477Y-148705266D01*
X201919906Y-148713728D01*
X201917270Y-148721497D01*
X201914634Y-148728602D01*
X201911062Y-148735073D01*
X201905621Y-148740939D01*
X201897375Y-148746229D01*
X201885390Y-148750974D01*
X201868731Y-148755202D01*
X201846463Y-148758943D01*
X201817652Y-148762227D01*
X201781363Y-148765083D01*
X201736661Y-148767540D01*
X201682611Y-148769629D01*
X201618279Y-148771378D01*
X201542730Y-148772817D01*
X201455030Y-148773976D01*
X201354243Y-148774883D01*
X201239434Y-148775569D01*
X201109670Y-148776063D01*
X200964015Y-148776395D01*
X200801535Y-148776593D01*
X200621295Y-148776687D01*
X200422360Y-148776708D01*
X200203796Y-148776685D01*
X199964668Y-148776646D01*
X199704040Y-148776622D01*
X199661889Y-148776622D01*
X199398992Y-148776636D01*
X199157732Y-148776661D01*
X198937165Y-148776671D01*
X198736352Y-148776642D01*
X198554349Y-148776548D01*
X198390216Y-148776362D01*
X198243011Y-148776059D01*
X198111792Y-148775614D01*
X198001867Y-148775034D01*
X197995617Y-148775001D01*
X197893544Y-148774195D01*
X197804633Y-148773170D01*
X197727941Y-148771900D01*
X197662527Y-148770360D01*
X197607449Y-148768524D01*
X197561765Y-148766367D01*
X197524534Y-148763863D01*
X197494813Y-148760987D01*
X197471662Y-148757713D01*
X197454139Y-148754015D01*
X197441301Y-148749869D01*
X197432208Y-148745247D01*
X197425918Y-148740126D01*
X197421488Y-148734478D01*
X197417978Y-148728279D01*
X197414445Y-148721504D01*
X197410876Y-148715508D01*
X197408300Y-148710275D01*
X197405972Y-148702099D01*
X197403878Y-148689886D01*
X197402007Y-148672541D01*
X197400347Y-148648969D01*
X197398884Y-148618077D01*
X197397608Y-148578768D01*
X197396504Y-148529950D01*
X197395561Y-148470527D01*
X197394767Y-148399404D01*
X197394109Y-148315488D01*
X197393575Y-148217683D01*
X197393153Y-148104894D01*
X197392829Y-147976029D01*
X197392592Y-147829991D01*
X197392430Y-147665686D01*
X197392330Y-147482020D01*
X197392280Y-147277897D01*
X197392267Y-147066753D01*
X197392267Y-146674116D01*
X198001867Y-146674116D01*
X198049844Y-146668827D01*
X198107188Y-146672130D01*
X198175463Y-146693661D01*
X198255212Y-146733635D01*
X198327495Y-146778943D01*
X198350140Y-146795161D01*
X198387696Y-146823214D01*
X198438021Y-146861430D01*
X198498973Y-146908137D01*
X198568411Y-146961661D01*
X198644194Y-147020331D01*
X198724180Y-147082475D01*
X198806228Y-147146421D01*
X198888196Y-147210495D01*
X198967943Y-147273027D01*
X199043327Y-147332343D01*
X199112207Y-147386771D01*
X199172442Y-147434639D01*
X199221889Y-147474275D01*
X199258408Y-147504006D01*
X199279858Y-147522161D01*
X199283156Y-147525220D01*
X199275149Y-147528079D01*
X199244855Y-147530293D01*
X199192556Y-147531857D01*
X199118531Y-147532767D01*
X199023063Y-147533020D01*
X198906434Y-147532613D01*
X198786445Y-147531704D01*
X198654333Y-147530382D01*
X198542594Y-147528857D01*
X198449025Y-147526881D01*
X198371419Y-147524206D01*
X198307574Y-147520582D01*
X198255283Y-147515761D01*
X198212344Y-147509494D01*
X198176551Y-147501532D01*
X198145700Y-147491627D01*
X198117586Y-147479531D01*
X198090005Y-147464993D01*
X198064966Y-147450311D01*
X198001867Y-147412314D01*
X198001867Y-148472197D01*
X198059711Y-148432407D01*
X198075479Y-148421236D01*
X198089441Y-148411166D01*
X198102784Y-148402138D01*
X198116693Y-148394097D01*
X198132356Y-148386986D01*
X198150958Y-148380747D01*
X198173686Y-148375325D01*
X198201727Y-148370662D01*
X198236267Y-148366701D01*
X198278492Y-148363385D01*
X198329589Y-148360659D01*
X198390744Y-148358464D01*
X198463144Y-148356745D01*
X198547975Y-148355444D01*
X198646422Y-148354505D01*
X198759674Y-148353870D01*
X198888916Y-148353484D01*
X199035334Y-148353288D01*
X199200116Y-148353227D01*
X199384447Y-148353243D01*
X199589513Y-148353280D01*
X199712133Y-148353289D01*
X199929082Y-148353265D01*
X200124642Y-148353231D01*
X200299999Y-148353243D01*
X200456341Y-148353358D01*
X200594857Y-148353630D01*
X200716734Y-148354118D01*
X200823160Y-148354876D01*
X200915322Y-148355962D01*
X200994409Y-148357431D01*
X201061608Y-148359340D01*
X201118107Y-148361744D01*
X201165093Y-148364701D01*
X201203755Y-148368266D01*
X201235280Y-148372495D01*
X201260855Y-148377446D01*
X201281670Y-148383173D01*
X201298911Y-148389733D01*
X201313765Y-148397183D01*
X201327422Y-148405579D01*
X201341069Y-148414976D01*
X201355893Y-148425432D01*
X201364783Y-148431523D01*
X201422400Y-148470296D01*
X201422400Y-147938732D01*
X201422365Y-147815483D01*
X201422215Y-147712987D01*
X201421878Y-147629420D01*
X201421286Y-147562956D01*
X201420367Y-147511771D01*
X201419051Y-147474041D01*
X201417269Y-147447940D01*
X201414951Y-147431644D01*
X201412026Y-147423328D01*
X201408424Y-147421168D01*
X201404075Y-147423339D01*
X201402645Y-147424535D01*
X201365573Y-147449685D01*
X201312772Y-147475583D01*
X201250770Y-147499192D01*
X201224357Y-147507461D01*
X201206416Y-147512078D01*
X201185355Y-147515979D01*
X201159089Y-147519248D01*
X201125532Y-147521966D01*
X201082599Y-147524215D01*
X201028204Y-147526077D01*
X200960262Y-147527636D01*
X200876688Y-147528972D01*
X200775395Y-147530169D01*
X200654300Y-147531308D01*
X200609600Y-147531685D01*
X200484449Y-147532702D01*
X200380082Y-147533460D01*
X200294707Y-147533903D01*
X200226533Y-147533970D01*
X200173765Y-147533605D01*
X200134614Y-147532748D01*
X200107285Y-147531341D01*
X200089986Y-147529325D01*
X200080926Y-147526643D01*
X200078312Y-147523236D01*
X200080351Y-147519044D01*
X200084667Y-147514571D01*
X200097602Y-147504216D01*
X200126676Y-147482158D01*
X200169759Y-147449957D01*
X200224718Y-147409174D01*
X200289423Y-147361370D01*
X200361742Y-147308105D01*
X200439544Y-147250940D01*
X200520698Y-147191437D01*
X200603072Y-147131155D01*
X200684536Y-147071655D01*
X200762957Y-147014498D01*
X200836204Y-146961245D01*
X200902147Y-146913457D01*
X200958654Y-146872693D01*
X201003593Y-146840516D01*
X201034834Y-146818485D01*
X201041466Y-146813917D01*
X201078369Y-146790996D01*
X201126359Y-146764188D01*
X201175897Y-146738789D01*
X201182577Y-146735568D01*
X201230772Y-146713890D01*
X201268334Y-146701304D01*
X201304160Y-146695574D01*
X201346200Y-146694456D01*
X201422400Y-146695090D01*
X201422400Y-145540651D01*
X201328669Y-145631815D01*
X201278775Y-145678612D01*
X201222295Y-145728899D01*
X201168026Y-145774944D01*
X201142673Y-145795369D01*
X201103128Y-145825807D01*
X201049916Y-145865862D01*
X200984667Y-145914361D01*
X200909011Y-145970135D01*
X200824577Y-146032011D01*
X200732994Y-146098819D01*
X200635892Y-146169387D01*
X200534901Y-146242545D01*
X200431650Y-146317121D01*
X200327768Y-146391944D01*
X200224885Y-146465843D01*
X200124631Y-146537646D01*
X200028636Y-146606184D01*
X199938527Y-146670284D01*
X199855936Y-146728775D01*
X199782492Y-146780486D01*
X199719824Y-146824247D01*
X199669561Y-146858885D01*
X199633334Y-146883230D01*
X199612771Y-146896111D01*
X199608668Y-146897869D01*
X199597342Y-146889910D01*
X199570162Y-146869115D01*
X199528829Y-146836847D01*
X199475044Y-146794470D01*
X199410506Y-146743347D01*
X199336918Y-146684841D01*
X199255978Y-146620314D01*
X199169388Y-146551131D01*
X199078848Y-146478653D01*
X198986060Y-146404246D01*
X198911702Y-146344517D01*
X198892722Y-146329270D01*
X198800537Y-146255090D01*
X198711204Y-146183069D01*
X198626424Y-146114569D01*
X198547898Y-146050955D01*
X198477326Y-145993588D01*
X198416409Y-145943833D01*
X198366847Y-145903052D01*
X198346178Y-145885888D01*
X198245516Y-145799596D01*
X198162259Y-145722997D01*
X198094438Y-145654183D01*
X198040089Y-145591248D01*
X198032722Y-145581867D01*
X198002117Y-145542356D01*
X198001867Y-146674116D01*
X197392267Y-146674116D01*
X197392267Y-145446400D01*
X197489054Y-145446400D01*
X197602993Y-145435535D01*
X197710616Y-145403918D01*
X197809615Y-145353015D01*
X197897684Y-145284293D01*
X197972516Y-145199219D01*
X198030384Y-145102232D01*
X198070005Y-144995964D01*
X198088573Y-144888950D01*
X198087434Y-144783300D01*
X198067930Y-144681125D01*
X198031406Y-144584534D01*
X197979205Y-144495638D01*
X197934249Y-144442195D01*
X198904978Y-144442195D01*
X198904978Y-144887853D01*
X198905142Y-144985670D01*
X198905611Y-145076064D01*
X198906347Y-145156630D01*
X198907316Y-145224962D01*
X198908480Y-145278656D01*
X198909803Y-145315305D01*
X198911249Y-145332504D01*
X198911702Y-145333511D01*
X198924659Y-145327602D01*
X198946908Y-145313272D01*
X198948391Y-145312225D01*
X198978544Y-145293438D01*
X199015375Y-145273791D01*
X199023511Y-145269892D01*
X199031940Y-145266356D01*
X199042059Y-145263230D01*
X199055260Y-145260486D01*
X199072938Y-145258092D01*
X199096484Y-145256019D01*
X199127293Y-145254235D01*
X199166757Y-145252712D01*
X199216269Y-145251419D01*
X199277223Y-145250326D01*
X199351011Y-145249403D01*
X199439028Y-145248619D01*
X199542665Y-145247945D01*
X199663316Y-145247350D01*
X199802374Y-145246805D01*
X199961232Y-145246279D01*
X200140089Y-145245745D01*
X200325207Y-145245206D01*
X200489145Y-145244772D01*
X200633303Y-145244509D01*
X200759079Y-145244484D01*
X200867871Y-145244765D01*
X200961077Y-145245419D01*
X201040097Y-145246514D01*
X201106328Y-145248118D01*
X201161170Y-145250297D01*
X201206021Y-145253119D01*
X201242278Y-145256651D01*
X201271341Y-145260961D01*
X201294609Y-145266117D01*
X201313479Y-145272185D01*
X201329351Y-145279233D01*
X201343622Y-145287329D01*
X201357691Y-145296540D01*
X201370158Y-145305040D01*
X201396452Y-145322176D01*
X201414037Y-145332322D01*
X201417257Y-145333511D01*
X201418334Y-145322604D01*
X201419335Y-145291411D01*
X201420235Y-145242223D01*
X201421010Y-145177333D01*
X201421637Y-145099030D01*
X201422091Y-145009607D01*
X201422349Y-144911356D01*
X201422400Y-144842445D01*
X201422180Y-144737452D01*
X201421548Y-144640610D01*
X201420549Y-144554107D01*
X201419227Y-144480132D01*
X201417626Y-144420874D01*
X201415791Y-144378520D01*
X201413765Y-144355260D01*
X201412493Y-144351378D01*
X201397591Y-144359076D01*
X201389560Y-144367074D01*
X201372434Y-144380246D01*
X201342183Y-144397485D01*
X201317622Y-144409407D01*
X201258711Y-144436045D01*
X200081845Y-144439120D01*
X198904978Y-144442195D01*
X197934249Y-144442195D01*
X197912673Y-144416546D01*
X197833152Y-144349369D01*
X197741987Y-144296217D01*
X197640523Y-144259199D01*
X197530102Y-144240427D01*
X197480206Y-144238489D01*
X197392267Y-144238489D01*
X197392267Y-144186560D01*
X197395111Y-144150253D01*
X197406911Y-144123355D01*
X197430649Y-144096249D01*
X197469031Y-144057867D01*
X199660602Y-144057867D01*
X199922739Y-144057876D01*
G37*
D21*
%TO.C,R2*%
X95150000Y-76046000D02*
X95150000Y-82586000D01*
X95150000Y-82586000D02*
X97890000Y-82586000D01*
X96520000Y-75276000D02*
X96520000Y-76046000D01*
X96520000Y-83356000D02*
X96520000Y-82586000D01*
X97890000Y-76046000D02*
X95150000Y-76046000D01*
X97890000Y-82586000D02*
X97890000Y-76046000D01*
%TO.C,R1*%
X98960000Y-76046000D02*
X98960000Y-82586000D01*
X98960000Y-82586000D02*
X101700000Y-82586000D01*
X100330000Y-75276000D02*
X100330000Y-76046000D01*
X100330000Y-83356000D02*
X100330000Y-82586000D01*
X101700000Y-76046000D02*
X98960000Y-76046000D01*
X101700000Y-82586000D02*
X101700000Y-76046000D01*
D22*
%TO.C,BMS1*%
X172950000Y-86520000D02*
X193270000Y-86520000D01*
X172950000Y-147480000D02*
X172950000Y-86520000D01*
X193270000Y-86520000D02*
X193270000Y-147480000D01*
X193270000Y-147480000D02*
X172950000Y-147480000D01*
D21*
%TO.C,R4*%
X95785000Y-79088936D02*
X95785000Y-79543064D01*
X97255000Y-79088936D02*
X97255000Y-79543064D01*
D17*
%TO.C,H4*%
X100540000Y-138172500D02*
G75*
G02*
X97140000Y-138172500I-1700000J0D01*
G01*
X97140000Y-138172500D02*
G75*
G02*
X100540000Y-138172500I1700000J0D01*
G01*
D15*
X101380000Y-138172500D02*
G75*
G02*
X96300000Y-138172500I-2540000J0D01*
G01*
X96300000Y-138172500D02*
G75*
G02*
X101380000Y-138172500I2540000J0D01*
G01*
D17*
%TO.C,H202*%
X203648750Y-99437500D02*
G75*
G02*
X200248750Y-99437500I-1700000J0D01*
G01*
X200248750Y-99437500D02*
G75*
G02*
X203648750Y-99437500I1700000J0D01*
G01*
D15*
X204488750Y-99437500D02*
G75*
G02*
X199408750Y-99437500I-2540000J0D01*
G01*
X199408750Y-99437500D02*
G75*
G02*
X204488750Y-99437500I2540000J0D01*
G01*
D21*
%TO.C,BT2*%
X128380000Y-63000000D02*
X148480000Y-63000000D01*
X128380000Y-141000000D02*
X128380000Y-63000000D01*
X148480000Y-63000000D02*
X148480000Y-141000000D01*
X148480000Y-141000000D02*
X128380000Y-141000000D01*
%TO.C,BT1*%
X149950000Y-63000000D02*
X170050000Y-63000000D01*
X149950000Y-141000000D02*
X149950000Y-63000000D01*
X170050000Y-63000000D02*
X170050000Y-141000000D01*
X170050000Y-141000000D02*
X149950000Y-141000000D01*
D15*
%TO.C,J2*%
X120430000Y-144835000D02*
X121065000Y-144200000D01*
X120430000Y-148645000D02*
X120430000Y-144835000D01*
X120430000Y-148645000D02*
X121065000Y-149280000D01*
X121065000Y-144200000D02*
X122335000Y-144200000D01*
X121065000Y-149280000D02*
X122335000Y-149280000D01*
X122335000Y-144200000D02*
X122970000Y-144835000D01*
X122335000Y-149280000D02*
X122970000Y-148645000D01*
X122970000Y-144835000D02*
X122970000Y-148645000D01*
X122970000Y-144835000D02*
X123605000Y-144200000D01*
X122970000Y-148645000D02*
X123605000Y-149280000D01*
X123605000Y-144200000D02*
X124875000Y-144200000D01*
X123605000Y-149280000D02*
X124875000Y-149280000D01*
X124875000Y-144200000D02*
X125510000Y-144835000D01*
X124875000Y-149280000D02*
X125510000Y-148645000D01*
X125510000Y-144835000D02*
X125510000Y-148645000D01*
X125510000Y-144835000D02*
X126145000Y-144200000D01*
X125510000Y-148645000D02*
X126145000Y-149280000D01*
X126145000Y-144200000D02*
X127415000Y-144200000D01*
X126145000Y-149280000D02*
X127415000Y-149280000D01*
X127415000Y-144200000D02*
X128050000Y-144835000D01*
X127415000Y-149280000D02*
X128050000Y-148645000D01*
X128050000Y-144835000D02*
X128050000Y-148645000D01*
%TO.C,J3*%
X195042500Y-55305000D02*
X195042500Y-56575000D01*
X195042500Y-56575000D02*
X195677500Y-57210000D01*
X195042500Y-57845000D02*
X195042500Y-59115000D01*
X195042500Y-59115000D02*
X195677500Y-59750000D01*
X195677500Y-54670000D02*
X195042500Y-55305000D01*
X195677500Y-54670000D02*
X199487500Y-54670000D01*
X195677500Y-57210000D02*
X195042500Y-57845000D01*
X199487500Y-54670000D02*
X200122500Y-55305000D01*
X199487500Y-57210000D02*
X195677500Y-57210000D01*
X199487500Y-57210000D02*
X200122500Y-57845000D01*
X199487500Y-59750000D02*
X195677500Y-59750000D01*
X200122500Y-55305000D02*
X200122500Y-56575000D01*
X200122500Y-56575000D02*
X199487500Y-57210000D01*
X200122500Y-57845000D02*
X200122500Y-59115000D01*
X200122500Y-59115000D02*
X199487500Y-59750000D01*
%TD*%
M02*
