%TF.GenerationSoftware,KiCad,Pcbnew,9.0.0*%
%TF.CreationDate,2025-04-09T21:16:24+03:00*%
%TF.ProjectId,QMX+ Battery + Audio Board,514d582b-2042-4617-9474-657279202b20,rev?*%
%TF.SameCoordinates,Original*%
%TF.FileFunction,Soldermask,Bot*%
%TF.FilePolarity,Negative*%
%FSLAX46Y46*%
G04 Gerber Fmt 4.6, Leading zero omitted, Abs format (unit mm)*
G04 Created by KiCad (PCBNEW 9.0.0) date 2025-04-09 21:16:24*
%MOMM*%
%LPD*%
G01*
G04 APERTURE LIST*
G04 Aperture macros list*
%AMOutline5P*
0 Free polygon, 5 corners , with rotation*
0 The origin of the aperture is its center*
0 number of corners: always 5*
0 $1 to $10 corner X, Y*
0 $11 Rotation angle, in degrees counterclockwise*
0 create outline with 5 corners*
4,1,5,$1,$2,$3,$4,$5,$6,$7,$8,$9,$10,$1,$2,$11*%
%AMOutline6P*
0 Free polygon, 6 corners , with rotation*
0 The origin of the aperture is its center*
0 number of corners: always 6*
0 $1 to $12 corner X, Y*
0 $13 Rotation angle, in degrees counterclockwise*
0 create outline with 6 corners*
4,1,6,$1,$2,$3,$4,$5,$6,$7,$8,$9,$10,$11,$12,$1,$2,$13*%
%AMOutline7P*
0 Free polygon, 7 corners , with rotation*
0 The origin of the aperture is its center*
0 number of corners: always 7*
0 $1 to $14 corner X, Y*
0 $15 Rotation angle, in degrees counterclockwise*
0 create outline with 7 corners*
4,1,7,$1,$2,$3,$4,$5,$6,$7,$8,$9,$10,$11,$12,$13,$14,$1,$2,$15*%
%AMOutline8P*
0 Free polygon, 8 corners , with rotation*
0 The origin of the aperture is its center*
0 number of corners: always 8*
0 $1 to $16 corner X, Y*
0 $17 Rotation angle, in degrees counterclockwise*
0 create outline with 8 corners*
4,1,8,$1,$2,$3,$4,$5,$6,$7,$8,$9,$10,$11,$12,$13,$14,$15,$16,$1,$2,$17*%
G04 Aperture macros list end*
%ADD10R,2.000000X3.000000*%
%ADD11R,3.000000X4.000000*%
%ADD12R,3.500000X3.500000*%
%ADD13C,3.500000*%
%ADD14C,2.000000*%
%ADD15O,2.000000X2.000000*%
%ADD16O,2.540000X2.000000*%
%ADD17C,1.600000*%
%ADD18O,1.600000X1.600000*%
%ADD19R,2.520000X1.551400*%
%ADD20R,2.500000X3.000000*%
%ADD21C,3.810000*%
%ADD22Outline8P,-0.889000X0.368236X-0.368236X0.889000X0.368236X0.889000X0.889000X0.368236X0.889000X-0.368236X0.368236X-0.889000X-0.368236X-0.889000X-0.889000X-0.368236X0.000000*%
%ADD23Outline8P,-0.889000X0.368236X-0.368236X0.889000X0.368236X0.889000X0.889000X0.368236X0.889000X-0.368236X0.368236X-0.889000X-0.368236X-0.889000X-0.889000X-0.368236X270.000000*%
G04 APERTURE END LIST*
D10*
%TO.C,U1*%
X212668500Y-77317500D03*
X212668500Y-62839500D03*
D11*
X178938500Y-67665500D03*
X178938500Y-72491500D03*
%TD*%
D12*
%TO.C,BT3*%
X116840000Y-66000000D03*
D13*
X116840000Y-138000000D03*
%TD*%
D14*
%TO.C,F1*%
X210000000Y-93980000D03*
X210000000Y-109220000D03*
%TD*%
D15*
%TO.C,U2*%
X102284000Y-90028200D03*
X99744000Y-90006100D03*
X94655000Y-90028200D03*
X97204000Y-90006100D03*
%TD*%
D16*
%TO.C,J1*%
X96940000Y-68640000D03*
X96940000Y-66100000D03*
X96940000Y-63560000D03*
X96940000Y-61020000D03*
X96940000Y-58480000D03*
%TD*%
D17*
%TO.C,R2*%
X96520000Y-74236000D03*
D18*
X96520000Y-84396000D03*
%TD*%
D17*
%TO.C,R1*%
X100330000Y-74236000D03*
D18*
X100330000Y-84396000D03*
%TD*%
D19*
%TO.C,BMS1*%
X192010000Y-133750300D03*
D20*
X192000000Y-132240000D03*
X192000000Y-113190000D03*
X192000000Y-94140000D03*
X174220000Y-94140000D03*
X180570000Y-89060000D03*
X185650000Y-89060000D03*
%TD*%
D21*
%TO.C,H4*%
X98840000Y-138172500D03*
%TD*%
%TO.C,H202*%
X201948750Y-99437500D03*
%TD*%
D12*
%TO.C,BT2*%
X138430000Y-138000000D03*
D13*
X138430000Y-66000000D03*
%TD*%
D12*
%TO.C,BT1*%
X160000000Y-66000000D03*
D13*
X160000000Y-138000000D03*
%TD*%
D22*
%TO.C,J2*%
X121700000Y-148010000D03*
X121700000Y-145470000D03*
X124240000Y-148010000D03*
X124240000Y-145470000D03*
X126780000Y-148010000D03*
X126780000Y-145470000D03*
%TD*%
D23*
%TO.C,J3*%
X196312500Y-55940000D03*
X198852500Y-55940000D03*
X196312500Y-58480000D03*
X198852500Y-58480000D03*
%TD*%
M02*
